<svg width="9" height="10" viewBox="0 0 9 10" fill="none" xmlns="http://www.w3.org/2000/svg">
<path d="M8.2432 2.41198L7.55945 1.04448C7.53002 0.988193 7.48584 0.940967 7.43165 0.907847C7.37745 0.874728 7.31527 0.85696 7.25176 0.856445H1.09801C1.0345 0.85696 0.972323 0.874728 0.918127 0.907847C0.863932 0.940967 0.819756 0.988193 0.790325 1.04448L0.106575 2.41198C0.0846824 2.46035 0.0730423 2.51273 0.0723877 2.56582V8.3777C0.0723877 8.55904 0.144425 8.73295 0.272653 8.86118C0.400881 8.98941 0.574796 9.06145 0.756138 9.06145H7.59364C7.77498 9.06145 7.94889 8.98941 8.07712 8.86118C8.20535 8.73295 8.27739 8.55904 8.27739 8.3777V2.56582C8.27673 2.51273 8.26509 2.46035 8.2432 2.41198ZM1.30741 1.5402H7.04236L7.38424 2.22395H0.965536L1.30741 1.5402ZM7.59364 8.3777H0.756138V2.9077H7.59364V8.3777ZM5.86717 5.65979C5.9311 5.72388 5.96701 5.81071 5.96701 5.90124C5.96701 5.99177 5.9311 6.0786 5.86717 6.14269L4.41847 7.59566C4.35313 7.65884 4.26579 7.69416 4.17489 7.69416C4.08399 7.69416 3.99665 7.65884 3.9313 7.59566L2.48261 6.14269C2.42368 6.07765 2.39202 5.99245 2.39418 5.90472C2.39634 5.81699 2.43216 5.73345 2.49421 5.67139C2.55626 5.60934 2.63981 5.57352 2.72754 5.57136C2.81527 5.5692 2.90047 5.60086 2.9655 5.65979L3.83301 6.5273V3.93332C3.83301 3.84265 3.86903 3.75569 3.93315 3.69158C3.99726 3.62746 4.08422 3.59145 4.17489 3.59145C4.26556 3.59145 4.35252 3.62746 4.41663 3.69158C4.48074 3.75569 4.51676 3.84265 4.51676 3.93332V6.5273L5.38427 5.65979C5.44836 5.59585 5.53519 5.55995 5.62572 5.55995C5.71625 5.55995 5.80308 5.59585 5.86717 5.65979Z" fill="#FE3C72"/>
</svg>
