<svg width="10" height="10" viewBox="0 0 10 10" fill="none" xmlns="http://www.w3.org/2000/svg">
<path d="M9.54765 2.12759L8.79552 0.623338C8.76315 0.561426 8.71455 0.509477 8.65494 0.473046C8.59532 0.436614 8.52693 0.417071 8.45707 0.416504H1.68794C1.61808 0.417071 1.54968 0.436614 1.49007 0.473046C1.43045 0.509477 1.38186 0.561426 1.34948 0.623338L0.59736 2.12759C0.573278 2.1808 0.560473 2.23842 0.559753 2.29682V8.68988C0.559753 8.88935 0.638995 9.08066 0.780046 9.22171C0.921097 9.36276 1.1124 9.442 1.31188 9.442H8.83313C9.0326 9.442 9.22391 9.36276 9.36496 9.22171C9.50601 9.08066 9.58525 8.88935 9.58525 8.68988V2.29682C9.58453 2.23842 9.57173 2.1808 9.54765 2.12759ZM1.91828 1.16863H8.22673L8.60279 1.92075H1.54222L1.91828 1.16863ZM8.83313 8.68988H1.31188V2.67288H8.83313V8.68988ZM6.93401 5.70018C7.00434 5.77068 7.04384 5.8662 7.04384 5.96578C7.04384 6.06536 7.00434 6.16087 6.93401 6.23137L5.34045 7.82964C5.26857 7.89914 5.17249 7.93799 5.0725 7.93799C4.97252 7.93799 4.87644 7.89914 4.80456 7.82964L3.21099 6.23137C3.14618 6.15983 3.11135 6.06611 3.11373 5.96961C3.1161 5.8731 3.1555 5.78121 3.22376 5.71295C3.29202 5.64469 3.38391 5.60529 3.48042 5.60291C3.57692 5.60054 3.67065 5.63536 3.74218 5.70018L4.69644 6.65444V3.80107C4.69644 3.70133 4.73606 3.60568 4.80659 3.53515C4.87711 3.46462 4.97277 3.425 5.0725 3.425C5.17224 3.425 5.26789 3.46462 5.33842 3.53515C5.40895 3.60568 5.44857 3.70133 5.44857 3.80107V6.65444L6.40282 5.70018C6.47332 5.62985 6.56884 5.59036 6.66842 5.59036C6.768 5.59036 6.86351 5.62985 6.93401 5.70018Z" fill="white"/>
</svg>
