<svg width="13" height="12" viewBox="0 0 13 12" fill="none" xmlns="http://www.w3.org/2000/svg">
<path d="M1.43009 5.53064H11.7526C11.8864 5.53064 12.0147 5.58379 12.1093 5.67841C12.2039 5.77303 12.2571 5.90136 12.2571 6.03517C12.2571 6.16898 12.2039 6.29731 12.1093 6.39192C12.0147 6.48654 11.8864 6.5397 11.7526 6.5397H1.43009C1.29628 6.5397 1.16795 6.48654 1.07334 6.39192C0.978719 6.29731 0.925564 6.16898 0.925564 6.03517C0.925564 5.90136 0.978719 5.77303 1.07334 5.67841C1.16795 5.58379 1.29628 5.53064 1.43009 5.53064Z" fill="white" stroke="white" stroke-width="0.0231852"/>
<path d="M1.63541 6.02771L1.62721 6.0359L1.63541 6.0441L5.91613 10.3238C6.01087 10.4185 6.06409 10.547 6.06409 10.681C6.06409 10.815 6.01087 10.9435 5.91613 11.0382C5.82139 11.133 5.69289 11.1862 5.55891 11.1862C5.42493 11.1862 5.29643 11.133 5.20169 11.0382L0.556587 6.39312L0.556576 6.39311C0.509591 6.34624 0.472314 6.29057 0.446879 6.22927C0.421444 6.16798 0.408352 6.10227 0.408352 6.0359C0.408352 5.96954 0.421444 5.90383 0.446879 5.84253C0.472314 5.78124 0.509591 5.72556 0.556576 5.6787L0.556587 5.67869L5.20169 1.03358C5.29643 0.93884 5.42493 0.885616 5.55891 0.885616C5.69289 0.885616 5.82139 0.93884 5.91613 1.03358C6.01087 1.12832 6.06409 1.25682 6.06409 1.3908C6.06409 1.52478 6.01087 1.65328 5.91613 1.74802L1.63541 6.02771ZM5.19349 11.0464L0.548389 6.40132L5.19349 1.02538C5.29041 0.928469 5.42185 0.874023 5.55891 0.874023C5.69597 0.874023 5.82741 0.928469 5.92432 1.02538C6.02124 1.1223 6.07568 1.25374 6.07568 1.3908C6.07568 1.52786 6.02124 1.6593 5.92432 1.75621L1.6518 6.02771L1.6436 6.0359L1.6518 6.0441L5.92432 10.3156C6.02124 10.4125 6.07568 10.544 6.07568 10.681C6.07568 10.8181 6.02124 10.9495 5.92432 11.0464C5.82741 11.1433 5.69597 11.1978 5.55891 11.1978C5.42185 11.1978 5.29041 11.1433 5.19349 11.0464Z" fill="white" stroke="white" stroke-width="0.0231852"/>
</svg>
