<svg width="10" height="12" viewBox="0 0 10 12" fill="none" xmlns="http://www.w3.org/2000/svg">
<path d="M4.10378 0.666992C3.88963 0.666992 3.66891 0.748769 3.51384 0.917211C3.35917 1.08476 3.28328 1.32387 3.28328 1.55587V2.0003H1.26621C1.02076 2.0003 0.821777 2.19929 0.821777 2.44474V2.47893C0.821777 2.70551 1.00545 2.88918 1.23203 2.88918V10.0002C1.23203 10.7313 1.78792 11.3335 2.46278 11.3335H7.38578C8.06064 11.3335 8.61653 10.7313 8.61653 10.0002V2.88918C8.8431 2.88918 9.02678 2.7055 9.02678 2.47893V2.44474C9.02678 2.19929 8.8278 2.0003 8.58234 2.0003H6.56528V1.55587C6.56528 1.32387 6.48979 1.08476 6.33431 0.916766C6.17964 0.749657 5.95934 0.666992 5.74478 0.666992H4.10378ZM4.10378 1.55587H5.74478V2.0003H4.10378V1.55587ZM2.05253 2.88918H7.79603V10.0002C7.79603 10.2468 7.61347 10.4446 7.38578 10.4446H2.46278C2.23509 10.4446 2.05253 10.2468 2.05253 10.0002V2.88918Z" fill="white"/>
<rect x="6.06128" y="4.76855" width="0.8205" height="3.9283" rx="0.41025" transform="rotate(45 6.06128 4.76855)" fill="white"/>
<rect x="3.28418" y="5.34863" width="0.8205" height="3.9283" rx="0.41025" transform="rotate(-45 3.28418 5.34863)" fill="white"/>
</svg>
