<svg width="11" height="11" viewBox="0 0 11 11" fill="none" xmlns="http://www.w3.org/2000/svg">
<path d="M10.3596 2.63745C10.3593 2.29866 10.2624 1.96699 10.0803 1.68136C9.89815 1.39572 9.63839 1.16796 9.33145 1.02479C9.02451 0.881616 8.68313 0.828977 8.34734 0.873044C8.01155 0.917111 7.69529 1.05606 7.43565 1.27358C7.17601 1.4911 6.98377 1.77819 6.88147 2.10115C6.77917 2.42411 6.77106 2.76956 6.85809 3.09697C6.94512 3.42437 7.12369 3.72017 7.37283 3.94964C7.62197 4.17912 7.93137 4.33276 8.26472 4.39255V4.52353C8.26334 4.77321 8.16358 5.01228 7.98709 5.18883C7.81059 5.36539 7.57161 5.46519 7.32202 5.46656H3.55121C3.30161 5.46519 3.06263 5.36539 2.88614 5.18883C2.70964 5.01228 2.60988 4.77321 2.60851 4.52353V4.39255C3.04648 4.314 3.43918 4.07426 3.70929 3.72055C3.9794 3.36684 4.10735 2.92478 4.06793 2.48141C4.02852 2.03805 3.8246 1.62551 3.49633 1.32504C3.16806 1.02456 2.73923 0.857911 2.29427 0.857911C1.84932 0.857911 1.42049 1.02456 1.09222 1.32504C0.763949 1.62551 0.56003 2.03805 0.520615 2.48141C0.481199 2.92478 0.609143 3.36684 0.879254 3.72055C1.14937 4.07426 1.54207 4.314 1.98004 4.39255V4.52353C1.98004 4.94037 2.14557 5.34015 2.44022 5.63491C2.73488 5.92966 3.13451 6.09526 3.55121 6.09526H5.12238V7.16927C4.68441 7.24782 4.2917 7.48756 4.02159 7.84127C3.75148 8.19498 3.62354 8.63704 3.66295 9.08041C3.70237 9.52377 3.90629 9.93631 4.23456 10.2368C4.56283 10.5373 4.99166 10.7039 5.43661 10.7039C5.88157 10.7039 6.3104 10.5373 6.63867 10.2368C6.96694 9.93631 7.17086 9.52377 7.21027 9.08041C7.24969 8.63704 7.12174 8.19498 6.85163 7.84127C6.58152 7.48756 6.18882 7.24782 5.75085 7.16927V6.09526H7.32202C7.73829 6.09388 8.13712 5.92784 8.43148 5.63338C8.72583 5.33892 8.8918 4.93995 8.89319 4.52353V4.39255C9.30423 4.31779 9.67607 4.10123 9.944 3.78055C10.2119 3.45988 10.359 3.05538 10.3596 2.63745ZM1.14208 2.63745C1.14208 2.40948 1.20966 2.18664 1.33626 1.99709C1.46287 1.80755 1.64281 1.65982 1.85335 1.57258C2.06388 1.48534 2.29555 1.46252 2.51905 1.50699C2.74256 1.55146 2.94786 1.66124 3.109 1.82243C3.27013 1.98363 3.37987 2.189 3.42433 2.41259C3.46878 2.63617 3.44597 2.86792 3.35876 3.07853C3.27155 3.28914 3.12387 3.46915 2.9344 3.5958C2.74492 3.72245 2.52216 3.79005 2.29427 3.79005C1.98912 3.78867 1.69685 3.66679 1.48107 3.45094C1.26529 3.23508 1.14346 2.94271 1.14208 2.63745ZM6.5888 8.92437C6.5888 9.15234 6.52123 9.37518 6.39462 9.56473C6.26802 9.75427 6.08807 9.902 5.87754 9.98924C5.667 10.0765 5.43533 10.0993 5.21183 10.0548C4.98833 10.0104 4.78303 9.90058 4.62189 9.73939C4.46075 9.57819 4.35102 9.37282 4.30656 9.14924C4.2621 8.92565 4.28492 8.6939 4.37213 8.48329C4.45933 8.27268 4.60701 8.09267 4.79649 7.96602C4.98597 7.83937 5.20873 7.77177 5.43661 7.77177C5.74177 7.77315 6.03403 7.89503 6.24981 8.11088C6.46559 8.32674 6.58743 8.61911 6.5888 8.92437ZM8.57895 3.79005C8.35107 3.79005 8.12831 3.72245 7.93883 3.5958C7.74935 3.46915 7.60167 3.28914 7.51447 3.07853C7.42726 2.86792 7.40444 2.63617 7.4489 2.41259C7.49336 2.189 7.60309 1.98363 7.76423 1.82243C7.92537 1.66124 8.13067 1.55146 8.35417 1.50699C8.57767 1.46252 8.80934 1.48534 9.01988 1.57258C9.23041 1.65982 9.41036 1.80755 9.53696 1.99709C9.66357 2.18664 9.73114 2.40948 9.73114 2.63745C9.72976 2.94271 9.60793 3.23508 9.39215 3.45094C9.17637 3.66679 8.88411 3.78867 8.57895 3.79005Z" fill="white"/>
</svg>
