<svg width="11" height="11" viewBox="0 0 11 11" fill="none" xmlns="http://www.w3.org/2000/svg">
<path d="M8.42933 2.20136H7.60883V1.79111C7.60883 1.6823 7.56561 1.57796 7.48867 1.50102C7.41173 1.42408 7.30738 1.38086 7.19858 1.38086C7.08977 1.38086 6.98542 1.42408 6.90849 1.50102C6.83155 1.57796 6.78833 1.6823 6.78833 1.79111V2.20136H4.32683V1.79111C4.32683 1.6823 4.28361 1.57796 4.20667 1.50102C4.12973 1.42408 4.02538 1.38086 3.91658 1.38086C3.80777 1.38086 3.70342 1.42408 3.62649 1.50102C3.54955 1.57796 3.50633 1.6823 3.50633 1.79111V2.20136H2.68583C2.35941 2.20136 2.04637 2.33103 1.81556 2.56184C1.58475 2.79265 1.45508 3.10569 1.45508 3.43211V8.35511C1.45508 8.68152 1.58475 8.99457 1.81556 9.22538C2.04637 9.45619 2.35941 9.58586 2.68583 9.58586H8.42933C8.75574 9.58586 9.06879 9.45619 9.2996 9.22538C9.53041 8.99457 9.66008 8.68152 9.66008 8.35511V3.43211C9.66008 3.10569 9.53041 2.79265 9.2996 2.56184C9.06879 2.33103 8.75574 2.20136 8.42933 2.20136ZM8.83958 8.35511C8.83958 8.46391 8.79636 8.56826 8.71942 8.6452C8.64248 8.72214 8.53813 8.76536 8.42933 8.76536H2.68583C2.57702 8.76536 2.47267 8.72214 2.39574 8.6452C2.3188 8.56826 2.27558 8.46391 2.27558 8.35511V5.48336H8.83958V8.35511ZM8.83958 4.66286H2.27558V3.43211C2.27558 3.3233 2.3188 3.21896 2.39574 3.14202C2.47267 3.06508 2.57702 3.02186 2.68583 3.02186H3.50633V3.43211C3.50633 3.54091 3.54955 3.64526 3.62649 3.7222C3.70342 3.79914 3.80777 3.84236 3.91658 3.84236C4.02538 3.84236 4.12973 3.79914 4.20667 3.7222C4.28361 3.64526 4.32683 3.54091 4.32683 3.43211V3.02186H6.78833V3.43211C6.78833 3.54091 6.83155 3.64526 6.90849 3.7222C6.98542 3.79914 7.08977 3.84236 7.19858 3.84236C7.30738 3.84236 7.41173 3.79914 7.48867 3.7222C7.56561 3.64526 7.60883 3.54091 7.60883 3.43211V3.02186H8.42933C8.53813 3.02186 8.64248 3.06508 8.71942 3.14202C8.79636 3.21896 8.83958 3.3233 8.83958 3.43211V4.66286Z" fill="#BBBABC"/>
</svg>
