<svg width="16" height="17" viewBox="0 0 16 17" fill="none" xmlns="http://www.w3.org/2000/svg">
<path d="M7.81548 0.00160715C3.55332 -0.0875644 0.0103 3.54546 2.31109e-05 8.03533C-0.00249474 9.13229 0.200732 10.1959 0.604101 11.1966C0.609959 11.2112 0.615406 11.2259 0.620339 11.2408C1.17267 12.9005 1.07396 14.6928 0.361155 16.2574C1.46875 16.6194 2.71442 16.3302 3.56854 15.4612C3.77896 15.247 4.09379 15.1931 4.3578 15.3261C5.4281 15.8647 6.57767 16.1297 7.77473 16.1095C12.0035 16.0433 15.3161 12.5054 15.316 8.05514C15.3161 3.70198 11.9513 0.0892086 7.81548 0.00160715ZM3.57316 9.25817C2.96081 9.25817 2.46438 8.73598 2.46438 8.09185C2.46438 7.44773 2.96081 6.92553 3.57316 6.92553C4.18551 6.92553 4.68194 7.44773 4.68194 8.09185C4.68189 8.73598 4.18551 9.25817 3.57316 9.25817ZM7.65804 9.25817C7.04569 9.25817 6.54926 8.73598 6.54926 8.09185C6.54926 7.44773 7.04569 6.92553 7.65804 6.92553C8.27039 6.92553 8.76681 7.44773 8.76681 8.09185C8.76681 8.73598 8.27039 9.25817 7.65804 9.25817ZM11.743 9.25817C11.1306 9.25817 10.6342 8.73598 10.6342 8.09185C10.6342 7.44773 11.1306 6.92553 11.743 6.92553C12.3553 6.92553 12.8517 7.44773 12.8517 8.09185C12.8517 8.73598 12.3553 9.25817 11.743 9.25817Z" fill="white" fill-opacity="0.3"/>
</svg>
