<svg width="16" height="16" viewBox="0 0 16 16" fill="none" xmlns="http://www.w3.org/2000/svg">
<path fill-rule="evenodd" clip-rule="evenodd" d="M7.88458 1.99442C4.59924 1.99442 1.93595 4.65772 1.93595 7.94305C1.93595 11.2284 4.59924 13.8917 7.88458 13.8917C11.1699 13.8917 13.8332 11.2284 13.8332 7.94305C13.8332 4.65772 11.1699 1.99442 7.88458 1.99442ZM0.7052 7.94305C0.7052 3.97799 3.91952 0.763672 7.88458 0.763672C11.8496 0.763672 15.064 3.97799 15.064 7.94305C15.064 11.9081 11.8496 15.1224 7.88458 15.1224C3.91952 15.1224 0.7052 11.9081 0.7052 7.94305Z" fill="#BBBABC"/>
<path fill-rule="evenodd" clip-rule="evenodd" d="M7.88454 3.22559C8.22439 3.22559 8.49992 3.5011 8.49992 3.84096V7.60238L10.6722 8.96006C10.9604 9.14016 11.048 9.51981 10.8679 9.80805C10.6878 10.0963 10.3081 10.1838 10.0199 10.0037L7.55839 8.4653C7.37846 8.35281 7.26917 8.15564 7.26917 7.94346V3.84096C7.26917 3.5011 7.54469 3.22559 7.88454 3.22559Z" fill="#BBBABC"/>
</svg>
