<svg width="19" height="14" viewBox="0 0 19 14" fill="none" xmlns="http://www.w3.org/2000/svg">
<path fill-rule="evenodd" clip-rule="evenodd" d="M14.7324 0.876953C16.0531 0.876953 17.1262 1.89789 17.1262 3.16385C17.1262 3.90909 16.7544 4.58356 16.1875 5.01234C17.1254 5.38404 17.9392 6.15452 18.348 7.12533C18.5131 7.53371 18.4718 8.02376 18.2242 8.3913C17.9353 8.79967 17.5225 9.04469 17.0272 9.04469L12.3798 9.04447C11.8845 9.04447 11.4718 8.79944 11.1828 8.39107C10.9352 8.02353 10.8939 7.53348 11.059 7.12511C11.4718 6.14501 12.2972 5.36909 13.2465 5.00156C12.71 4.59318 12.3798 3.93978 12.3798 3.20469C12.3798 1.93873 13.4529 0.876953 14.7324 0.876953ZM13.2052 3.20469C13.2052 2.38794 13.9069 1.6937 14.7324 1.6937C15.5578 1.6937 16.2595 2.38794 16.2595 3.20469C16.2595 4.02145 15.5578 4.71569 14.7324 4.71569C13.9069 4.71569 13.2052 4.02145 13.2052 3.20469ZM11.9258 7.94186C12.0083 8.10521 12.2147 8.22772 12.421 8.22772L16.986 8.22794C17.1923 8.22794 17.3987 8.10543 17.4813 7.94208C17.6051 7.77873 17.6051 7.61538 17.5225 7.4112C17.0357 6.28716 15.9505 5.51829 14.6984 5.4925C13.4506 5.52224 12.37 6.28998 11.8845 7.41097C11.8019 7.61516 11.8019 7.77851 11.9258 7.94186Z" fill="#666666"/>
<path fill-rule="evenodd" clip-rule="evenodd" d="M3.84223 0.876953C5.16298 0.876953 6.23609 1.89789 6.23609 3.16385C6.23609 3.90909 5.86423 4.58356 5.29732 5.01234C6.23526 5.38404 7.04904 6.15452 7.45786 7.12533C7.62296 7.53371 7.58169 8.02376 7.33404 8.3913C7.04513 8.79967 6.63239 9.04469 6.13711 9.04469L1.48963 9.04447C0.99435 9.04447 0.581615 8.79944 0.292701 8.39107C0.0450601 8.02353 0.00378664 7.53348 0.168881 7.12511C0.581616 6.14501 1.40709 5.36909 2.35638 5.00156C1.81982 4.59318 1.48963 3.93978 1.48963 3.20469C1.48963 1.93873 2.56274 0.876953 3.84223 0.876953ZM2.3151 3.20469C2.3151 2.38794 3.01675 1.6937 3.84223 1.6937C4.6677 1.6937 5.36934 2.38794 5.36934 3.20469C5.36934 4.02145 4.6677 4.71569 3.84223 4.71569C3.01675 4.71569 2.3151 4.02145 2.3151 3.20469ZM1.03562 7.94186C1.11817 8.10521 1.32454 8.22772 1.53091 8.22772L6.09584 8.22794C6.30221 8.22794 6.50857 8.10543 6.59112 7.94208C6.71494 7.77873 6.71494 7.61538 6.6324 7.4112C6.14552 6.28716 5.0604 5.51829 3.80828 5.4925C2.56047 5.52224 1.4799 6.28998 0.99435 7.41097C0.911803 7.61516 0.911804 7.77851 1.03562 7.94186Z" fill="#666666"/>
<path fill-rule="evenodd" clip-rule="evenodd" d="M9.30322 0.876953C11.3444 0.876953 13.0028 2.49344 13.0028 4.49788C13.0028 5.67783 12.4281 6.74575 11.552 7.42465C13.0016 8.01317 14.2592 9.2331 14.891 10.7702C15.1462 11.4168 15.0824 12.1927 14.6997 12.7747C14.2532 13.4213 13.6153 13.8092 12.8499 13.8092L5.66739 13.8089C4.90196 13.8089 4.26409 13.4209 3.81759 12.7743C3.43487 12.1924 3.37109 11.4165 3.62623 10.7699C4.26409 9.21804 5.53982 7.98951 7.00691 7.40757C6.17768 6.76098 5.66739 5.72643 5.66739 4.56254C5.66739 2.5581 7.32584 0.876953 9.30322 0.876953ZM5.73118 12.5157C5.41225 12.5157 5.09332 12.3217 4.96574 12.063C4.77439 11.8044 4.77438 11.5458 4.90196 11.2225C5.65235 9.44758 7.32232 8.23198 9.25076 8.1849C11.1858 8.22573 12.8629 9.44312 13.6153 11.2228C13.7429 11.5461 13.7429 11.8048 13.5515 12.0634C13.4239 12.322 13.105 12.516 12.7861 12.516L5.73118 12.5157ZM9.30322 2.17014C8.02749 2.17014 6.94312 3.26935 6.94312 4.56254C6.94312 5.85575 8.02749 6.95496 9.30322 6.95496C10.5789 6.95496 11.6633 5.85575 11.6633 4.56254C11.6633 3.26935 10.5789 2.17014 9.30322 2.17014Z" fill="#666666"/>
</svg>
