<svg width="40" height="39" viewBox="0 0 40 39" fill="none" xmlns="http://www.w3.org/2000/svg">
<path d="M8.7152 34.8674C8.7152 33.7908 8.28752 32.7583 7.52625 31.9971C6.76498 31.2358 5.73248 30.8081 4.65588 30.8081C3.57928 30.8081 2.54678 31.2358 1.7855 31.9971C1.02423 32.7583 0.596558 33.7908 0.596558 34.8674C0.596558 35.944 1.02423 36.9765 1.7855 37.7378C2.54678 38.4991 3.57928 38.9267 4.65588 38.9267C5.73248 38.9267 6.76498 38.4991 7.52625 37.7378C8.28752 36.9765 8.7152 35.944 8.7152 34.8674Z" fill="black"/>
<g filter="url(#filter0_i_384_198050)">
<path d="M8.7152 34.8683C8.7152 33.7917 8.28752 32.7592 7.52625 31.9979C6.76498 31.2366 5.73248 30.809 4.65588 30.809C3.57928 30.809 2.54677 31.2366 1.7855 31.9979C1.02423 32.7592 0.596558 33.7917 0.596558 34.8683C0.596558 35.9449 1.02423 36.9774 1.7855 37.7386C2.54677 38.4999 3.57928 38.9276 4.65588 38.9276C5.73248 38.9276 6.76498 38.4999 7.52625 37.7386C8.28752 36.9774 8.7152 35.9449 8.7152 34.8683ZM8.7152 34.8683H10.7449H8.7152ZM29.0118 30.809C29.8147 30.809 30.5995 31.047 31.267 31.4931C31.9346 31.9391 32.4549 32.5731 32.7621 33.3148C33.0694 34.0566 33.1497 34.8728 32.9931 35.6602C32.8365 36.4476 32.4499 37.1709 31.8822 37.7386C31.3145 38.3064 30.5912 38.693 29.8037 38.8496C29.0163 39.0062 28.2001 38.9258 27.4584 38.6186C26.7166 38.3114 26.0826 37.7911 25.6366 37.1235C25.1906 36.456 24.9525 35.6711 24.9525 34.8683M29.0118 30.809C27.9352 30.809 26.9027 31.2366 26.1414 31.9979C25.3802 32.7592 24.9525 33.7917 24.9525 34.8683M29.0118 30.809V28.7793V30.809ZM24.9525 34.8683H22.9228H24.9525Z" fill="url(#paint0_linear_384_198050)"/>
</g>
<g filter="url(#filter1_i_384_198050)">
<path d="M4.65503 24.7234C5.77598 24.7234 6.68469 23.8147 6.68469 22.6937C6.68469 21.5728 5.77598 20.6641 4.65503 20.6641C3.53408 20.6641 2.62537 21.5728 2.62537 22.6937C2.62537 23.8147 3.53408 24.7234 4.65503 24.7234Z" fill="url(#paint1_linear_384_198050)"/>
</g>
<g filter="url(#filter2_i_384_198050)">
<path d="M16.8312 36.8997C17.9522 36.8997 18.8609 35.9909 18.8609 34.87C18.8609 33.749 17.9522 32.8403 16.8312 32.8403C15.7103 32.8403 14.8016 33.749 14.8016 34.87C14.8016 35.9909 15.7103 36.8997 16.8312 36.8997Z" fill="url(#paint2_linear_384_198050)"/>
</g>
<g filter="url(#filter3_i_384_198050)">
<path fill-rule="evenodd" clip-rule="evenodd" d="M30.3563 24.2112L27.6974 24.2396C27.6961 24.237 27.694 24.2349 27.6913 24.2335L27.6899 24.2328C27.6882 24.232 27.6866 24.2308 27.6852 24.2294L27.667 24.2112L27.5878 24.1442L27.3098 23.8987C25.9225 22.655 24.6187 21.3213 23.4067 19.9063C22.3411 18.654 21.2309 17.1805 20.3805 15.6258C19.5422 14.0974 18.8623 12.3235 18.8623 10.513C18.8623 7.37316 19.9543 4.77926 21.8865 2.98098C23.7964 1.203 26.3518 0.364746 29.0106 0.364746C31.6695 0.364746 34.2248 1.203 36.1347 2.98098C38.0669 4.77926 39.1589 7.37316 39.1589 10.513C39.1589 12.3235 38.479 14.0974 37.6407 15.6278C36.7883 17.1805 35.6821 18.654 34.6165 19.9063C33.3231 21.4152 31.9253 22.8313 30.4334 24.1442L30.3563 24.2112L30.3352 24.2304C30.3344 24.2311 30.3334 24.2318 30.3325 24.2323L30.3265 24.2352C30.3261 24.2354 30.3258 24.2359 30.3258 24.2363V24.2371C30.3258 24.2374 30.3256 24.2376 30.3253 24.2376C30.3248 24.2376 30.3246 24.237 30.325 24.2367L30.3563 24.2112ZM30.3563 24.2112L30.3218 24.2396C29.9553 24.5498 29.4907 24.72 29.0106 24.72C28.5305 24.72 28.0639 24.5498 27.6974 24.2396L30.3563 24.2112ZM29.0106 12.5427C29.5489 12.5427 30.0652 12.3289 30.4458 11.9482C30.8264 11.5676 31.0403 11.0513 31.0403 10.513C31.0403 9.97475 30.8264 9.45849 30.4458 9.07786C30.0652 8.69722 29.5489 8.48339 29.0106 8.48339C28.4723 8.48339 27.9561 8.69722 27.5754 9.07786C27.1948 9.45849 26.9809 9.97475 26.9809 10.513C26.9809 11.0513 27.1948 11.5676 27.5754 11.9482C27.9561 12.3289 28.4723 12.5427 29.0106 12.5427Z" fill="url(#paint3_linear_384_198050)"/>
</g>
<rect x="7.92499" y="33.4971" width="3.25892" height="2.71577" fill="url(#paint4_linear_384_198050)"/>
<rect x="3.04059" y="31.3242" width="3.25892" height="2.71577" transform="rotate(-90 3.04059 31.3242)" fill="#F4F8FB"/>
<rect x="22.5946" y="33.4971" width="3.25892" height="2.71577" fill="url(#paint5_linear_384_198050)"/>
<defs>
<filter id="filter0_i_384_198050" x="0.596558" y="27.9588" width="32.4745" height="10.9689" filterUnits="userSpaceOnUse" color-interpolation-filters="sRGB">
<feFlood flood-opacity="0" result="BackgroundImageFix"/>
<feBlend mode="normal" in="SourceGraphic" in2="BackgroundImageFix" result="shape"/>
<feColorMatrix in="SourceAlpha" type="matrix" values="0 0 0 0 0 0 0 0 0 0 0 0 0 0 0 0 0 0 127 0" result="hardAlpha"/>
<feOffset dy="-0.8205"/>
<feGaussianBlur stdDeviation="0.41025"/>
<feComposite in2="hardAlpha" operator="arithmetic" k2="-1" k3="1"/>
<feColorMatrix type="matrix" values="0 0 0 0 0.807843 0 0 0 0 0.827451 0 0 0 0 0.882353 0 0 0 1 0"/>
<feBlend mode="normal" in2="shape" result="effect1_innerShadow_384_198050"/>
</filter>
<filter id="filter1_i_384_198050" x="2.62537" y="19.8436" width="4.05933" height="4.87958" filterUnits="userSpaceOnUse" color-interpolation-filters="sRGB">
<feFlood flood-opacity="0" result="BackgroundImageFix"/>
<feBlend mode="normal" in="SourceGraphic" in2="BackgroundImageFix" result="shape"/>
<feColorMatrix in="SourceAlpha" type="matrix" values="0 0 0 0 0 0 0 0 0 0 0 0 0 0 0 0 0 0 127 0" result="hardAlpha"/>
<feOffset dy="-0.8205"/>
<feGaussianBlur stdDeviation="0.41025"/>
<feComposite in2="hardAlpha" operator="arithmetic" k2="-1" k3="1"/>
<feColorMatrix type="matrix" values="0 0 0 0 0.807843 0 0 0 0 0.827451 0 0 0 0 0.882353 0 0 0 1 0"/>
<feBlend mode="normal" in2="shape" result="effect1_innerShadow_384_198050"/>
</filter>
<filter id="filter2_i_384_198050" x="14.8016" y="32.0198" width="4.05933" height="4.87958" filterUnits="userSpaceOnUse" color-interpolation-filters="sRGB">
<feFlood flood-opacity="0" result="BackgroundImageFix"/>
<feBlend mode="normal" in="SourceGraphic" in2="BackgroundImageFix" result="shape"/>
<feColorMatrix in="SourceAlpha" type="matrix" values="0 0 0 0 0 0 0 0 0 0 0 0 0 0 0 0 0 0 127 0" result="hardAlpha"/>
<feOffset dy="-0.8205"/>
<feGaussianBlur stdDeviation="0.41025"/>
<feComposite in2="hardAlpha" operator="arithmetic" k2="-1" k3="1"/>
<feColorMatrix type="matrix" values="0 0 0 0 0.807843 0 0 0 0 0.827451 0 0 0 0 0.882353 0 0 0 1 0"/>
<feBlend mode="normal" in2="shape" result="effect1_innerShadow_384_198050"/>
</filter>
<filter id="filter3_i_384_198050" x="18.8623" y="-1.27625" width="20.2966" height="25.9965" filterUnits="userSpaceOnUse" color-interpolation-filters="sRGB">
<feFlood flood-opacity="0" result="BackgroundImageFix"/>
<feBlend mode="normal" in="SourceGraphic" in2="BackgroundImageFix" result="shape"/>
<feColorMatrix in="SourceAlpha" type="matrix" values="0 0 0 0 0 0 0 0 0 0 0 0 0 0 0 0 0 0 127 0" result="hardAlpha"/>
<feOffset dy="-1.641"/>
<feGaussianBlur stdDeviation="0.8205"/>
<feComposite in2="hardAlpha" operator="arithmetic" k2="-1" k3="1"/>
<feColorMatrix type="matrix" values="0 0 0 0 0.807843 0 0 0 0 0.827451 0 0 0 0 0.882353 0 0 0 1 0"/>
<feBlend mode="normal" in2="shape" result="effect1_innerShadow_384_198050"/>
</filter>
<linearGradient id="paint0_linear_384_198050" x1="16.8338" y1="28.7793" x2="16.8338" y2="38.9276" gradientUnits="userSpaceOnUse">
<stop stop-color="#FAFEFE"/>
<stop offset="1" stop-color="#E1E5F4"/>
</linearGradient>
<linearGradient id="paint1_linear_384_198050" x1="4.65503" y1="20.6641" x2="4.65503" y2="24.7234" gradientUnits="userSpaceOnUse">
<stop stop-color="#FAFEFE"/>
<stop offset="1" stop-color="#E1E5F4"/>
</linearGradient>
<linearGradient id="paint2_linear_384_198050" x1="16.8312" y1="32.8403" x2="16.8312" y2="36.8997" gradientUnits="userSpaceOnUse">
<stop stop-color="#FAFEFE"/>
<stop offset="1" stop-color="#E1E5F4"/>
</linearGradient>
<linearGradient id="paint3_linear_384_198050" x1="29.0106" y1="0.364746" x2="29.0106" y2="24.72" gradientUnits="userSpaceOnUse">
<stop stop-color="#FAFEFE"/>
<stop offset="1" stop-color="#E1E5F4"/>
</linearGradient>
<linearGradient id="paint4_linear_384_198050" x1="9.55445" y1="33.4971" x2="9.55445" y2="36.2128" gradientUnits="userSpaceOnUse">
<stop stop-color="#FAFEFE"/>
<stop offset="1" stop-color="#E1E5F4"/>
</linearGradient>
<linearGradient id="paint5_linear_384_198050" x1="24.2241" y1="33.4971" x2="24.2241" y2="36.2128" gradientUnits="userSpaceOnUse">
<stop stop-color="#FAFEFE"/>
<stop offset="1" stop-color="#E1E5F4"/>
</linearGradient>
</defs>
</svg>
