<svg width="15" height="15" viewBox="0 0 15 15" fill="none" xmlns="http://www.w3.org/2000/svg">
<g id="Vector">
<mask id="path-1-outside-1_4352_3025" maskUnits="userSpaceOnUse" x="0.0732422" y="-0.0810547" width="15" height="15" fill="black">
<rect fill="white" x="0.0732422" y="-0.0810547" width="15" height="15"/>
<path fill-rule="evenodd" clip-rule="evenodd" d="M8.38534 2.44046C8.06565 2.22682 7.69374 2.22682 7.37404 2.44046L7.36247 2.44804L3.1567 5.13668C2.69197 5.43315 2.43453 5.94478 2.43453 6.45749V12.2014C2.43453 12.7437 2.86284 13.1706 3.39963 13.1706H12.3598C12.8965 13.1706 13.3249 12.7437 13.3249 12.2014V6.45749C13.3249 5.92726 13.0444 5.45193 12.5895 5.12822L8.39692 2.44804L8.38534 2.44046ZM9.13548 1.30452C8.36111 0.790425 7.39827 0.790418 6.6239 1.30451L2.42402 3.98938C2.42392 3.98944 2.42413 3.98932 2.42402 3.98938C1.54798 4.5484 1.07324 5.50372 1.07324 6.45749V12.2014C1.07324 13.4922 2.10782 14.5318 3.39963 14.5318H12.3598C13.6516 14.5318 14.6861 13.4922 14.6861 12.2014V6.45749C14.6861 5.40324 14.1179 4.53768 13.3602 4.00605C13.3523 4.00043 13.3441 3.99498 13.3359 3.98972L9.13548 1.30452Z"/>
</mask>
<path fill-rule="evenodd" clip-rule="evenodd" d="M8.38534 2.44046C8.06565 2.22682 7.69374 2.22682 7.37404 2.44046L7.36247 2.44804L3.1567 5.13668C2.69197 5.43315 2.43453 5.94478 2.43453 6.45749V12.2014C2.43453 12.7437 2.86284 13.1706 3.39963 13.1706H12.3598C12.8965 13.1706 13.3249 12.7437 13.3249 12.2014V6.45749C13.3249 5.92726 13.0444 5.45193 12.5895 5.12822L8.39692 2.44804L8.38534 2.44046ZM9.13548 1.30452C8.36111 0.790425 7.39827 0.790418 6.6239 1.30451L2.42402 3.98938C2.42392 3.98944 2.42413 3.98932 2.42402 3.98938C1.54798 4.5484 1.07324 5.50372 1.07324 6.45749V12.2014C1.07324 13.4922 2.10782 14.5318 3.39963 14.5318H12.3598C13.6516 14.5318 14.6861 13.4922 14.6861 12.2014V6.45749C14.6861 5.40324 14.1179 4.53768 13.3602 4.00605C13.3523 4.00043 13.3441 3.99498 13.3359 3.98972L9.13548 1.30452Z" fill="url(#paint0_linear_4352_3025)"/>
<path fill-rule="evenodd" clip-rule="evenodd" d="M8.38534 2.44046C8.06565 2.22682 7.69374 2.22682 7.37404 2.44046L7.36247 2.44804L3.1567 5.13668C2.69197 5.43315 2.43453 5.94478 2.43453 6.45749V12.2014C2.43453 12.7437 2.86284 13.1706 3.39963 13.1706H12.3598C12.8965 13.1706 13.3249 12.7437 13.3249 12.2014V6.45749C13.3249 5.92726 13.0444 5.45193 12.5895 5.12822L8.39692 2.44804L8.38534 2.44046ZM9.13548 1.30452C8.36111 0.790425 7.39827 0.790418 6.6239 1.30451L2.42402 3.98938C2.42392 3.98944 2.42413 3.98932 2.42402 3.98938C1.54798 4.5484 1.07324 5.50372 1.07324 6.45749V12.2014C1.07324 13.4922 2.10782 14.5318 3.39963 14.5318H12.3598C13.6516 14.5318 14.6861 13.4922 14.6861 12.2014V6.45749C14.6861 5.40324 14.1179 4.53768 13.3602 4.00605C13.3523 4.00043 13.3441 3.99498 13.3359 3.98972L9.13548 1.30452Z" stroke="url(#paint1_linear_4352_3025)" stroke-width="0.408387" mask="url(#path-1-outside-1_4352_3025)"/>
</g>
<defs>
<linearGradient id="paint0_linear_4352_3025" x1="14.8015" y1="-0.237923" x2="-2.73087" y2="31.9048" gradientUnits="userSpaceOnUse">
<stop stop-color="#FE3C72"/>
<stop offset="1" stop-color="#FFB5E9"/>
</linearGradient>
<linearGradient id="paint1_linear_4352_3025" x1="14.8015" y1="-0.237923" x2="-2.73087" y2="31.9048" gradientUnits="userSpaceOnUse">
<stop stop-color="#FE3C72"/>
<stop offset="1" stop-color="#FFB5E9"/>
</linearGradient>
</defs>
</svg>
