<svg width="11" height="11" viewBox="0 0 11 11" fill="none" xmlns="http://www.w3.org/2000/svg">
<path d="M9.81214 10.6855L6.37526 7.24866C6.06595 7.49611 5.71024 7.69201 5.30813 7.83635C4.90602 7.9807 4.47814 8.05287 4.02448 8.05287C2.90065 8.05287 1.94961 7.66355 1.17138 6.88491C0.393152 6.10626 0.00383039 5.15523 0.00341797 4.03181C0.00341797 2.90797 0.39274 1.95694 1.17138 1.17871C1.95003 0.400476 2.90106 0.0111546 4.02448 0.0107422C5.14832 0.0107422 6.09935 0.400064 6.87758 1.17871C7.65581 1.95735 8.04514 2.90838 8.04555 4.03181C8.04555 4.48547 7.97337 4.91335 7.82903 5.31545C7.68468 5.71756 7.48879 6.07327 7.24134 6.38258L10.6782 9.81946L9.81214 10.6855ZM4.02448 6.81562C4.79776 6.81562 5.45516 6.54487 5.99666 6.00337C6.53816 5.46186 6.80871 4.80468 6.8083 4.03181C6.8083 3.25853 6.53755 2.60113 5.99604 2.05963C5.45454 1.51813 4.79735 1.24758 4.02448 1.24799C3.2512 1.24799 2.59381 1.51874 2.05231 2.06025C1.5108 2.60175 1.24026 3.25894 1.24067 4.03181C1.24067 4.80509 1.51142 5.46248 2.05292 6.00398C2.59443 6.54549 3.25161 6.81603 4.02448 6.81562Z" fill="white" fill-opacity="0.5"/>
</svg>
