<svg width="11" height="14" viewBox="0 0 11 14" fill="none" xmlns="http://www.w3.org/2000/svg">
<path d="M3.74728 1.78761H3.78831V1.74658V1.29126C3.78831 1.06245 3.9738 0.876963 4.20261 0.876963H6.631C6.8598 0.876963 7.0453 1.06245 7.0453 1.29126V1.74658V1.78761H7.08632H9.66649C9.89529 1.78761 10.0808 1.9731 10.0808 2.20191C10.0808 2.43072 9.89529 2.61621 9.66649 2.61621H1.16712C0.938307 2.61621 0.752817 2.43072 0.752817 2.20191C0.752817 1.9731 0.938307 1.78761 1.16712 1.78761H3.74728Z" fill="#FE3C72" stroke="#27242C" stroke-width="0.08205"/>
<path d="M2.62994 4.74169H2.59322L2.58916 4.77819L2.51265 5.46674C2.29948 7.38528 2.29948 9.32156 2.51265 11.2401L2.52461 11.3477C2.56816 11.7395 2.87183 12.052 3.26226 12.1067L3.26795 12.0661L3.26227 12.1067C4.6922 12.3068 6.14311 12.3068 7.57302 12.1067L7.56733 12.0661L7.57302 12.1067C7.9635 12.052 8.26716 11.7395 8.3107 11.3477L8.32266 11.2401C8.53584 9.32157 8.53584 7.38528 8.32266 5.46674L8.24616 4.77819L8.24211 4.74169H8.20539H2.62994ZM9.14617 11.3316L9.18694 11.3361L9.14617 11.3316L9.13421 11.4393C9.04886 12.2075 8.45341 12.8201 7.68792 12.9273C6.18178 13.1381 4.65353 13.1381 3.14738 12.9273C2.38186 12.8201 1.78645 12.2075 1.70109 11.4393L1.68913 11.3316C1.4692 9.35222 1.4692 7.35457 1.68913 5.37523L1.81063 4.28165C1.83395 4.07183 2.0113 3.9131 2.2224 3.9131H8.61293C8.824 3.9131 9.00138 4.07183 9.02469 4.28164L9.14617 5.37523C9.36609 7.35457 9.36609 9.35222 9.14617 11.3316Z" fill="#FE3C72" stroke="#27242C" stroke-width="0.08205"/>
</svg>
