<svg width="36" height="46" viewBox="0 0 36 46" fill="none" xmlns="http://www.w3.org/2000/svg">
<path d="M11.4008 3.62097H11.6059V3.41585V1.74393C11.6059 0.937872 12.2743 0.277146 13.108 0.277146H22.2129C23.0464 0.277146 23.7149 0.937874 23.7149 1.74393V3.41585V3.62097H23.92H33.594C34.4276 3.62097 35.096 4.2817 35.096 5.08776C35.096 5.89382 34.4276 6.55455 33.594 6.55455H1.72682C0.893218 6.55455 0.224778 5.89382 0.224778 5.08776C0.224778 4.2817 0.893218 3.62097 1.72682 3.62097H11.4008Z" fill="#F7F5DD" stroke="#28252D" stroke-width="0.41025"/>
<path d="M7.20765 14.3567H7.02448L7.00383 14.5387L6.71698 17.067C5.91724 24.1161 5.91724 31.2303 6.71698 38.2793L6.76182 38.6746L6.92626 38.6559L6.76182 38.6746C6.92819 40.1407 8.08745 41.3053 9.57192 41.509L9.57194 41.509C14.9376 42.2445 20.382 42.2445 25.7475 41.509L25.7476 41.509C27.2322 41.3053 28.3914 40.1408 28.5578 38.6746L28.6026 38.2793C29.4024 31.2303 29.4024 24.1161 28.6026 17.067L28.3158 14.5387L28.2952 14.3567H28.112H7.20765ZM3.73117 38.6022L3.52741 38.6253L3.73117 38.6022C2.90705 31.3385 2.90705 24.0077 3.73117 16.744L3.52735 16.7209L3.73117 16.744L4.18674 12.7284C4.18674 12.7284 4.18674 12.7284 4.18674 12.7284C4.27067 11.9887 4.91073 11.4231 5.67966 11.4231H29.64C30.4088 11.4231 31.049 11.9887 31.1329 12.7284L31.5884 16.744C32.4125 24.0077 32.4125 31.3385 31.5884 38.6022L31.5435 38.9977C31.2266 41.7911 29.0148 44.0234 26.1653 44.414C20.5226 45.1877 14.797 45.1877 9.15428 44.414C6.30467 44.0234 4.09296 41.7911 3.77601 38.9977L3.73117 38.6022Z" fill="#F7F5DD" stroke="#28252D" stroke-width="0.41025"/>
</svg>
