<svg width="11" height="13" viewBox="0 0 11 13" fill="none" xmlns="http://www.w3.org/2000/svg">
<path d="M4.40459 0.59668C4.14761 0.59668 3.88275 0.691037 3.69666 0.885393C3.51106 1.07872 3.41999 1.35462 3.41999 1.6223V2.13512H0.979C0.695781 2.13512 0.466187 2.36471 0.466187 2.64793V2.66844C0.466187 2.94033 0.686597 3.16074 0.958486 3.16074V11.3657C0.958486 12.2093 1.62555 12.9042 2.43539 12.9042H8.34299C9.15282 12.9042 9.81989 12.2093 9.81989 11.3657V3.16074C10.0918 3.16074 10.3122 2.94033 10.3122 2.66844V2.64793C10.3122 2.36471 10.0826 2.13512 9.79937 2.13512H7.35839V1.6223C7.35839 1.35462 7.2678 1.07872 7.08122 0.88488C6.89562 0.692063 6.63126 0.59668 6.37379 0.59668H4.40459ZM4.40459 1.6223H6.37379V2.13512H4.40459V1.6223ZM1.94309 3.16074H8.83529V11.3657C8.83529 11.6504 8.61621 11.8786 8.34299 11.8786H2.43539C2.16216 11.8786 1.94309 11.6504 1.94309 11.3657V3.16074Z" fill="white"/>
<rect x="6.69861" y="5.33057" width="0.946731" height="4.53265" rx="0.473365" transform="rotate(45 6.69861 5.33057)" fill="white"/>
<rect x="3.495" y="6.00049" width="0.946731" height="4.53265" rx="0.473365" transform="rotate(-45 3.495 6.00049)" fill="white"/>
</svg>
