<svg width="11" height="15" viewBox="0 0 11 15" fill="none" xmlns="http://www.w3.org/2000/svg">
<path d="M4.29537 0.933105C4.0318 0.933105 3.76015 1.03375 3.56929 1.24107C3.37893 1.44729 3.28552 1.74157 3.28552 2.02711V2.57411H0.802981C0.500881 2.57411 0.255981 2.81901 0.255981 3.12111V3.16318C0.255981 3.44204 0.482043 3.66811 0.760905 3.66811V12.4201C0.760905 13.3199 1.44508 14.0611 2.27567 14.0611H8.33475C9.16535 14.0611 9.84952 13.3199 9.84952 12.4201V3.66811C10.1284 3.66811 10.3544 3.44204 10.3544 3.16318V3.12111C10.3544 2.81901 10.1095 2.57411 9.80744 2.57411H7.3249V2.02711C7.3249 1.74157 7.232 1.44729 7.04063 1.24052C6.85028 1.03485 6.57913 0.933105 6.31506 0.933105H4.29537ZM4.29537 2.02711H6.31506V2.57411H4.29537V2.02711ZM1.77075 3.66811H8.83967V12.4201C8.83967 12.7237 8.61498 12.9671 8.33475 12.9671H2.27567C1.99544 12.9671 1.77075 12.7237 1.77075 12.4201V3.66811Z" fill="#FE3C72"/>
<rect x="6.70276" y="5.979" width="1.00985" height="4.83483" rx="0.504923" transform="rotate(45 6.70276 5.979)" fill="#FE3C72"/>
<rect x="3.28455" y="6.69385" width="1.00985" height="4.83483" rx="0.504923" transform="rotate(-45 3.28455 6.69385)" fill="#FE3C72"/>
</svg>
