<svg width="25" height="23" viewBox="0 0 25 23" fill="none" xmlns="http://www.w3.org/2000/svg">
<path d="M24.2683 13.0114H21.1953V9.93848H19.6589V13.0114H16.5859V14.5479H19.6589V17.6208H21.1953V14.5479H24.2683V13.0114Z" fill="white"/>
<path d="M9.06423 22.633C8.93812 22.633 8.81175 22.6018 8.69808 22.5391C8.46326 22.4096 8.31799 22.1666 8.31799 21.9031V11.8554L0.606057 1.90916C0.434919 1.68827 0.406562 1.39172 0.532428 1.14358C0.658543 0.895193 0.91749 0.738281 1.20081 0.738281H20.3865C20.6701 0.738281 20.9288 0.895193 21.0549 1.14358C21.181 1.39172 21.1526 1.68827 20.9812 1.90916L13.2693 11.8554V19.8526C13.2693 20.1078 13.133 20.3442 12.9099 20.4766L9.45128 22.5271C9.33238 22.5974 9.19831 22.633 9.06423 22.633ZM2.70325 2.19793L9.65899 11.1691C9.75749 11.2959 9.81048 11.4509 9.81048 11.6102V20.6075L11.7768 19.4417V11.61C11.7768 11.4509 11.8301 11.2959 11.9283 11.1689L18.8841 2.19793H2.70325Z" fill="white"/>
</svg>
