<svg width="35" height="32" viewBox="0 0 35 32" fill="none" xmlns="http://www.w3.org/2000/svg">
<rect width="34.461" height="31.179" rx="15.5895" fill="black" fill-opacity="0.5"/>
<g clip-path="url(#clip0_384_201593)">
<path d="M17.23 9.43555C16.4779 9.43555 15.8625 10.0509 15.8625 10.803C15.8625 11.5552 16.4779 12.1705 17.23 12.1705C17.9822 12.1705 18.5975 11.5552 18.5975 10.803C18.5975 10.0509 17.9822 9.43555 17.23 9.43555ZM17.23 19.008C16.4779 19.008 15.8625 19.6234 15.8625 20.3755C15.8625 21.1277 16.4779 21.743 17.23 21.743C17.9822 21.743 18.5975 21.1277 18.5975 20.3755C18.5975 19.6234 17.9822 19.008 17.23 19.008ZM17.23 14.2218C16.4779 14.2218 15.8625 14.8372 15.8625 15.5893C15.8625 16.3414 16.4779 16.9568 17.23 16.9568C17.9822 16.9568 18.5975 16.3414 18.5975 15.5893C18.5975 14.8372 17.9822 14.2218 17.23 14.2218Z" fill="white"/>
</g>
<defs>
<clipPath id="clip0_384_201593">
<rect width="16.41" height="16.41" fill="white" transform="translate(9.02551 7.38477)"/>
</clipPath>
</defs>
</svg>
