<svg width="13" height="14" viewBox="0 0 13 14" fill="none" xmlns="http://www.w3.org/2000/svg">
<path d="M10.8182 1.56326L10.818 1.56338L10.8219 1.56724C11.629 2.37437 11.629 3.72104 10.8219 4.52817L5.05975 10.2905C4.57173 10.7785 3.92132 11.0497 3.2157 11.0497H1.81712C1.69837 11.0497 1.57729 11.0018 1.48625 10.9229C1.39544 10.8442 1.33974 10.7396 1.33974 10.6282V9.22959C1.33974 8.52217 1.61211 7.81637 2.09891 7.32955L2.09919 7.32927L7.85926 1.51311C8.29297 1.13448 8.83269 0.919941 9.36945 0.919941C9.90741 0.919941 10.4435 1.13509 10.8182 1.56326ZM7.46727 3.40717L7.40933 3.35336L7.35342 3.40927L2.76608 7.99674C2.47049 8.29233 2.2945 8.70503 2.2945 9.17365V10.0128V10.0949H2.37655H3.2157C3.62684 10.0949 4.09598 9.9199 4.39258 9.62328L10.1547 3.86098C10.3684 3.64729 10.4725 3.34539 10.4725 3.04771C10.4725 2.75193 10.3697 2.45199 10.1588 2.23855C9.972 1.99304 9.6673 1.87473 9.36945 1.87473C9.06855 1.87473 8.77197 1.99464 8.53702 2.17087L8.53652 2.1702L8.52823 2.17849L8.13663 2.5701L8.07861 2.62812L8.13663 2.68614L8.91983 3.46936C9.11156 3.6611 9.11156 3.94482 8.91983 4.13655C8.86873 4.18766 8.82089 4.22272 8.7697 4.24547C8.71887 4.26806 8.66059 4.28036 8.58625 4.28036C8.49466 4.28036 8.34816 4.23205 8.25266 4.13655L8.2527 4.13652L8.25048 4.13445L7.46727 3.40717Z" fill="#FE3C72" stroke="#27242C" stroke-width="0.1641"/>
<path d="M0.81053 12.1084H11.9992C12.1483 12.1084 12.2663 12.1578 12.3467 12.2382C12.4272 12.3187 12.4765 12.4366 12.4765 12.5858C12.4765 12.735 12.4272 12.853 12.3467 12.9334C12.2663 13.0138 12.1483 13.0632 11.9992 13.0632H0.81053C0.661347 13.0632 0.543403 13.0138 0.462961 12.9334C0.382519 12.853 0.333149 12.735 0.333149 12.5858C0.333149 12.4366 0.382519 12.3187 0.462961 12.2382C0.543403 12.1578 0.661347 12.1084 0.81053 12.1084Z" fill="#FE3C72" stroke="#27242C" stroke-width="0.1641"/>
</svg>
