<svg width="11" height="11" viewBox="0 0 11 11" fill="none" xmlns="http://www.w3.org/2000/svg">
<path d="M1.99372 8.85664H3.11258C3.69439 8.85664 4.23145 8.63286 4.63424 8.23006L9.24396 3.62022C9.91527 2.94888 9.91527 1.82999 9.24396 1.15865C8.93067 0.800605 8.48313 0.621582 8.03558 0.621582C7.58804 0.621582 7.14049 0.800605 6.78245 1.1139L2.17274 5.76849C1.76995 6.1713 1.54617 6.75312 1.54617 7.33495V8.45384C1.54617 8.67762 1.76995 8.85664 1.99372 8.85664ZM2.44126 7.29019C2.44126 6.93214 2.57553 6.61885 2.7993 6.39507L6.46917 2.7251L7.09574 3.30693C7.18525 3.39644 7.31951 3.44119 7.40902 3.44119C7.54328 3.44119 7.63279 3.39644 7.7223 3.30693C7.90132 3.1279 7.90132 2.85937 7.7223 2.68035L7.09574 2.05377L7.40902 1.74048C7.58804 1.60621 7.81181 1.5167 8.03558 1.5167C8.25935 1.5167 8.48313 1.60621 8.61739 1.78523C8.93067 2.09852 8.93067 2.68035 8.61739 2.99364L4.00767 7.60348C3.7839 7.82726 3.42586 7.96153 3.11258 7.96153H2.44126V7.29019Z" fill="white"/>
<path d="M10.1394 9.57251H1.18845C0.919924 9.57251 0.740906 9.75153 0.740906 10.0201C0.740906 10.2886 0.919924 10.4676 1.18845 10.4676H10.1394C10.4079 10.4676 10.5869 10.2886 10.5869 10.0201C10.5869 9.75153 10.4079 9.57251 10.1394 9.57251Z" fill="white"/>
</svg>
