<svg width="30" height="30" viewBox="0 0 12 14" fill="none" xmlns="http://www.w3.org/2000/svg">
  <circle cx="3.30686" cy="3.30686" r="3.30686" transform="matrix(-1 0 0 1 9.27014 2.50293)" fill="white"/>
  <path fill-rule="evenodd" clip-rule="evenodd" d="M5.37781 0.0831996C3.41947 0.286622 1.67743 1.52414 0.799751 3.33541C0.506063 3.94148 0.313459 4.61391 0.24045 5.2881C0.199177 5.66924 0.220386 6.5431 0.278976 6.87533C0.30288 7.01083 0.355367 7.25287 0.395647 7.41322C0.898724 9.41608 2.47298 11.0447 4.42361 11.5802L4.72935 11.6642L5.33204 12.479C5.66349 12.9272 5.94731 13.2939 5.9627 13.2939C5.97808 13.2939 6.2619 12.9269 6.59335 12.4784L7.19604 11.6629L7.46394 11.5927C9.4131 11.0818 11.0243 9.42558 11.5297 7.41322C11.6582 6.90196 11.6893 6.66239 11.703 6.08254C11.7177 5.45737 11.6796 5.05599 11.5573 4.547C11.3074 3.5074 10.8341 2.63236 10.1011 1.85479C9.21673 0.916623 8.08674 0.318079 6.82731 0.120751C6.50122 0.0696364 5.70644 0.0490712 5.37781 0.0831996ZM6.38964 1.61224C8.04168 1.79504 9.43762 2.92888 9.96396 4.51538C10.1357 5.03317 10.1695 5.26118 10.1695 5.90282C10.1695 6.39535 10.1618 6.50941 10.1132 6.73695C9.82293 8.09441 8.99028 9.19261 7.80818 9.77718C6.29804 10.5239 4.53538 10.2992 3.24172 9.19487C2.51455 8.57415 2.0231 7.73124 1.81371 6.74566C1.76338 6.50873 1.75586 6.39924 1.75586 5.90282C1.75586 5.26598 1.78884 5.04028 1.95731 4.52475C2.57403 2.63728 4.45909 1.3986 6.38964 1.61224Z" fill="#FE3C72"/>
</svg>
