<svg width="17" height="11" viewBox="0 0 17 11" fill="none" xmlns="http://www.w3.org/2000/svg">
<path d="M16.1684 5.81613L16.1684 5.81608C16.1954 5.75852 16.2094 5.69633 16.2094 5.63351C16.2094 5.57069 16.1954 5.50851 16.1684 5.45095L16.1684 5.4509C16.1469 5.4049 15.5994 4.2542 14.3813 3.10026C12.7593 1.56419 10.7109 0.752154 8.45564 0.752154C6.20035 0.752154 4.15201 1.56419 2.52995 3.10026C1.31191 4.2542 0.764374 5.4049 0.742864 5.4509L0.742841 5.45095C0.715829 5.50851 0.701914 5.57069 0.701914 5.63351C0.701914 5.69633 0.715829 5.75852 0.742841 5.81608L0.74286 5.81607L0.743383 5.81729C0.761812 5.86009 1.31169 7.01324 2.52996 8.16738C4.15201 9.70407 6.20035 10.5161 8.45564 10.5161C10.7109 10.5161 12.7593 9.70407 14.3813 8.16738C15.5994 7.01345 16.1469 5.86213 16.1684 5.81613ZM3.23555 3.71199L3.2356 3.71194C4.6892 2.34722 6.44594 1.6547 8.45564 1.6547C12.6638 1.6547 14.7148 4.78213 15.1851 5.61394L15.1966 5.63433L15.1849 5.65462C14.7814 6.35432 14.273 6.99486 13.6757 7.5563L13.6757 7.55632C12.2221 8.92103 10.4653 9.61355 8.45564 9.61355C6.44594 9.61355 4.6892 8.92103 3.2356 7.55632L3.23555 7.55627C2.6393 6.99469 2.13202 6.35415 1.72958 5.65459L1.71781 5.63413L1.72958 5.61367C2.13213 4.91417 2.63939 4.27365 3.23555 3.71199ZM6.74537 8.05546C7.25142 8.37579 7.84659 8.5469 8.4556 8.5469C9.27208 8.5461 10.0545 8.23845 10.6312 7.6921C11.2078 7.14582 11.5317 6.40563 11.5325 5.63408C11.5325 5.05852 11.3524 4.49568 11.0146 4.01673C10.6767 3.53774 10.1963 3.16409 9.63382 2.94336C9.07132 2.72263 8.45224 2.66485 7.85496 2.7774C7.25769 2.88995 6.70934 3.16772 6.27916 3.57526C5.84901 3.98278 5.55634 4.50171 5.4378 5.0663C5.31926 5.63087 5.38007 6.2161 5.61266 6.74806C5.84526 7.28006 6.23933 7.73513 6.74537 8.05546ZM7.27889 3.96214C7.62739 3.74153 8.03689 3.6239 8.45564 3.6239C9.0171 3.6239 9.55599 3.83519 9.95365 4.21191C10.3514 4.58871 10.5753 5.10025 10.5753 5.63413C10.5753 6.03222 10.4506 6.42118 10.2175 6.7518C9.98429 7.0824 9.65312 7.33974 9.26607 7.49162C8.87903 7.6435 8.45327 7.68321 8.04253 7.60581C7.63178 7.5284 7.25419 7.3373 6.95763 7.05635C6.66104 6.77537 6.45879 6.41711 6.37683 6.02673C6.29486 5.63634 6.33695 5.23171 6.49767 4.86411C6.65838 4.49655 6.93037 4.18275 7.27889 3.96214Z" fill="#FE3C72" stroke="#27242C" stroke-width="0.08205"/>
</svg>
