<svg width="15" height="9" viewBox="0 0 15 9" fill="none" xmlns="http://www.w3.org/2000/svg">
<path d="M6.40926 5.09915L6.02349 7.54427C6.00277 7.67628 5.93847 7.79625 5.84201 7.88286C5.74555 7.96947 5.62318 8.01711 5.49665 8.01731M6.40926 5.09915L5.49665 8.01731M6.40926 5.09915C7.22278 5.21888 8.04806 5.21888 8.86159 5.09915L6.40926 5.09915ZM5.49665 8.01731L5.49659 7.97629C5.49665 7.97629 5.49672 7.97629 5.49679 7.97629C5.49686 7.97629 5.49693 7.97629 5.497 7.97629L5.49665 8.01731ZM1.05331 0.652847L1.06471 0.692257C1.1298 0.673432 1.19781 0.668983 1.26455 0.679162C1.33129 0.689341 1.39546 0.713953 1.45306 0.751584C1.51066 0.789219 1.56049 0.839098 1.59934 0.898231L1.60096 0.900701L1.60105 0.900636C2.71478 2.35598 4.66699 4.09863 7.63609 4.09863C10.6052 4.09863 12.5574 2.35811 13.6711 0.900612L13.6726 0.898766L13.6725 0.89873C13.7118 0.840794 13.7617 0.792097 13.8191 0.755497C13.8766 0.718903 13.9403 0.695143 14.0065 0.685558C14.0726 0.675973 14.1399 0.680742 14.2044 0.699601C14.2688 0.718462 14.329 0.751051 14.3814 0.795509C14.4338 0.839973 14.4772 0.895387 14.5089 0.958452C14.5405 1.02152 14.5598 1.09086 14.5653 1.16222C14.5709 1.23358 14.5626 1.30536 14.5411 1.37315C14.5195 1.44095 14.4852 1.50324 14.4403 1.55628L14.4389 1.55794L14.4389 1.55797C14.0516 2.06772 13.6214 2.53922 13.1536 2.96669L13.1299 2.98829L13.1452 3.01647L14.4823 5.49129L14.4823 5.49135C14.515 5.55149 14.5361 5.61793 14.5445 5.68689C14.553 5.75585 14.5484 5.82587 14.5313 5.89295C14.5141 5.96002 14.4846 6.02273 14.4447 6.07754C14.4047 6.13234 14.355 6.17813 14.2985 6.21239C14.2421 6.24666 14.1799 6.26876 14.1156 6.27754C14.0513 6.28631 13.9859 6.28161 13.9233 6.26367C13.8606 6.24573 13.8018 6.21487 13.7501 6.17274C13.6985 6.13061 13.6551 6.07802 13.6225 6.01789L12.3562 3.66834L12.3341 3.6273L12.2962 3.65445C11.5619 4.18053 10.7519 4.57704 9.89765 4.82858L9.86309 4.83876L9.86872 4.87435L10.2632 7.3647C10.2632 7.36471 10.2632 7.36472 10.2632 7.36472C10.274 7.433 10.2719 7.50285 10.2572 7.57027C10.2424 7.6377 10.2153 7.70127 10.1774 7.75738C10.1395 7.81348 10.0916 7.86098 10.0365 7.89727C9.98156 7.93353 9.92047 7.95791 9.85679 7.96911L0.801921 1.58279C0.752066 1.52584 0.713824 1.45865 0.689576 1.3854C0.665328 1.31215 0.655592 1.23441 0.660973 1.15701C0.666353 1.07961 0.686736 1.0042 0.720854 0.935491C0.754972 0.866779 0.802094 0.806226 0.859288 0.757601C0.916483 0.708976 0.982528 0.673319 1.05331 0.652847ZM1.05331 0.652847L1.06471 0.692257C0.999611 0.711084 0.938717 0.743921 0.885861 0.788857C0.832998 0.8338 0.789298 0.889893 0.757599 0.953736C0.725897 1.01758 0.706911 1.08775 0.701899 1.15985C0.696886 1.23196 0.705961 1.30436 0.728522 1.37251C0.751083 1.44066 0.786614 1.50303 0.832789 1.55577L0.832863 1.55571L0.834586 1.55797C1.22189 2.06772 1.65211 2.53923 2.11994 2.96669L2.14359 2.98829L2.12836 3.01647L0.791217 5.49129L0.79097 5.49174C0.757636 5.55165 0.735821 5.61806 0.72687 5.68714C0.717918 5.75621 0.72202 5.82648 0.738924 5.89382C0.755828 5.96117 0.785173 6.02417 0.825161 6.07921C0.86513 6.13423 0.914912 6.18016 0.971532 6.21446C1.02787 6.24843 1.08987 6.27026 1.15398 6.27878C1.21809 6.28731 1.28318 6.28238 1.34554 6.26426C1.40791 6.24614 1.46642 6.21515 1.5177 6.17295C1.56899 6.13074 1.61204 6.07813 1.64428 6.01806L1.64435 6.01794L2.91464 3.6704L2.93676 3.62951L2.97458 3.65655C3.70941 4.18203 4.51992 4.57782 5.37449 4.82857L5.40907 4.83872L5.40346 4.87432L5.01101 7.36469L5.01101 7.3647C5.00022 7.43298 5.00227 7.50285 5.01702 7.57027C5.03178 7.6377 5.05893 7.70127 5.09683 7.75738C5.13473 7.81348 5.18261 7.86098 5.23764 7.89727C5.29263 7.93353 5.35372 7.95791 5.4174 7.96911L1.05331 0.652847Z" fill="#FE3C72" stroke="#27242C" stroke-width="0.08205"/>
</svg>
