<svg width="19" height="17" viewBox="0 0 19 17" fill="none" xmlns="http://www.w3.org/2000/svg">
<path d="M13.585 0C11.97 0 10.545 0.68786 9.5 1.96532C8.455 0.68786 7.03 0 5.415 0C2.47 0 0 2.55491 0 5.60116C0 5.79769 0 5.99422 0 6.1908C0.38 10.8092 5.13 14.6416 7.885 16.5087C8.36 16.8035 8.93 17 9.5 17C10.07 17 10.64 16.8035 11.115 16.5087C13.87 14.6416 18.62 10.8092 19 6.289C19 6.0925 19 5.89595 19 5.69942C19 2.55491 16.53 0 13.585 0ZM17.1 5.99422C16.815 9.9249 12.065 13.4624 10.07 14.7399C9.69 14.9364 9.31 14.9364 8.93 14.7399C6.935 13.3642 2.28 9.8266 1.9 5.89595C1.9 5.89595 1.9 5.69942 1.9 5.60116C1.9 3.63584 3.515 1.96532 5.415 1.96532C6.84 1.96532 8.075 2.84971 8.645 4.12717C8.74 4.52023 9.12 4.71676 9.5 4.71676C9.88 4.71676 10.26 4.52023 10.355 4.12717C10.925 2.84971 12.16 1.96532 13.585 1.96532C15.485 1.96532 17.1 3.63584 17.1 5.60116C17.1 5.69942 17.1 5.89595 17.1 5.99422Z" fill="#FE3C72"/>
</svg>
