<svg width="21" height="19" viewBox="0 0 21 19" fill="none" xmlns="http://www.w3.org/2000/svg">
<path d="M14.585 0.958975C12.9736 0.958975 11.5496 1.63882 10.5 2.90085C9.45039 1.63882 8.02637 0.958975 6.415 0.958975C3.44605 0.958975 0.958975 3.53357 0.958975 6.60116V6.60231V6.60346V6.60461V6.60577V6.60692V6.60807V6.60922V6.61037V6.61152V6.61268V6.61383V6.61498V6.61613V6.61728V6.61843V6.61958V6.62074V6.62189V6.62304V6.62419V6.62534V6.62649V6.62765V6.6288V6.62995V6.6311V6.63225V6.6334V6.63455V6.63571V6.63686V6.63801V6.63916V6.64031V6.64146V6.64262V6.64377V6.64492V6.64607V6.64722V6.64837V6.64952V6.65068V6.65183V6.65298V6.65413V6.65528V6.65643V6.65759V6.65874V6.65989V6.66104V6.66219V6.66334V6.66449V6.66565V6.6668V6.66795V6.6691V6.67025V6.6714V6.67256V6.67371V6.67486V6.67601V6.67716V6.67831V6.67947V6.68062V6.68177V6.68292V6.68407V6.68522V6.68637V6.68753V6.68868V6.68983V6.69098V6.69213V6.69328V6.69444V6.69559V6.69674V6.69789V6.69904V6.70019V6.70134V6.7025V6.70365V6.7048V6.70595V6.7071V6.70825V6.70941V6.71056V6.71171V6.71286V6.71401V6.71516V6.71631V6.71747V6.71862V6.71977V6.72092V6.72207V6.72322V6.72438V6.72553V6.72668V6.72783V6.72898V6.73013V6.73129V6.73244V6.73359V6.73474V6.73589V6.73704V6.73819V6.73935V6.7405V6.74165V6.7428V6.74395V6.7451V6.74625V6.74741V6.74856V6.74971V6.75086V6.75201V6.75316V6.75432V6.75547V6.75662V6.75777V6.75892V6.76007V6.76123V6.76238V6.76353V6.76468V6.76583V6.76698V6.76814V6.76929V6.77044V6.77159V6.77274V6.77389V6.77504V6.7762V6.77735V6.7785V6.77965V6.7808V6.78195V6.78311V6.78426V6.78541V6.78656V6.78771V6.78886V6.79001V6.79117V6.79232V6.79347V6.79462V6.79577V6.79692V6.79808V6.79923V6.80038V6.80153V6.80268V6.80383V6.80499V6.80614V6.80729V6.80844V6.80959V6.81074V6.81189V6.81305V6.8142V6.81535V6.8165V6.81765V6.8188V6.81996V6.82111V6.82226V6.82341V6.82456V6.82571V6.82687V6.82802V6.82917V6.83032V6.83147V6.83262V6.83377V6.83493V6.83608V6.83723V6.83838V6.83953V6.84068V6.84184V6.84299V6.84414V6.84529V6.84644V6.84759V6.84875V6.8499V6.85105V6.8522V6.85335V6.8545V6.85565V6.85681V6.85796V6.85911V6.86026V6.86141V6.86256V6.86372V6.86487V6.86602V6.86717V6.86832V6.86947V6.87063V6.87178V6.87293V6.87408V6.87523V6.87638V6.87754V6.87869V6.87984V6.88099V6.88214V6.88329V6.88445V6.8856V6.88675V6.8879V6.88905V6.8902V6.89135V6.89251V6.89366V6.89481V6.89596V6.89711V6.89826V6.89942V6.90057V6.90172V6.90287V6.90402V6.90517V6.90633V6.90748V6.90863V6.90978V6.91093V6.91208V6.91324V6.91439V6.91554V6.91669V6.91784V6.91899V6.92015V6.9213V6.92245V6.9236V6.92475V6.9259V6.92705V6.92821V6.92936V6.93051V6.93166V6.93281V6.93396V6.93512V6.93627V6.93742V6.93857V6.93972V6.94087V6.94203V6.94318V6.94433V6.94548V6.94663V6.94778V6.94894V6.95009V6.95124V6.95239V6.95354V6.95469V6.95585V6.957V6.95815V6.9593V6.96045V6.9616V6.96276V6.96391V6.96506V6.96621V6.96736V6.96851V6.96967V6.97082V6.97197V6.97312V6.97427V6.97542V6.97658V6.97773V6.97888V6.98003V6.98118V6.98233V6.98349V6.98464V6.98579V6.98694V6.98809V6.98924V6.9904V6.99155V6.9927V6.99385V6.995V6.99615V6.99731V6.99846V6.99961V7.00076V7.00191V7.00306V7.00422V7.00537V7.00652V7.00767V7.00882V7.00997V7.01113V7.01228V7.01343V7.01458V7.01573V7.01688V7.01804V7.01919V7.02034V7.02149V7.02264V7.02379V7.02495V7.0261V7.02725V7.0284V7.02955V7.0307V7.03186V7.03301V7.03416V7.03531V7.03646V7.03761V7.03877V7.03992V7.04107V7.04222V7.04337V7.04453V7.04568V7.04683V7.04798V7.04913V7.05028V7.05144V7.05259V7.05374V7.05489V7.05604V7.05719V7.05835V7.0595V7.06065V7.0618V7.06295V7.0641V7.06526V7.06641V7.06756V7.06871V7.06986V7.07101V7.07217V7.07332V7.07447V7.07562V7.07677V7.07793V7.07908V7.08023V7.08138V7.08253V7.08368V7.08484V7.08599V7.08714V7.08829V7.08944V7.09059V7.09175V7.0929V7.09405V7.0952V7.09635V7.0975V7.09866V7.09981V7.10096V7.10211V7.10326V7.10441V7.10557V7.10672V7.10787V7.10902V7.11017V7.11133V7.11248V7.11363V7.11478V7.11593V7.11708V7.11824V7.11939V7.12054V7.12169V7.12284V7.124V7.12515V7.1263V7.12745V7.1286V7.12975V7.13091V7.13206V7.13321V7.13436V7.13551V7.13666V7.13782V7.13897V7.14012V7.14127V7.14242V7.14358V7.14473V7.14588V7.14703V7.14818V7.14933V7.15049V7.15164V7.15279V7.15394V7.15509V7.15625V7.1574V7.15855V7.1597V7.16085V7.162V7.16316V7.16431V7.16546V7.16661V7.16776V7.16892V7.17007V7.17122V7.17237V7.17352V7.17467V7.17583V7.17698V7.17813V7.17928V7.18043V7.18158V7.18274V7.18389V7.18504V7.18619V7.18734V7.1885V7.18965V7.1908H0.958836L0.959113 7.19416C1.15016 9.51611 2.43919 11.637 4.02127 13.4088C5.60379 15.1811 7.48308 16.6082 8.86198 17.5427L8.86337 17.5436C9.34348 17.8415 9.92088 18.041 10.5 18.041C11.0791 18.041 11.6565 17.8415 12.1366 17.5436L12.1367 17.5436L12.138 17.5427C13.5169 16.6082 15.3962 15.1812 16.9786 13.4212C18.5606 11.6618 19.8498 9.56543 20.0409 7.29244L20.041 7.29245V7.289V7.28785V7.2867V7.28555V7.28439V7.28324V7.28209V7.28094V7.27979V7.27864V7.27749V7.27633V7.27518V7.27403V7.27288V7.27173V7.27058V7.26943V7.26827V7.26712V7.26597V7.26482V7.26367V7.26252V7.26137V7.26021V7.25906V7.25791V7.25676V7.25561V7.25446V7.25331V7.25216V7.251V7.24985V7.2487V7.24755V7.2464V7.24525V7.2441V7.24294V7.24179V7.24064V7.23949V7.23834V7.23719V7.23604V7.23488V7.23373V7.23258V7.23143V7.23028V7.22913V7.22798V7.22682V7.22567V7.22452V7.22337V7.22222V7.22107V7.21992V7.21876V7.21761V7.21646V7.21531V7.21416V7.21301V7.21186V7.2107V7.20955V7.2084V7.20725V7.2061V7.20495V7.2038V7.20264V7.20149V7.20034V7.19919V7.19804V7.19689V7.19574V7.19458V7.19343V7.19228V7.19113V7.18998V7.18883V7.18767V7.18652V7.18537V7.18422V7.18307V7.18192V7.18077V7.17962V7.17846V7.17731V7.17616V7.17501V7.17386V7.17271V7.17155V7.1704V7.16925V7.1681V7.16695V7.1658V7.16465V7.16349V7.16234V7.16119V7.16004V7.15889V7.15774V7.15659V7.15543V7.15428V7.15313V7.15198V7.15083V7.14968V7.14853V7.14737V7.14622V7.14507V7.14392V7.14277V7.14162V7.14046V7.13931V7.13816V7.13701V7.13586V7.13471V7.13356V7.1324V7.13125V7.1301V7.12895V7.1278V7.12665V7.1255V7.12434V7.12319V7.12204V7.12089V7.11974V7.11859V7.11743V7.11628V7.11513V7.11398V7.11283V7.11168V7.11053V7.10937V7.10822V7.10707V7.10592V7.10477V7.10362V7.10247V7.10131V7.10016V7.09901V7.09786V7.09671V7.09556V7.0944V7.09325V7.0921V7.09095V7.0898V7.08865V7.0875V7.08634V7.08519V7.08404V7.08289V7.08174V7.08059V7.07943V7.07828V7.07713V7.07598V7.07483V7.07368V7.07253V7.07137V7.07022V7.06907V7.06792V7.06677V7.06562V7.06447V7.06331V7.06216V7.06101V7.05986V7.05871V7.05756V7.0564V7.05525V7.0541V7.05295V7.0518V7.05065V7.0495V7.04834V7.04719V7.04604V7.04489V7.04374V7.04259V7.04143V7.04028V7.03913V7.03798V7.03683V7.03568V7.03453V7.03337V7.03222V7.03107V7.02992V7.02877V7.02762V7.02646V7.02531V7.02416V7.02301V7.02186V7.02071V7.01956V7.0184V7.01725V7.0161V7.01495V7.0138V7.01265V7.01149V7.01034V7.00919V7.00804V7.00689V7.00574V7.00458V7.00343V7.00228V7.00113V6.99998V6.99883V6.99768V6.99652V6.99537V6.99422V6.99307V6.99192V6.99077V6.98961V6.98846V6.98731V6.98616V6.98501V6.98386V6.98271V6.98155V6.9804V6.97925V6.9781V6.97695V6.9758V6.97464V6.97349V6.97234V6.97119V6.97004V6.96889V6.96774V6.96658V6.96543V6.96428V6.96313V6.96198V6.96083V6.95967V6.95852V6.95737V6.95622V6.95507V6.95392V6.95276V6.95161V6.95046V6.94931V6.94816V6.94701V6.94586V6.9447V6.94355V6.9424V6.94125V6.9401V6.93895V6.93779V6.93664V6.93549V6.93434V6.93319V6.93204V6.93088V6.92973V6.92858V6.92743V6.92628V6.92513V6.92398V6.92282V6.92167V6.92052V6.91937V6.91822V6.91707V6.91591V6.91476V6.91361V6.91246V6.91131V6.91016V6.90901V6.90785V6.9067V6.90555V6.9044V6.90325V6.9021V6.90094V6.89979V6.89864V6.89749V6.89634V6.89519V6.89403V6.89288V6.89173V6.89058V6.88943V6.88828V6.88713V6.88597V6.88482V6.88367V6.88252V6.88137V6.88022V6.87906V6.87791V6.87676V6.87561V6.87446V6.87331V6.87215V6.871V6.86985V6.8687V6.86755V6.8664V6.86525V6.86409V6.86294V6.86179V6.86064V6.85949V6.85834V6.85718V6.85603V6.85488V6.85373V6.85258V6.85143V6.85027V6.84912V6.84797V6.84682V6.84567V6.84452V6.84337V6.84221V6.84106V6.83991V6.83876V6.83761V6.83646V6.8353V6.83415V6.833V6.83185V6.8307V6.82955V6.82839V6.82724V6.82609V6.82494V6.82379V6.82264V6.82149V6.82033V6.81918V6.81803V6.81688V6.81573V6.81458V6.81342V6.81227V6.81112V6.80997V6.80882V6.80767V6.80652V6.80536V6.80421V6.80306V6.80191V6.80076V6.79961V6.79845V6.7973V6.79615V6.795V6.79385V6.7927V6.79154V6.79039V6.78924V6.78809V6.78694V6.78579V6.78464V6.78348V6.78233V6.78118V6.78003V6.77888V6.77773V6.77657V6.77542V6.77427V6.77312V6.77197V6.77082V6.76966V6.76851V6.76736V6.76621V6.76506V6.76391V6.76276V6.7616V6.76045V6.7593V6.75815V6.757V6.75585V6.75469V6.75354V6.75239V6.75124V6.75009V6.74894V6.74779V6.74663V6.74548V6.74433V6.74318V6.74203V6.74088V6.73972V6.73857V6.73742V6.73627V6.73512V6.73397V6.73281V6.73166V6.73051V6.72936V6.72821V6.72706V6.72591V6.72475V6.7236V6.72245V6.7213V6.72015V6.719V6.71784V6.71669V6.71554V6.71439V6.71324V6.71209V6.71094V6.70978V6.70863V6.70748V6.70633V6.70518V6.70403V6.70287V6.70172V6.70057V6.69942C20.041 3.53404 17.5544 0.958975 14.585 0.958975ZM18.059 6.99248V6.99272C17.917 8.94298 16.6668 10.8007 15.1966 12.3336C13.728 13.865 12.0456 15.0663 11.0495 15.7043C10.6826 15.8935 10.318 15.8936 9.95114 15.7046C8.95438 15.0172 7.29591 13.7914 5.83921 12.2479C4.38102 10.7028 3.13034 8.84479 2.94103 6.89397V6.89385V6.89372V6.89358V6.89344V6.89329V6.89314V6.89298V6.89282V6.89266V6.89249V6.89232V6.89215V6.89197V6.89178V6.8916V6.89141V6.89121V6.89101V6.89081V6.8906V6.89039V6.89018V6.88996V6.88974V6.88951V6.88928V6.88905V6.88881V6.88857V6.88833V6.88808V6.88783V6.88757V6.88731V6.88705V6.88678V6.88651V6.88624V6.88596V6.88568V6.8854V6.88511V6.88482V6.88452V6.88423V6.88392V6.88362V6.88331V6.883V6.88268V6.88236V6.88204V6.88171V6.88138V6.88105V6.88071V6.88037V6.88003V6.87968V6.87933V6.87898V6.87862V6.87826V6.8779V6.87754V6.87717V6.87679V6.87642V6.87604V6.87566V6.87527V6.87488V6.87449V6.87409V6.8737V6.8733V6.87289V6.87248V6.87207V6.87166V6.87124V6.87082V6.8704V6.86998V6.86955V6.86911V6.86868V6.86824V6.8678V6.86736V6.86691V6.86646V6.86601V6.86556V6.8651V6.86464V6.86417V6.86371V6.86324V6.86277V6.86229V6.86181V6.86133V6.86085V6.86036V6.85988V6.85938V6.85889V6.85839V6.85789V6.85739V6.85689V6.85638V6.85587V6.85536V6.85484V6.85433V6.85381V6.85328V6.85276V6.85223V6.8517V6.85117V6.85063V6.85009V6.84955V6.84901V6.84847V6.84792V6.84737V6.84682V6.84626V6.84571V6.84515V6.84458V6.84402V6.84345V6.84289V6.84232V6.84174V6.84117V6.84059V6.84001V6.83943V6.83884V6.83826V6.83767V6.83708V6.83648V6.83589V6.83529V6.83469V6.83409V6.83349V6.83288V6.83227V6.83166V6.83105V6.83044V6.82982V6.82921V6.82859V6.82796V6.82734V6.82671V6.82609V6.82546V6.82483V6.82419V6.82356V6.82292V6.82228V6.82164V6.821V6.82035V6.81971V6.81906V6.81841V6.81776V6.81711V6.81645V6.81579V6.81514V6.81448V6.81381V6.81315V6.81249V6.81182V6.81115V6.81048V6.80981V6.80914V6.80846V6.80779V6.80711V6.80643V6.80575V6.80507V6.80438V6.8037V6.80301V6.80232V6.80163V6.80094V6.80025V6.79955V6.79886V6.79816V6.79746V6.79676V6.79606V6.79536V6.79466V6.79395V6.79325V6.79254V6.79183V6.79112V6.79041V6.7897V6.78899V6.78827V6.78756V6.78684V6.78612V6.7854V6.78468V6.78396V6.78324V6.78252V6.78179V6.78106V6.78034V6.77961V6.77888V6.77815V6.77742V6.77669V6.77596V6.77522V6.77449V6.77375V6.77302V6.77228V6.77154V6.7708V6.77006V6.76932V6.76858V6.76784V6.76709V6.76635V6.7656V6.76486V6.76411V6.76336V6.76262V6.76187V6.76112V6.76037V6.75962V6.75887V6.75811V6.75736V6.75661V6.75586V6.7551V6.75435V6.75359V6.75283V6.75208V6.75132V6.75056V6.7498V6.74905V6.74829V6.74753V6.74677V6.74601V6.74524V6.74448V6.74372V6.74296V6.7422V6.74143V6.74067V6.73991V6.73914V6.73838V6.73761V6.73685V6.73608V6.73532V6.73455V6.73379V6.73302V6.73226V6.73149V6.73072V6.72996V6.72919V6.72842V6.72765V6.72689V6.72612V6.72535V6.72458V6.72382V6.72305V6.72228V6.72151V6.72075V6.71998V6.71921V6.71844V6.71768V6.71691V6.71614V6.71537V6.71461V6.71384V6.71307V6.71231V6.71154V6.71077V6.71001V6.70924V6.70847V6.70771V6.70694V6.70618V6.70541V6.70465V6.70388V6.70312V6.70235V6.70159V6.70083V6.70007V6.6993V6.69854V6.69778V6.69702V6.69626V6.6955V6.69474V6.69398V6.69322V6.69246V6.6917V6.69094V6.69019V6.68943V6.68867V6.68792V6.68716V6.68641V6.68566V6.6849V6.68415V6.6834V6.68265V6.6819V6.68115V6.6804V6.67965V6.6789V6.67816V6.67741V6.67666V6.67592V6.67518V6.67443V6.67369V6.67295V6.67221V6.67147V6.67073V6.66999V6.66926V6.66852V6.66778V6.66705V6.66632V6.66558V6.66485V6.66412V6.66339V6.66266V6.66194V6.66121V6.66048V6.65976V6.65904V6.65832V6.65759V6.65687V6.65616V6.65544V6.65472V6.65401V6.65329V6.65258V6.65187V6.65116V6.65045V6.64974V6.64903V6.64833V6.64762V6.64692V6.64622V6.64552V6.64482V6.64412V6.64343V6.64273V6.64204V6.64135V6.64066V6.63997V6.63928V6.63859V6.63791V6.63722V6.63654V6.63586V6.63518V6.63451V6.63383V6.63316V6.63248V6.63181V6.63114V6.63048V6.62981V6.62915V6.62848V6.62782V6.62716V6.6265V6.62585V6.62519V6.62454V6.62389V6.62324V6.62259V6.62195V6.62131V6.62066V6.62002V6.61939V6.61875V6.61811V6.61748V6.61685V6.61622V6.6156V6.61497V6.61435V6.61373V6.61311V6.61249V6.61188V6.61126V6.61065V6.61004V6.60943V6.60883V6.60823V6.60763V6.60703V6.60643V6.60584V6.60524V6.60465V6.60407V6.60348V6.6029V6.60232V6.60174V6.60116C2.94103 4.65718 4.53895 3.00635 6.415 3.00635C7.82108 3.00635 9.04134 3.87826 9.60604 5.14053C9.7085 5.55581 10.1096 5.75778 10.5 5.75778C10.8904 5.75778 11.2915 5.55581 11.394 5.14053C11.9587 3.87826 13.1789 3.00635 14.585 3.00635C16.461 3.00635 18.059 4.65718 18.059 6.60116V6.60174V6.60232V6.6029V6.60348V6.60407V6.60465V6.60524V6.60584V6.60643V6.60703V6.60763V6.60823V6.60883V6.60944V6.61004V6.61065V6.61127V6.61188V6.61249V6.61311V6.61373V6.61436V6.61498V6.61561V6.61623V6.61686V6.6175V6.61813V6.61877V6.6194V6.62005V6.62069V6.62133V6.62198V6.62263V6.62328V6.62393V6.62458V6.62524V6.6259V6.62655V6.62722V6.62788V6.62855V6.62921V6.62988V6.63055V6.63122V6.6319V6.63258V6.63325V6.63393V6.63462V6.6353V6.63598V6.63667V6.63736V6.63805V6.63874V6.63944V6.64013V6.64083V6.64153V6.64223V6.64293V6.64364V6.64434V6.64505V6.64576V6.64647V6.64718V6.6479V6.64861V6.64933V6.65005V6.65077V6.65149V6.65222V6.65294V6.65367V6.6544V6.65513V6.65586V6.65659V6.65732V6.65806V6.6588V6.65954V6.66028V6.66102V6.66176V6.66251V6.66325V6.664V6.66475V6.6655V6.66625V6.66701V6.66776V6.66852V6.66927V6.67003V6.67079V6.67155V6.67232V6.67308V6.67385V6.67461V6.67538V6.67615V6.67692V6.67769V6.67847V6.67924V6.68002V6.68079V6.68157V6.68235V6.68313V6.68391V6.6847V6.68548V6.68627V6.68705V6.68784V6.68863V6.68942V6.69021V6.691V6.6918V6.69259V6.69339V6.69418V6.69498V6.69578V6.69658V6.69738V6.69818V6.69898V6.69979V6.70059V6.7014V6.70221V6.70301V6.70382V6.70463V6.70544V6.70626V6.70707V6.70788V6.7087V6.70951V6.71033V6.71115V6.71197V6.71279V6.71361V6.71443V6.71525V6.71607V6.71689V6.71772V6.71854V6.71937V6.7202V6.72102V6.72185V6.72268V6.72351V6.72434V6.72517V6.72601V6.72684V6.72767V6.72851V6.72934V6.73018V6.73102V6.73185V6.73269V6.73353V6.73437V6.73521V6.73605V6.73689V6.73773V6.73857V6.73942V6.74026V6.74111V6.74195V6.7428V6.74364V6.74449V6.74534V6.74618V6.74703V6.74788V6.74873V6.74958V6.75043V6.75128V6.75213V6.75298V6.75383V6.75469V6.75554V6.75639V6.75725V6.7581V6.75896V6.75981V6.76067V6.76152V6.76238V6.76323V6.76409V6.76495V6.76581V6.76666V6.76752V6.76838V6.76924V6.7701V6.77096V6.77182V6.77268V6.77354V6.7744V6.77526V6.77612V6.77698V6.77784V6.7787V6.77956V6.78042V6.78129V6.78215V6.78301V6.78387V6.78474V6.7856V6.78646V6.78732V6.78819V6.78905V6.78991V6.79078V6.79164V6.7925V6.79337V6.79423V6.7951V6.79596V6.79682V6.79769V6.79855V6.79941V6.80028V6.80114V6.802V6.80287V6.80373V6.80459V6.80546V6.80632V6.80718V6.80805V6.80891V6.80977V6.81064V6.8115V6.81236V6.81322V6.81409V6.81495V6.81581V6.81667V6.81753V6.81839V6.81925V6.82012V6.82098V6.82184V6.8227V6.82356V6.82442V6.82528V6.82613V6.82699V6.82785V6.82871V6.82957V6.83042V6.83128V6.83214V6.833V6.83385V6.83471V6.83556V6.83642V6.83727V6.83813V6.83898V6.83983V6.84069V6.84154V6.84239V6.84324V6.84409V6.84494V6.84579V6.84664V6.84749V6.84834V6.84919V6.85004V6.85088V6.85173V6.85258V6.85342V6.85427V6.85511V6.85595V6.8568V6.85764V6.85848V6.85932V6.86016V6.861V6.86184V6.86268V6.86352V6.86436V6.86519V6.86603V6.86686V6.8677V6.86853V6.86937V6.8702V6.87103V6.87186V6.87269V6.87352V6.87435V6.87518V6.876V6.87683V6.87765V6.87848V6.8793V6.88013V6.88095V6.88177V6.88259V6.88341V6.88423V6.88504V6.88586V6.88668V6.88749V6.8883V6.88912V6.88993V6.89074V6.89155V6.89236V6.89317V6.89397V6.89478V6.89559V6.89639V6.89719V6.89799V6.8988V6.8996V6.90039V6.90119V6.90199V6.90278V6.90358V6.90437V6.90516V6.90596V6.90675V6.90753V6.90832V6.90911V6.90989V6.91068V6.91146V6.91224V6.91302V6.9138V6.91458V6.91536V6.91613V6.91691V6.91768V6.91845V6.91922V6.91999V6.92076V6.92153V6.92229V6.92306V6.92382V6.92458V6.92534V6.9261V6.92686V6.92762V6.92837V6.92912V6.92987V6.93063V6.93137V6.93212V6.93287V6.93361V6.93436V6.9351V6.93584V6.93658V6.93732V6.93805V6.93879V6.93952V6.94025V6.94098V6.94171V6.94244V6.94316V6.94388V6.94461V6.94533V6.94605V6.94676V6.94748V6.94819V6.94891V6.94962V6.95033V6.95103V6.95174V6.95244V6.95315V6.95385V6.95455V6.95524V6.95594V6.95663V6.95733V6.95802V6.95871V6.95939V6.96008V6.96076V6.96144V6.96212V6.9628V6.96348V6.96415V6.96483V6.9655V6.96617V6.96683V6.9675V6.96816V6.96882V6.96948V6.97014V6.9708V6.97145V6.9721V6.97275V6.9734V6.97405V6.97469V6.97533V6.97597V6.97661V6.97725V6.97788V6.97851V6.97915V6.97977V6.9804V6.98102V6.98165V6.98227V6.98288V6.9835V6.98411V6.98472V6.98533V6.98594V6.98655V6.98715V6.98775V6.98835V6.98895V6.98954V6.99013V6.99073V6.99131V6.9919V6.99248Z" fill="white" fill-opacity="0.3" stroke="white" stroke-width="0.08205"/>
</svg>
