<svg width="13" height="12" viewBox="0 0 13 12" fill="none" xmlns="http://www.w3.org/2000/svg">
<path d="M6.85646 7.28306C7.01457 7.28306 7.1662 7.22137 7.278 7.11156C7.3898 7.00175 7.4526 6.85281 7.4526 6.69751V3.98594C7.4526 3.83065 7.3898 3.68171 7.278 3.5719C7.1662 3.46208 7.01457 3.40039 6.85646 3.40039C6.69836 3.40039 6.54673 3.46208 6.43493 3.5719C6.32313 3.68171 6.26032 3.83065 6.26032 3.98594V6.6885C6.25911 6.76615 6.27363 6.84326 6.30304 6.91535C6.33246 6.98744 6.37618 7.05305 6.43165 7.10839C6.48713 7.16372 6.55326 7.20766 6.62619 7.23764C6.69912 7.26763 6.7774 7.28307 6.85646 7.28306Z" fill="white" fill-opacity="0.5"/>
<path d="M6.83385 9.28683C7.21374 9.28683 7.5217 8.98433 7.5217 8.61119C7.5217 8.23804 7.21374 7.93555 6.83385 7.93555C6.45396 7.93555 6.146 8.23804 6.146 8.61119C6.146 8.98433 6.45396 9.28683 6.83385 9.28683Z" fill="white" fill-opacity="0.5"/>
<path d="M12.5115 9.18341L8.04503 1.10276C7.92678 0.889356 7.75214 0.711214 7.53949 0.587092C7.32685 0.46297 7.08406 0.397461 6.8367 0.397461C6.58934 0.397461 6.34656 0.46297 6.13391 0.587092C5.92126 0.711214 5.74662 0.889356 5.62837 1.10276L1.15732 9.18341C1.0403 9.38973 0.98037 9.62257 0.983516 9.85874C0.986662 10.0949 1.05277 10.3261 1.17525 10.5294C1.29773 10.7326 1.47231 10.9008 1.68158 11.0171C1.89085 11.1334 2.1275 11.1938 2.36794 11.1923H11.3009C11.5394 11.1925 11.7738 11.1318 11.9812 11.0162C12.1886 10.9006 12.3618 10.734 12.4839 10.5328C12.606 10.3316 12.6727 10.1026 12.6776 9.86844C12.6824 9.63424 12.6252 9.40284 12.5115 9.19692V9.18341ZM11.6952 10.0572C11.6547 10.1245 11.597 10.1802 11.5278 10.2189C11.4587 10.2576 11.3805 10.2779 11.3009 10.2779H2.36794C2.28823 10.2782 2.20984 10.258 2.1405 10.2193C2.07116 10.1807 2.01327 10.125 1.97253 10.0577C1.9318 9.99042 1.90962 9.91385 1.90819 9.83557C1.90677 9.75729 1.92614 9.67999 1.9644 9.61131L6.43087 1.53067C6.47016 1.45916 6.52841 1.39943 6.59946 1.3578C6.6705 1.31616 6.75168 1.29418 6.83441 1.29418C6.91714 1.29418 6.99832 1.31616 7.06936 1.3578C7.1404 1.39943 7.19866 1.45916 7.23795 1.53067L11.7044 9.61131C11.7424 9.68002 11.7616 9.75728 11.76 9.83546C11.7584 9.91365 11.7361 9.99008 11.6952 10.0572Z" fill="white" fill-opacity="0.5"/>
</svg>
