<svg width="16" height="15" viewBox="0 0 16 15" fill="none" xmlns="http://www.w3.org/2000/svg">
<path d="M15.6943 8.43893H13.7251V6.46973H12.7405V8.43893H10.7713V9.42353H12.7405V11.3927H13.7251V9.42353H15.6943V8.43893Z" fill="white"/>
<path d="M5.95064 14.6043C5.86983 14.6043 5.78885 14.5843 5.716 14.5441C5.56553 14.4612 5.47243 14.3054 5.47243 14.1366V7.69782L0.530474 1.32405C0.420805 1.1825 0.402633 0.992464 0.483291 0.833452C0.564108 0.674283 0.730046 0.57373 0.911606 0.57373H13.2062C13.3879 0.57373 13.5537 0.674283 13.6345 0.833452C13.7153 0.992464 13.6971 1.1825 13.5873 1.32405L8.64534 7.69782V12.8226C8.64534 12.9861 8.55799 13.1376 8.41501 13.2224L6.19867 14.5365C6.12248 14.5815 6.03656 14.6043 5.95064 14.6043ZM1.8744 1.5091L6.33177 7.25804C6.3949 7.33926 6.42885 7.43857 6.42885 7.54068V13.3063L7.68893 12.5592V7.54052C7.68893 7.43857 7.72304 7.33926 7.78601 7.25788L12.2434 1.5091H1.8744Z" fill="white"/>
</svg>
