<svg width="11" height="11" viewBox="0 0 11 11" fill="none" xmlns="http://www.w3.org/2000/svg">
<path fill-rule="evenodd" clip-rule="evenodd" d="M5.43661 1.06811C3.79996 1.06811 2.53027 2.08014 2.31358 3.3115H3.41692C3.62606 3.3115 3.79561 3.4789 3.79561 3.6854V7.17512C3.79561 7.38161 3.62606 7.54902 3.41692 7.54902H1.90215C1.13528 7.54902 0.513611 6.93523 0.513611 6.17806V4.68246C0.513611 4.04851 0.949415 3.51506 1.54137 3.35823C1.73397 1.61131 3.45418 0.320312 5.43661 0.320312C7.41904 0.320312 9.13926 1.6113 9.33184 3.35824C9.92381 3.51506 10.3596 4.04851 10.3596 4.68246V6.17806C10.3596 6.81379 9.92139 7.34846 9.32689 7.5036C9.16491 8.65596 8.16309 9.54315 6.95138 9.54315H6.37304C6.22323 9.90857 5.86039 10.1663 5.43661 10.1663C4.87887 10.1663 4.42676 9.71993 4.42676 9.16925C4.42676 8.61857 4.87887 8.17219 5.43661 8.17219C5.86039 8.17219 6.22323 8.42993 6.37304 8.79535H6.95138C7.72735 8.79535 8.37753 8.26362 8.5485 7.54902H7.4563C7.24716 7.54902 7.07761 7.38161 7.07761 7.17512V3.6854C7.07761 3.4789 7.24716 3.3115 7.4563 3.3115H8.55966C8.34295 2.08014 7.07327 1.06811 5.43661 1.06811ZM1.90215 4.0593C1.55357 4.0593 1.271 4.33828 1.271 4.68246V6.17806C1.271 6.52225 1.55357 6.80122 1.90215 6.80122H3.03823V4.0593H1.90215ZM9.60223 4.68246C9.60223 4.33828 9.31967 4.0593 8.97107 4.0593H7.83499V6.80122H8.97107C9.31967 6.80122 9.60223 6.52225 9.60223 6.17806V4.68246Z" fill="white"/>
</svg>
