<svg width="11" height="10" viewBox="0 0 11 10" fill="none" xmlns="http://www.w3.org/2000/svg">
<path d="M7.65196 0.550781C9.14757 0.550781 10.3596 1.77044 10.3596 3.47797C10.3596 6.89302 6.66736 8.84448 5.43661 9.57628C4.20586 8.84448 0.513611 6.89302 0.513611 3.47797C0.513611 1.77044 1.74436 0.550781 3.22126 0.550781C4.13694 0.550781 4.94431 1.03865 5.43661 1.52651C5.92891 1.03865 6.73628 0.550781 7.65196 0.550781ZM5.89642 8.16342C6.33013 7.89217 6.72151 7.62238 7.08778 7.33357C8.55533 6.17733 9.37501 4.91376 9.37501 3.47797C9.37501 2.32661 8.61835 1.52651 7.65196 1.52651C7.12225 1.52651 6.54921 1.80459 6.13272 2.21635L5.43661 2.90619L4.7405 2.21635C4.32401 1.80459 3.75098 1.52651 3.22126 1.52651C2.2662 1.52651 1.49821 2.33442 1.49821 3.47797C1.49821 4.91424 2.31838 6.17733 3.78494 7.33357C4.15171 7.62238 4.54309 7.89217 4.9768 8.16294C5.124 8.25514 5.26972 8.34345 5.43661 8.442C5.6035 8.34345 5.74922 8.25514 5.89642 8.16342Z" fill="white"/>
</svg>
