<svg width="14" height="14" viewBox="0 0 14 14" fill="none" xmlns="http://www.w3.org/2000/svg">
<path d="M7.3895 13.6226C6.78267 13.6226 6.20149 13.5457 5.64594 13.3919C5.09039 13.238 4.5669 13.0179 4.07545 12.7316C3.584 12.4453 3.1417 12.1034 2.74855 11.706C2.35539 11.3086 2.01352 10.8641 1.72292 10.3727C1.43233 9.88123 1.21225 9.35774 1.06268 8.80219C0.913106 8.24664 0.834047 7.66546 0.8255 7.05863C0.8255 6.45607 0.902422 5.87489 1.05627 5.31507C1.21011 4.75525 1.43019 4.23175 1.71651 3.74458C2.00283 3.25741 2.34471 2.81511 2.74214 2.41768C3.13957 2.02025 3.584 1.67837 4.07545 1.39205C4.5669 1.10573 5.09039 0.885648 5.64594 0.731805C6.20149 0.577961 6.78267 0.498902 7.3895 0.494629C7.99206 0.494629 8.57324 0.571551 9.13306 0.725395C9.69288 0.879238 10.2164 1.09932 10.7036 1.38564C11.1907 1.67196 11.633 2.01384 12.0305 2.41127C12.4279 2.8087 12.7698 3.25313 13.0561 3.74458C13.3424 4.23602 13.5625 4.75952 13.7163 5.31507C13.8702 5.87061 13.9492 6.4518 13.9535 7.05863C13.9535 7.66546 13.8766 8.24664 13.7227 8.80219C13.5689 9.35774 13.3488 9.88123 13.0625 10.3727C12.7762 10.8641 12.4343 11.3064 12.0369 11.6996C11.6394 12.0927 11.195 12.4346 10.7036 12.7252C10.2121 13.0158 9.68861 13.2359 9.13306 13.3855C8.57752 13.535 7.99633 13.6141 7.3895 13.6226ZM7.3895 1.31513C6.86387 1.31513 6.35747 1.3835 5.87029 1.52025C5.38312 1.657 4.92586 1.84931 4.49852 2.09717C4.07118 2.34503 3.68229 2.6463 3.33187 3.001C2.98145 3.3557 2.68231 3.74244 2.43445 4.16124C2.18659 4.58004 1.99215 5.03729 1.85113 5.53301C1.7101 6.02873 1.64173 6.53727 1.646 7.05863C1.646 7.58426 1.71438 8.09066 1.85113 8.57784C1.98788 9.06501 2.18018 9.52227 2.42804 9.94961C2.6759 10.377 2.97718 10.7658 3.33187 11.1163C3.68657 11.4667 4.07331 11.7658 4.49211 12.0137C4.91091 12.2615 5.36816 12.456 5.86388 12.597C6.3596 12.738 6.86814 12.8064 7.3895 12.8021C7.91513 12.8021 8.42154 12.7338 8.90871 12.597C9.39588 12.4603 9.85314 12.2679 10.2805 12.0201C10.7078 11.7722 11.0967 11.471 11.4471 11.1163C11.7976 10.7616 12.0967 10.3748 12.3446 9.95602C12.5924 9.53722 12.7869 9.07996 12.9279 8.58425C13.0689 8.08853 13.1373 7.57999 13.133 7.05863C13.133 6.533 13.0646 6.02659 12.9279 5.53942C12.7911 5.05225 12.5988 4.59499 12.351 4.16765C12.1031 3.7403 11.8018 3.35142 11.4471 3.001C11.0924 2.65058 10.7057 2.35144 10.2869 2.10358C9.86809 1.85572 9.41084 1.66128 8.91512 1.52025C8.4194 1.37923 7.91086 1.31086 7.3895 1.31513ZM7.3895 7.05863V2.95613H6.569V7.87913H9.851V7.05863H7.3895Z" fill="#939195"/>
</svg>
