<svg width="17" height="17" viewBox="0 0 17 17" fill="none" xmlns="http://www.w3.org/2000/svg">
<path fill-rule="evenodd" clip-rule="evenodd" d="M9.26493 2.09318C8.87954 1.83565 8.43122 1.83565 8.04583 2.09318L8.03188 2.10232L2.96194 5.3434C2.40171 5.70079 2.09138 6.31755 2.09138 6.93561V13.8597C2.09138 14.5134 2.60769 15.028 3.25477 15.028H14.056C14.703 15.028 15.2194 14.5134 15.2194 13.8597V6.93561C15.2194 6.29643 14.8813 5.72342 14.3329 5.3332L9.27888 2.10232L9.26493 2.09318ZM10.1692 0.723837C9.23572 0.104105 8.07504 0.104097 7.14156 0.723821L2.07871 3.96036C2.07859 3.96044 2.07883 3.96028 2.07871 3.96036C1.02266 4.63424 0.450378 5.78586 0.450378 6.93561V13.8597C0.450378 15.4158 1.69753 16.669 3.25477 16.669H14.056C15.6132 16.669 16.8604 15.4158 16.8604 13.8597V6.93561C16.8604 5.66473 16.1753 4.62132 15.262 3.98046C15.2524 3.97368 15.2426 3.96712 15.2327 3.96078L10.1692 0.723837Z" fill="white" fill-opacity="0.3"/>
</svg>
