<svg width="17" height="17" viewBox="0 0 17 17" fill="none" xmlns="http://www.w3.org/2000/svg">
<path fill-rule="evenodd" clip-rule="evenodd" d="M8.92698 2.09342C8.54159 1.83589 8.09327 1.83589 7.70788 2.09342L7.69393 2.10256L2.62399 5.34364C2.06376 5.70104 1.75343 6.31779 1.75343 6.93585V13.86C1.75343 14.5137 2.26973 15.0283 2.91682 15.0283H13.718C14.3651 15.0283 14.8814 14.5137 14.8814 13.86V6.93585C14.8814 6.29667 14.5433 5.72367 13.995 5.33345L8.94092 2.10256L8.92698 2.09342ZM9.83125 0.724081C8.89777 0.10435 7.73709 0.104341 6.8036 0.724065L1.74076 3.9606C1.74088 3.96053 1.74064 3.96068 1.74076 3.9606C0.684709 4.63449 0.112427 5.78611 0.112427 6.93585V13.86C0.112427 15.416 1.35958 16.6693 2.91682 16.6693H13.718C15.2753 16.6693 16.5224 15.416 16.5224 13.86V6.93585C16.5224 5.66498 15.8374 4.62156 14.9241 3.9807C14.9145 3.97393 14.9046 3.96736 14.8947 3.96102L9.83125 0.724081Z" fill="#FE3C72"/>
</svg>
