<svg width="13" height="13" viewBox="0 0 13 13" fill="none" xmlns="http://www.w3.org/2000/svg">
<mask id="path-1-inside-1_3748_3077" fill="white">
<path d="M6.83078 5.99316C7.10757 5.99316 7.33197 6.21756 7.33197 6.49435V9.83562C7.33197 10.1124 7.10757 10.3368 6.83078 10.3368C6.55399 10.3368 6.32959 10.1124 6.32959 9.83562V6.49435C6.32959 6.21756 6.55399 5.99316 6.83078 5.99316Z"/>
</mask>
<path d="M6.83078 7.07265C6.51139 7.07265 6.25248 6.81375 6.25248 6.49435H8.41146C8.41146 5.62138 7.70376 4.91368 6.83078 4.91368V7.07265ZM6.25248 6.49435V9.83562H8.41146V6.49435H6.25248ZM6.25248 9.83562C6.25248 9.51623 6.51139 9.25733 6.83078 9.25733V11.4163C7.70376 11.4163 8.41146 10.7086 8.41146 9.83562H6.25248ZM6.83078 9.25733C7.15017 9.25733 7.40908 9.51623 7.40908 9.83562H5.2501C5.2501 10.7086 5.9578 11.4163 6.83078 11.4163V9.25733ZM7.40908 9.83562V6.49435H5.2501V9.83562H7.40908ZM7.40908 6.49435C7.40908 6.81375 7.15017 7.07265 6.83078 7.07265V4.91368C5.9578 4.91368 5.2501 5.62138 5.2501 6.49435H7.40908Z" fill="white" fill-opacity="0.5" mask="url(#path-1-inside-1_3748_3077)"/>
<path d="M6.95936 4.15556C6.95936 4.22654 6.90183 4.28407 6.83085 4.28407C6.75987 4.28407 6.70234 4.22654 6.70234 4.15556C6.70234 4.08458 6.75987 4.02705 6.83085 4.02705C6.90183 4.02705 6.95936 4.08458 6.95936 4.15556Z" stroke="white" stroke-opacity="0.5" stroke-width="1.07949"/>
<mask id="path-4-inside-2_3748_3077" fill="white">
<path fill-rule="evenodd" clip-rule="evenodd" d="M0.983398 6.82867C0.983398 3.59934 3.60129 0.981445 6.83062 0.981445C10.06 0.981445 12.6778 3.59934 12.6778 6.82867C12.6778 10.058 10.06 12.6759 6.83062 12.6759C3.60129 12.6759 0.983398 10.058 0.983398 6.82867ZM6.83062 1.98383C4.15489 1.98383 1.98578 4.15294 1.98578 6.82867C1.98578 9.50442 4.15489 11.6735 6.83062 11.6735C9.50638 11.6735 11.6755 9.50442 11.6755 6.82867C11.6755 4.15294 9.50638 1.98383 6.83062 1.98383Z"/>
</mask>
<path d="M2.06289 6.82867C2.06289 4.19552 4.19747 2.06093 6.83062 2.06093V-0.098042C3.00511 -0.098042 -0.0960889 3.00315 -0.0960889 6.82867H2.06289ZM6.83062 2.06093C9.46377 2.06093 11.5984 4.19552 11.5984 6.82867H13.7573C13.7573 3.00315 10.6561 -0.098042 6.83062 -0.098042V2.06093ZM11.5984 6.82867C11.5984 9.46182 9.46377 11.5964 6.83062 11.5964V13.7554C10.6561 13.7554 13.7573 10.6542 13.7573 6.82867H11.5984ZM6.83062 11.5964C4.19747 11.5964 2.06289 9.46182 2.06289 6.82867H-0.0960889C-0.0960889 10.6542 3.00511 13.7554 6.83062 13.7554V11.5964ZM6.83062 0.904339C3.55871 0.904339 0.906292 3.55675 0.906292 6.82867H3.06527C3.06527 4.74912 4.75108 3.06331 6.83062 3.06331V0.904339ZM0.906292 6.82867C0.906292 10.1006 3.55871 12.753 6.83062 12.753V10.594C4.75107 10.594 3.06527 8.90824 3.06527 6.82867H0.906292ZM6.83062 12.753C10.1026 12.753 12.755 10.1006 12.755 6.82867H10.596C10.596 8.90824 8.91019 10.594 6.83062 10.594V12.753ZM12.755 6.82867C12.755 3.55676 10.1026 0.904339 6.83062 0.904339V3.06331C8.91019 3.06331 10.596 4.74912 10.596 6.82867H12.755Z" fill="white" fill-opacity="0.5" mask="url(#path-4-inside-2_3748_3077)"/>
</svg>
