<svg width="47" height="47" viewBox="0 0 47 47" fill="none" xmlns="http://www.w3.org/2000/svg">
<path d="M23.8052 20.457C24.6207 20.457 25.2825 21.1182 25.2827 21.9336V35.0625C25.2825 35.8779 24.6207 36.5391 23.8052 36.5391C22.9899 36.5388 22.3289 35.8778 22.3286 35.0625V21.9336C22.3289 21.1183 22.9899 20.4573 23.8052 20.457Z" fill="#F7F5DD" stroke="#28252D" stroke-width="0.9846"/>
<path d="M23.8071 10.6104C24.9852 10.6106 25.9399 11.5661 25.9399 12.7441C25.9397 13.922 24.9851 14.8767 23.8071 14.877C22.629 14.877 21.6735 13.9222 21.6733 12.7441C21.6733 11.566 22.6289 10.6104 23.8071 10.6104Z" fill="#F7F5DD" stroke="#28252D" stroke-width="0.9846"/>
<path d="M23.8057 0.764648C36.2219 0.764648 46.2879 10.83 46.2881 23.2461C46.2881 35.6624 36.222 45.7285 23.8057 45.7285C11.3895 45.7283 1.32422 35.6623 1.32422 23.2461C1.32442 10.8301 11.3897 0.764847 23.8057 0.764648ZM23.8057 3.71875C13.021 3.71895 4.27852 12.4614 4.27832 23.2461C4.27832 34.031 13.0209 42.7742 23.8057 42.7744C34.5907 42.7744 43.334 34.0311 43.334 23.2461C43.3338 12.4613 34.5906 3.71875 23.8057 3.71875Z" fill="#F7F5DD" stroke="#28252D" stroke-width="0.9846"/>
</svg>
