<svg width="15" height="13" viewBox="0 0 15 13" fill="none" xmlns="http://www.w3.org/2000/svg">
<path d="M8.8126 12.2663C8.25413 12.2663 8.25413 11.7127 8.25413 11.1593C8.25413 10.6059 8.07762 10.2965 7.76341 9.98513C7.44921 9.67372 7.02307 9.49877 6.57872 9.49877H3.2279C2.78355 9.49877 2.3574 9.67372 2.0432 9.98513C1.729 10.2965 1.55249 10.6059 1.55249 11.1593C1.55249 11.7127 1.55287 12.2663 0.994017 12.2663C0.435165 12.2663 0.435547 11.7127 0.435547 11.1593C0.435547 10.6059 0.72974 9.72136 1.25341 9.20234C1.77708 8.68333 2.48732 8.39175 3.2279 8.39175H6.57872C7.3193 8.39175 8.02954 8.68333 8.55321 9.20234C9.07688 9.72136 9.37107 10.6059 9.37107 11.1593C9.37107 11.7127 9.37107 12.2663 8.8126 12.2663ZM4.90331 7.28472C4.46327 7.28472 4.02755 7.19882 3.62101 7.03192C3.21447 6.86502 2.84507 6.62039 2.53392 6.312C2.22277 6.00361 1.97595 5.6375 1.80755 5.23457C1.63916 4.83164 1.55249 4.39978 1.55249 3.96365C1.55249 3.52752 1.63916 3.09566 1.80755 2.69273C1.97595 2.2898 2.22277 1.92369 2.53392 1.6153C2.84507 1.30691 3.21447 1.06228 3.62101 0.89538C4.02755 0.72848 4.46327 0.642578 4.90331 0.642578C5.792 0.642578 6.6443 0.992476 7.2727 1.6153C7.9011 2.23812 8.25413 3.08285 8.25413 3.96365C8.25413 4.84445 7.9011 5.68918 7.2727 6.312C6.6443 6.93482 5.792 7.28472 4.90331 7.28472ZM4.90331 6.1777C5.49577 6.1777 6.06397 5.94443 6.4829 5.52922C6.90184 5.114 7.13719 4.55085 7.13719 3.96365C7.13719 3.37645 6.90184 2.8133 6.4829 2.39808C6.06397 1.98287 5.49577 1.7496 4.90331 1.7496C4.31085 1.7496 3.74265 1.98287 3.32372 2.39808C2.90478 2.8133 2.66943 3.37645 2.66943 3.96365C2.66943 4.55085 2.90478 5.114 3.32372 5.52922C3.74265 5.94443 4.31085 6.1777 4.90331 6.1777Z" fill="#FE3C72"/>
<path d="M11.3749 4.2959V8.9454" stroke="#FE3C72" stroke-width="1.23075" stroke-linecap="round"/>
<path d="M13.564 6.62109L9.1883 6.62109" stroke="#FE3C72" stroke-width="1.23075" stroke-linecap="round"/>
</svg>
