<svg width="17" height="17" viewBox="0 0 17 17" fill="none" xmlns="http://www.w3.org/2000/svg">
<path d="M12.9637 0.26001H4.34848C3.85618 0.26001 3.52798 0.58821 3.52798 1.08051C3.52798 1.57281 3.85618 1.90101 4.34848 1.90101H12.9637C14.0304 1.90101 14.8509 2.72151 14.8509 3.78816V13.2239C14.8509 14.2906 14.0304 15.1111 12.9637 15.1111H12.1432L5.66128 0.75231C5.57923 0.42411 5.25103 0.26001 4.92283 0.26001H3.61003C1.64083 0.26001 0.0818787 1.81896 0.0818787 3.78816V13.2239C0.0818787 15.1111 1.64083 16.67 3.61003 16.67H11.6509H12.9637C14.9329 16.67 16.4919 15.1111 16.4919 13.1419V3.78816C16.4919 1.81896 14.9329 0.26001 12.9637 0.26001ZM3.61003 1.90101H4.43053L7.22023 8.05476L1.72288 10.8445V3.78816C1.72288 2.72151 2.54338 1.90101 3.61003 1.90101ZM3.61003 15.029C2.54338 15.029 1.72288 14.2085 1.72288 13.1419V12.6496L7.87663 9.53166L10.3381 15.029H3.61003Z" fill="#FE3C72"/>
</svg>
