<svg width="17" height="17" viewBox="0 0 17 17" fill="none" xmlns="http://www.w3.org/2000/svg">
<path d="M12.8819 0H4.2666C3.7743 0 3.4461 0.3282 3.4461 0.8205C3.4461 1.3128 3.7743 1.641 4.2666 1.641H12.8819C13.9485 1.641 14.769 2.4615 14.769 3.52815V12.9639C14.769 14.0305 13.9485 14.8511 12.8819 14.8511H12.0614L5.5794 0.4923C5.49735 0.1641 5.16915 0 4.84095 0H3.52815C1.55895 0 0 1.55895 0 3.52815V12.9639C0 14.851 1.55895 16.41 3.52815 16.41H11.5691H12.8819C14.8511 16.41 16.41 14.8511 16.41 12.8819V3.52815C16.41 1.55895 14.8511 0 12.8819 0ZM3.52815 1.641H4.34865L7.13835 7.79475L1.641 10.5844V3.52815C1.641 2.4615 2.4615 1.641 3.52815 1.641ZM3.52815 14.769C2.4615 14.769 1.641 13.9485 1.641 12.8819V12.3896L7.79475 9.27165L10.2563 14.769H3.52815Z" fill="white" fill-opacity="0.3"/>
</svg>
