<svg width="30" height="30" viewBox="0 0 15 18" fill="none" xmlns="http://www.w3.org/2000/svg">
  <path d="M4.6557 7.5969C4.6557 6.21553 5.77557 5.0957 7.1569 5.0957C8.53823 5.0957 9.6581 6.21553 9.6581 7.5969C9.6581 8.97824 8.53823 10.0981 7.1569 10.0981C5.77557 10.0981 4.6557 8.97824 4.6557 7.5969Z" fill="#FE3C72"/>
  <path fill-rule="evenodd" clip-rule="evenodd" d="M6.97685 0.371094C3.41698 0.371094 0.4522 3.10155 0.159748 6.64941C0.00253922 8.55669 0.591677 10.4505 1.80309 11.9321L5.79928 16.8192C6.50095 17.6774 7.81291 17.6774 8.5147 16.8192L12.5107 11.9321C13.7222 10.4505 14.3114 8.55669 14.1541 6.64941C13.8617 3.10155 10.8968 0.371094 7.33702 0.371094H6.97685ZM7.15693 3.42812C4.85464 3.42812 2.98826 5.29449 2.98826 7.59679C2.98826 9.89912 4.85464 11.7655 7.15693 11.7655C9.45926 11.7655 11.3256 9.89912 11.3256 7.59679C11.3256 5.29449 9.45926 3.42812 7.15693 3.42812Z" fill="#FE3C72"/>
</svg>
