<svg width="6" height="7" viewBox="0 0 6 7" fill="none" xmlns="http://www.w3.org/2000/svg">
<path d="M2.77205 3.52028C2.94127 3.52028 3.0862 3.45595 3.20681 3.3273C3.32722 3.19886 3.38742 3.04439 3.38742 2.86388C3.38742 2.68337 3.32722 2.52879 3.20681 2.40013C3.0862 2.2717 2.94127 2.20748 2.77205 2.20748C2.60282 2.20748 2.458 2.2717 2.33759 2.40013C2.21698 2.52879 2.15667 2.68337 2.15667 2.86388C2.15667 3.04439 2.21698 3.19886 2.33759 3.3273C2.458 3.45595 2.60282 3.52028 2.77205 3.52028ZM2.77205 6.80228C1.94642 6.05289 1.32981 5.35678 0.92223 4.71394C0.514441 4.07133 0.310547 3.47652 0.310547 2.92952C0.310547 2.10902 0.55803 1.45536 1.053 0.968526C1.54776 0.481696 2.12077 0.238281 2.77205 0.238281C3.42332 0.238281 3.99634 0.481696 4.4911 0.968526C4.98606 1.45536 5.23355 2.10902 5.23355 2.92952C5.23355 3.47652 5.02976 4.07133 4.62217 4.71394C4.21438 5.35678 3.59767 6.05289 2.77205 6.80228Z" fill="white"/>
</svg>
