<svg width="11" height="11" viewBox="0 0 11 11" fill="none" xmlns="http://www.w3.org/2000/svg">
<g clip-path="url(#clip0_384_200468)">
<path d="M8.22962 7.87568L6.05427 10.0516C5.96854 10.1374 5.86676 10.2055 5.75473 10.2519C5.6427 10.2983 5.52262 10.3222 5.40135 10.3222C5.28009 10.3222 5.16001 10.2983 5.04798 10.2519C4.93595 10.2055 4.83416 10.1374 4.74844 10.0516L2.57309 7.87568C2.20164 7.50426 1.90698 7.06332 1.70593 6.57803C1.50489 6.09274 1.4014 5.57261 1.40137 5.04732C1.40134 4.52204 1.50477 4.00189 1.70576 3.51658C1.90676 3.03127 2.20137 2.59029 2.57278 2.21884C2.94419 1.84739 3.38513 1.55273 3.87042 1.35168C4.35571 1.15064 4.87585 1.04715 5.40114 1.04712C5.92642 1.04709 6.44657 1.15052 6.93188 1.35152C7.41719 1.55251 7.85816 1.84712 8.22962 2.21853C8.6011 2.58997 8.89578 3.03094 9.09683 3.51627C9.29788 4.0016 9.40136 4.52178 9.40136 5.04711C9.40136 5.57243 9.29788 6.09261 9.09683 6.57794C8.89578 7.06327 8.6011 7.50424 8.22962 7.87568ZM7.57732 2.87145C7.00022 2.29434 6.2175 1.96952 5.40135 1.96952C4.58521 1.96952 3.80249 2.29373 3.22539 2.87083C2.64829 3.44793 2.32407 4.23065 2.32407 5.0468C2.32407 5.86294 2.64829 6.64566 3.22539 7.22276L5.40135 9.39811L7.57732 7.22338C7.86312 6.93765 8.08983 6.59843 8.24451 6.22507C8.39919 5.85171 8.4788 5.45154 8.4788 5.04741C8.4788 4.64328 8.39919 4.24311 8.24451 3.86976C8.08983 3.4964 7.86312 3.15717 7.57732 2.87145ZM5.40135 6.27816C5.23745 6.28187 5.07447 6.25279 4.92196 6.19264C4.76945 6.13249 4.6305 6.04248 4.51326 5.92789C4.39602 5.8133 4.30285 5.67644 4.23923 5.52535C4.17561 5.37426 4.14282 5.21198 4.14278 5.04804C4.14274 4.8841 4.17545 4.7218 4.239 4.57067C4.30254 4.41955 4.39564 4.28265 4.51282 4.168C4.63 4.05335 4.76891 3.96326 4.92139 3.90304C5.07387 3.84281 5.23684 3.81365 5.40074 3.81728C5.72231 3.82439 6.02832 3.95711 6.25326 4.18702C6.4782 4.41693 6.6042 4.72577 6.60428 5.04742C6.60436 5.36907 6.47852 5.67797 6.25369 5.908C6.02886 6.13802 5.72292 6.27089 5.40135 6.27816Z" fill="#BBBABC"/>
</g>
<defs>
<clipPath id="clip0_384_200468">
<rect width="9.846" height="9.846" fill="white" transform="translate(0.478516 0.73877)"/>
</clipPath>
</defs>
</svg>
