<svg width="14" height="16" viewBox="0 0 14 16" fill="none" xmlns="http://www.w3.org/2000/svg">
<path fill-rule="evenodd" clip-rule="evenodd" d="M6.66179 0.31543C3.48439 0.31543 0.838139 2.75253 0.577108 5.91922C0.436789 7.62158 0.962632 9.31192 2.0439 10.6343L5.61074 14.9964C6.23702 15.7624 7.40803 15.7624 8.03442 14.9964L11.6011 10.6343C12.6824 9.31192 13.2083 7.62158 13.0679 5.91922C12.807 2.75253 10.1606 0.31543 6.98327 0.31543H6.66179ZM6.82253 3.04401C4.76759 3.04401 3.10173 4.70987 3.10173 6.76481C3.10173 8.81978 4.76759 10.4856 6.82253 10.4856C8.8775 10.4856 10.5433 8.81978 10.5433 6.76481C10.5433 4.70987 8.8775 3.04401 6.82253 3.04401Z" fill="#BBBABC"/>
<path d="M4.65731 6.76481C4.65731 5.53185 5.65686 4.53233 6.88979 4.53233C8.12271 4.53233 9.12226 5.53185 9.12226 6.76481C9.12226 7.99773 8.12271 8.99729 6.88979 8.99729C5.65686 8.99729 4.65731 7.99773 4.65731 6.76481Z" fill="#BBBABC"/>
</svg>
