<svg width="13" height="17" viewBox="0 0 13 17" fill="none" xmlns="http://www.w3.org/2000/svg">
<path d="M6.40558 0.555664C3.0124 0.555664 0.251831 3.27903 0.251831 6.62598C0.251831 11.2465 5.57852 15.7398 5.80621 15.9293C5.97851 16.0732 6.19143 16.1452 6.40558 16.1452C6.61973 16.1452 6.83265 16.0732 7.00496 15.9293C7.23264 15.7398 12.5593 11.2465 12.5593 6.62598C12.5593 3.27903 9.79876 0.555664 6.40558 0.555664ZM6.40558 8.95001C5.04806 8.95001 3.94408 7.87433 3.94408 6.55163C3.94408 5.22892 5.04806 4.15324 6.40558 4.15324C7.7631 4.15324 8.86708 5.22892 8.86708 6.55163C8.86708 7.87433 7.7631 8.95001 6.40558 8.95001Z" fill="white"/>
</svg>
