<svg width="11" height="11" viewBox="0 0 11 11" fill="none" xmlns="http://www.w3.org/2000/svg">
<path d="M9.54435 10.5637C9.85603 10.5637 10.1229 10.4526 10.3451 10.2305C10.5672 10.0083 10.6781 9.74163 10.6777 9.43032V1.49666C10.6777 1.18498 10.5667 0.918072 10.3445 0.695929C10.1224 0.473787 9.85565 0.362904 9.54435 0.363282H6.14421C5.83124 0.363282 5.57752 0.616998 5.57752 0.929972C5.57752 1.24295 5.83124 1.49666 6.14421 1.49666H9.54435V9.43032H6.14421C5.83124 9.43032 5.57752 9.68404 5.57752 9.99701C5.57752 10.31 5.83124 10.5637 6.14421 10.5637H9.54435ZM2.89977 7.88595C3.12497 8.11115 3.49156 8.10629 3.7107 7.87519C3.92177 7.65261 3.91712 7.3024 3.70022 7.0855L2.6449 6.03018H6.7109C7.02388 6.03018 7.27759 5.77647 7.27759 5.46349C7.27759 5.15052 7.02388 4.8968 6.7109 4.8968H2.6449L3.70022 3.84148C3.91712 3.62458 3.92177 3.27438 3.7107 3.0518C3.49156 2.8207 3.12497 2.81584 2.89977 3.04103L0.972345 4.96846C0.698945 5.24186 0.698945 5.68513 0.972345 5.95853L2.89977 7.88595Z" fill="white" fill-opacity="0.5"/>
</svg>
