<svg width="58" height="32" viewBox="0 0 58 32" fill="none" xmlns="http://www.w3.org/2000/svg">
<path d="M12.6133 24.0001C10.3756 24.0001 8.35305 23.5022 6.54567 22.5062C4.7598 21.5103 3.35048 20.1354 2.31769 18.3817C1.30642 16.6063 0.800781 14.6253 0.800781 12.4385C0.800781 10.2518 1.30642 8.28156 2.31769 6.52784C3.35048 4.75247 4.77056 3.36681 6.57794 2.37087C8.38532 1.37492 10.4079 0.876953 12.6456 0.876953C14.3239 0.876953 15.873 1.15842 17.2931 1.72134C18.7132 2.28426 19.9181 3.107 20.9079 4.18954L20.5646 4.53497C18.8003 2.73795 16.5733 1.83943 13.8837 1.83943C12.0979 1.83943 9.88658 2.2508 8.42346 3.07354C6.96035 3.89627 5.22241 5.6126 4.38327 7.04156C3.56564 8.47052 3.15683 10.6632 3.15683 12.4385C3.15683 14.2139 3.56564 15.8161 4.38327 17.245C5.22241 18.674 6.37354 19.7998 7.83665 20.6226C9.29977 21.4453 10.9243 21.8567 12.7101 21.8567C15.4212 21.8567 17.6481 20.9473 19.391 19.1287L20.9079 20.6551C19.9181 21.7376 18.7024 22.5712 17.2608 23.1557C15.8408 23.7187 14.2916 24.0001 12.6133 24.0001Z" fill="white"/>
<path d="M18.819 25.0959C18.819 24.4578 18.9614 23.8687 19.2461 23.3287C19.521 22.7985 19.8744 22.3126 20.3064 21.8708C20.7482 21.4388 21.2342 21.051 21.7644 20.7073C22.3044 20.3637 22.8296 20.0643 23.3402 19.809L23.7672 18.4394C23.7182 18.4983 23.62 18.5965 23.4727 18.7339C23.3353 18.8714 23.188 19.0186 23.0309 19.1757C22.8738 19.323 22.7216 19.4654 22.5744 19.6028C22.4271 19.7304 22.324 19.8188 22.2651 19.8679C22.1473 19.9661 22.0049 20.079 21.838 20.2066C21.6711 20.3342 21.4895 20.457 21.2931 20.5748C21.1066 20.6828 20.9151 20.7761 20.7188 20.8546C20.5224 20.9233 20.3457 20.9577 20.1886 20.9577C19.9726 20.9577 19.8303 20.9086 19.7615 20.8104C19.7026 20.7024 19.6732 20.5502 19.6732 20.3539C19.6732 20.1968 19.683 20.0348 19.7026 19.8679C19.7321 19.701 19.7272 19.5341 19.6879 19.3672L20.2622 17.8061C20.3506 17.7178 20.4341 17.5803 20.5126 17.3938C20.601 17.2072 20.6844 17.0207 20.763 16.8342C20.8513 16.6476 20.9397 16.4856 21.028 16.3482C21.1262 16.2107 21.2293 16.142 21.3373 16.142C21.4551 16.142 21.5533 16.1764 21.6318 16.2451C21.7202 16.3138 21.7644 16.412 21.7644 16.5396C21.7644 16.6378 21.7497 16.7262 21.7202 16.8047C21.7006 16.8734 21.6662 16.9667 21.6171 17.0845C21.4895 17.3496 21.3618 17.6 21.2342 17.8356C21.1164 18.0712 21.0035 18.3068 20.8955 18.5425C20.7973 18.7781 20.7139 19.0236 20.6451 19.2788C20.5862 19.5243 20.5568 19.7992 20.5568 20.1035H20.6157C20.6157 20.1035 20.6451 20.0888 20.704 20.0593C20.763 20.0201 20.8268 19.9808 20.8955 19.9415C20.974 19.8924 21.0526 19.8434 21.1311 19.7943C21.2097 19.7452 21.2784 19.701 21.3373 19.6617C21.8773 19.3083 22.3535 18.8959 22.7658 18.4247C23.1782 17.9436 23.5856 17.4478 23.9881 16.9372C24.0274 16.8783 24.0618 16.8342 24.0912 16.8047C24.1207 16.7753 24.1452 16.7556 24.1649 16.7458C24.1845 16.7262 24.209 16.7163 24.2385 16.7163C24.268 16.7163 24.3121 16.7163 24.371 16.7163C24.5085 16.7163 24.6165 16.7458 24.695 16.8047C24.7834 16.8538 24.8374 16.9716 24.857 17.1581C24.8668 17.2858 24.857 17.4429 24.8276 17.6294C24.7981 17.8061 24.7589 17.9829 24.7098 18.1596C24.6607 18.3363 24.6067 18.513 24.5478 18.6897C24.4987 18.8567 24.4545 18.9892 24.4152 19.0874V19.3083C24.4349 19.2985 24.479 19.2837 24.5478 19.2641C24.6263 19.2445 24.6803 19.2297 24.7098 19.2199C24.7687 19.2101 24.9307 19.1561 25.1957 19.0579C25.4608 18.9597 25.7456 18.8567 26.0499 18.7487C26.3641 18.6308 26.6537 18.5228 26.9188 18.4247C27.1839 18.3265 27.3508 18.2627 27.4195 18.2332H27.449C27.5177 18.2332 27.5766 18.2578 27.6257 18.3068C27.6846 18.3559 27.714 18.4148 27.714 18.4836C27.714 18.5523 27.6895 18.6112 27.6404 18.6603C27.6011 18.7094 27.552 18.7536 27.4931 18.7928C27.4342 18.8223 27.3704 18.8517 27.3017 18.8812C27.233 18.9106 27.1741 18.9352 27.125 18.9548C27.0562 18.9941 26.9581 19.0432 26.8304 19.1021C26.7028 19.1512 26.5555 19.2101 26.3886 19.2788C26.2315 19.3377 26.0646 19.4065 25.8879 19.485C25.7112 19.5635 25.5394 19.6372 25.3725 19.7059C24.9699 19.8728 24.533 20.0495 24.0618 20.2361L22.7658 25.1254C22.7069 25.361 22.594 25.6065 22.4271 25.8617C22.27 26.117 22.0835 26.3526 21.8675 26.5686C21.6515 26.7846 21.4109 26.9564 21.1459 27.0841C20.8906 27.2215 20.6304 27.2902 20.3653 27.2902C20.0904 27.2902 19.8548 27.2166 19.6584 27.0693C19.4621 26.9319 19.3001 26.7503 19.1725 26.5244C19.0448 26.3085 18.9565 26.0728 18.9074 25.8176C18.8485 25.5623 18.819 25.3218 18.819 25.0959ZM19.6143 25.0959C19.6143 25.2236 19.6241 25.3659 19.6437 25.523C19.6732 25.6801 19.7223 25.8323 19.791 25.9796C19.8597 26.1268 19.9432 26.2495 20.0413 26.3477C20.1493 26.4459 20.2868 26.495 20.4537 26.495C20.6697 26.495 20.866 26.4263 21.0428 26.2888C21.2293 26.1612 21.3913 25.9992 21.5288 25.8028C21.676 25.6163 21.7987 25.415 21.8969 25.199C21.9951 24.983 22.0736 24.7916 22.1326 24.6247C22.162 24.5069 22.2062 24.34 22.2651 24.124C22.324 23.9178 22.378 23.7116 22.4271 23.5054C22.486 23.2993 22.5351 23.1127 22.5744 22.9458C22.6136 22.7887 22.6333 22.6955 22.6333 22.666V22.6071L23.0604 20.7515C22.6676 20.8791 22.2651 21.0951 21.8527 21.3995C21.4502 21.7038 21.082 22.0573 20.7482 22.4598C20.4144 22.8624 20.1395 23.2944 19.9235 23.7558C19.7173 24.2172 19.6143 24.664 19.6143 25.0959ZM26.5359 19.6323C26.8108 19.4261 27.0121 19.2248 27.1397 19.0285C27.2771 18.8321 27.3851 18.6357 27.4637 18.4394C27.5422 18.243 27.606 18.0369 27.6551 17.8209C27.7042 17.595 27.7828 17.3496 27.8908 17.0845C27.8515 17.0158 27.827 16.9569 27.8171 16.9078C27.8171 16.8489 27.8171 16.7802 27.8171 16.7016C27.8171 16.6231 27.827 16.5298 27.8466 16.4218C27.876 16.3138 27.9153 16.2156 27.9644 16.1273C28.0135 16.0291 28.0724 15.9456 28.1411 15.8769C28.2099 15.8082 28.2933 15.7738 28.3915 15.7738C28.3817 15.8131 28.4357 15.8573 28.5535 15.9064C28.6811 15.9555 28.8333 16.0095 29.01 16.0684C29.1966 16.1273 29.3929 16.1911 29.5991 16.2598C29.8053 16.3285 29.9869 16.4022 30.144 16.4807C30.3207 16.5789 30.4434 16.6869 30.5122 16.8047C30.5907 16.9127 30.63 17.0698 30.63 17.276C30.63 17.4625 30.6054 17.6736 30.5563 17.9092C30.5171 18.1449 30.4729 18.3854 30.4238 18.6308C30.3845 18.8665 30.3403 19.107 30.2913 19.3525C30.252 19.5881 30.2323 19.8041 30.2323 20.0004V20.3833C30.2225 20.4717 30.2422 20.5208 30.2913 20.5306C30.3502 20.5306 30.4042 20.5306 30.4532 20.5306C30.5711 20.5306 30.6791 20.511 30.7772 20.4717C30.8754 20.4324 30.9736 20.3882 31.0718 20.3392C31.1798 20.2901 31.2829 20.2459 31.381 20.2066C31.4792 20.1575 31.5823 20.1232 31.6903 20.1035L32.9863 19.3083C33.0255 19.2395 33.0746 19.1856 33.1335 19.1463C33.2023 19.0972 33.2661 19.053 33.325 19.0137C33.4232 18.9548 33.541 18.8714 33.6784 18.7634C33.7472 18.7045 33.8208 18.6456 33.8993 18.5867H34.3411C34.3706 18.5867 34.3902 18.6161 34.4001 18.675C34.4099 18.7339 34.4148 18.7781 34.4148 18.8076C34.4148 18.9254 34.3313 19.0726 34.1644 19.2494C33.9975 19.4261 33.7815 19.6077 33.5164 19.7943C33.2514 19.9808 32.9568 20.1673 32.6328 20.3539C32.3088 20.5306 31.9898 20.6926 31.6756 20.8399C31.3712 20.9871 31.0865 21.105 30.8214 21.1933C30.5662 21.2817 30.3698 21.3259 30.2323 21.3259C30.0556 21.3259 29.9133 21.2817 29.8053 21.1933C29.6973 21.105 29.6089 20.997 29.5402 20.8693C29.4715 20.7417 29.4224 20.6042 29.3929 20.457C29.3733 20.2999 29.3635 20.1477 29.3635 20.0004C29.3635 19.8924 29.3978 19.7403 29.4665 19.5439C29.5353 19.3475 29.6138 19.1463 29.7022 18.9401C29.7905 18.7339 29.8691 18.5327 29.9378 18.3363C30.0065 18.1399 30.0409 17.9829 30.0409 17.865C30.0409 17.8552 29.9673 17.816 29.82 17.7472C29.6825 17.6785 29.5304 17.6049 29.3635 17.5263C29.1966 17.438 29.0395 17.3643 28.8922 17.3054C28.7547 17.2367 28.686 17.1974 28.686 17.1876C28.47 17.4134 28.3178 17.654 28.2295 17.9092C28.1509 18.1645 28.0675 18.4296 27.9791 18.7045C27.9006 18.9794 27.7779 19.2543 27.611 19.5292C27.4539 19.8041 27.1839 20.0741 26.801 20.3392C26.7912 20.3392 26.7715 20.3342 26.7421 20.3244C26.7028 20.3146 26.6684 20.2901 26.639 20.2508C26.5997 20.2017 26.5703 20.133 26.5506 20.0446C26.531 19.9464 26.5261 19.809 26.5359 19.6323ZM33.8699 20.943C33.8699 20.9135 33.8699 20.8399 33.8699 20.7221C33.8699 20.6042 33.8699 20.5257 33.8699 20.4864C33.703 19.8974 33.6784 19.3181 33.7962 18.7487C33.9239 18.1792 34.1448 17.6687 34.459 17.2171C34.783 16.7556 35.1904 16.3727 35.6813 16.0684C36.182 15.7542 36.7269 15.5627 37.316 15.494H37.5811C37.7971 15.494 37.9738 15.5431 38.1112 15.6413C38.2585 15.7296 38.3714 15.8475 38.4499 15.9947C38.5383 16.142 38.5972 16.3089 38.6267 16.4954C38.6659 16.682 38.6856 16.8685 38.6856 17.0551C38.6856 17.3103 38.6561 17.5607 38.5972 17.8061C38.5481 18.0418 38.4892 18.2823 38.4205 18.5278C38.3616 18.7732 38.3027 19.0186 38.2438 19.2641C38.1947 19.4997 38.1701 19.7501 38.1701 20.0152V20.1035C38.18 20.1232 38.1898 20.1821 38.1996 20.2802C38.2192 20.3686 38.234 20.4226 38.2438 20.4422C38.2634 20.4422 38.3125 20.4472 38.391 20.457C38.4696 20.457 38.5187 20.457 38.5383 20.457C38.6365 20.457 38.7298 20.457 38.8181 20.457C38.9163 20.4472 39.0145 20.4226 39.1127 20.3833L41.9108 19.0874C41.9206 19.0874 41.9353 19.0874 41.9549 19.0874C41.9844 19.0776 42.004 19.0726 42.0139 19.0726C42.112 19.0726 42.1906 19.1021 42.2495 19.161C42.3182 19.2199 42.3526 19.2985 42.3526 19.3966C42.3526 19.4457 42.3477 19.4948 42.3378 19.5439C42.3378 19.5832 42.3133 19.6224 42.2642 19.6617C42.1955 19.7108 42.0678 19.7795 41.8813 19.8679C41.7046 19.9563 41.5131 20.0544 41.307 20.1624C41.1008 20.2704 40.9044 20.3735 40.7179 20.4717C40.5412 20.5699 40.4135 20.6337 40.335 20.6631C40.1975 20.7417 40.0454 20.8153 39.8785 20.8841C39.7115 20.943 39.5397 21.0019 39.363 21.0608C39.1863 21.1197 39.0096 21.1688 38.8328 21.208C38.6659 21.2375 38.5138 21.2522 38.3763 21.2522C38.1603 21.2522 37.9836 21.2179 37.8461 21.1491C37.7087 21.0706 37.6056 20.9724 37.5369 20.8546C37.4682 20.727 37.4191 20.5797 37.3896 20.4128C37.37 20.2361 37.37 20.0544 37.3896 19.8679C37.1933 20.025 36.9822 20.1919 36.7564 20.3686C36.5305 20.5453 36.2949 20.7073 36.0495 20.8546C35.804 21.0019 35.5537 21.1295 35.2984 21.2375C35.0431 21.3455 34.783 21.3995 34.5179 21.3995C34.3706 21.3995 34.2381 21.3651 34.1202 21.2964C34.0024 21.2179 33.919 21.1 33.8699 20.943ZM34.6651 20.6337C34.8909 20.6337 35.1413 20.5699 35.4162 20.4422C35.6911 20.3048 35.9611 20.1379 36.2262 19.9415C36.4913 19.7452 36.7318 19.539 36.9478 19.323C37.1638 19.0972 37.3307 18.8959 37.4485 18.7192C37.4583 18.4247 37.4976 18.1449 37.5663 17.8798C37.6449 17.6049 37.6841 17.3251 37.6841 17.0403C37.6841 17.0207 37.6792 16.9912 37.6694 16.952C37.6694 16.9127 37.6694 16.8832 37.6694 16.8636C37.5418 16.7556 37.4338 16.6918 37.3454 16.6722C37.2571 16.6525 37.1393 16.6427 36.992 16.6427C36.9723 16.6427 36.9282 16.6427 36.8594 16.6427C36.8005 16.6427 36.7613 16.6476 36.7416 16.6574C36.6827 16.7065 36.5845 16.7998 36.4471 16.9372C36.3096 17.0649 36.1624 17.2072 36.0053 17.3643C35.858 17.5214 35.7157 17.6687 35.5782 17.8061C35.4506 17.9436 35.3622 18.0369 35.3131 18.0859C35.3033 18.0859 35.2837 18.1056 35.2542 18.1449C35.2248 18.1743 35.1904 18.2136 35.1511 18.2627C35.1217 18.3118 35.0922 18.3608 35.0628 18.4099C35.0431 18.4492 35.0284 18.4836 35.0186 18.513L34.6651 20.2361V20.6337ZM41.7046 21.0902L42.2053 18.1449V17.7325L42.4998 15.7738C42.5293 15.7346 42.5833 15.7149 42.6618 15.7149C42.7404 15.7051 42.7944 15.7002 42.8238 15.7002C42.9024 15.7002 42.9907 15.7296 43.0889 15.7885C43.1969 15.8376 43.2509 15.9064 43.2509 15.9947V16.9962C43.2902 16.9667 43.3589 16.9078 43.4571 16.8194C43.5553 16.7311 43.6584 16.6378 43.7664 16.5396C43.8842 16.4414 43.9922 16.3482 44.0903 16.2598C44.1885 16.1714 44.2523 16.1076 44.2818 16.0684C44.3898 15.9702 44.5174 15.8867 44.6647 15.818C44.8218 15.7493 44.969 15.7149 45.1065 15.7149C45.3912 15.7149 45.6121 15.8033 45.7692 15.98C45.9361 16.1567 46.0196 16.3825 46.0196 16.6574C46.0196 16.6771 46.0147 16.6918 46.0048 16.7016C46.0048 16.7016 46.0048 16.7114 46.0048 16.7311V16.79L45.4452 19.3083V20.5012C45.7496 20.5012 46.0637 20.4422 46.3877 20.3244C46.7215 20.1968 47.0406 20.0397 47.345 19.8532C47.6493 19.6666 47.9341 19.4555 48.1991 19.2199C48.4642 18.9745 48.6949 18.7388 48.8913 18.513H48.9502C49.0189 18.513 49.0729 18.5376 49.1122 18.5867C49.1613 18.6259 49.1858 18.6799 49.1858 18.7487C49.1858 18.9646 49.1122 19.1806 48.9649 19.3966C48.8275 19.6028 48.6459 19.7992 48.42 19.9857C48.2041 20.1723 47.9488 20.349 47.6542 20.5159C47.3695 20.6828 47.0848 20.8251 46.8001 20.943C46.5252 21.0608 46.2552 21.154 45.9901 21.2228C45.725 21.2915 45.4992 21.3259 45.3127 21.3259C45.1261 21.3259 44.9789 21.2915 44.8709 21.2228C44.7629 21.154 44.6794 21.0657 44.6205 20.9577C44.5714 20.8399 44.5371 20.7122 44.5174 20.5748C44.5076 20.4373 44.5027 20.2901 44.5027 20.133V19.9415L45.077 17.0845V16.5985C44.8414 16.5985 44.6058 16.7016 44.3702 16.9078C44.1443 17.114 43.9382 17.3643 43.7516 17.6589C43.5749 17.9534 43.4178 18.2528 43.2804 18.5572C43.1527 18.8616 43.0595 19.1119 43.0006 19.3083C42.9809 19.377 42.9515 19.4997 42.9122 19.6764C42.8729 19.8532 42.8336 20.0397 42.7944 20.2361C42.7649 20.4324 42.7355 20.619 42.706 20.7957C42.6766 20.9724 42.6569 21.1 42.6471 21.1786C42.6569 21.2375 42.6373 21.2817 42.5882 21.3111C42.5489 21.3406 42.4998 21.3651 42.4409 21.3848C42.382 21.3946 42.3182 21.3995 42.2495 21.3995C42.1906 21.3995 42.1415 21.3995 42.1022 21.3995C42.0139 21.3995 41.9255 21.3848 41.8371 21.3553C41.7488 21.3259 41.7046 21.2522 41.7046 21.1344V21.0902ZM48.5968 20.2361C48.5968 20.2263 48.6017 20.1919 48.6115 20.133C48.6213 20.0741 48.6311 20.0152 48.641 19.9563C48.6508 19.8875 48.6606 19.8286 48.6704 19.7795C48.6802 19.7206 48.6851 19.6814 48.6851 19.6617V19.6028V19.5145L48.8913 18.5867C49.0582 18.2332 49.23 17.8945 49.4067 17.5705C49.5933 17.2465 49.8044 16.9618 50.04 16.7163C50.2756 16.4709 50.5456 16.2745 50.85 16.1273C51.1642 15.98 51.5421 15.9064 51.984 15.9064C52.0723 15.9064 52.1803 15.9358 52.3079 15.9947C52.4454 16.0438 52.5779 16.1076 52.7056 16.1862C52.843 16.2647 52.9657 16.3482 53.0737 16.4365C53.1916 16.5151 53.2799 16.5887 53.3388 16.6574C53.6432 16.6083 53.8641 16.5838 54.0015 16.5838C54.139 16.574 54.2568 16.5691 54.355 16.5691C54.4532 16.5593 54.5562 16.5396 54.6642 16.5102C54.7821 16.4807 54.9588 16.4169 55.1944 16.3187C55.3613 16.2696 55.5233 16.2451 55.6804 16.2451C55.7491 16.2451 55.8129 16.2745 55.8719 16.3334C55.9406 16.3924 55.9749 16.4611 55.9749 16.5396C55.9749 16.6378 55.9406 16.7262 55.8719 16.8047C55.8031 16.8832 55.7197 16.9323 55.6215 16.952L53.7806 17.3643L53.6186 17.438C53.6088 17.9681 53.491 18.4738 53.2652 18.9548C53.0394 19.4359 52.7399 19.8581 52.3669 20.2213C51.9938 20.5846 51.5618 20.8742 51.0709 21.0902C50.58 21.2964 50.0695 21.3995 49.5393 21.3995C49.5 21.3995 49.4362 21.3946 49.3478 21.3848C49.2595 21.3848 49.2006 21.3848 49.1711 21.3848C48.9551 21.2964 48.8029 21.1344 48.7146 20.8988C48.636 20.6631 48.5968 20.4422 48.5968 20.2361ZM49.5393 20.5306C49.5491 20.5797 49.5884 20.6042 49.6571 20.6042C49.7258 20.6042 49.7749 20.6042 49.8044 20.6042C50.1578 20.6042 50.5211 20.5159 50.8942 20.3392C51.2672 20.1526 51.6011 19.917 51.8956 19.6323C52.1999 19.3377 52.4454 19.0088 52.6319 18.6456C52.8283 18.2725 52.9265 17.8994 52.9265 17.5263C52.6123 17.5263 52.2981 17.5018 51.984 17.4527C51.6698 17.3938 51.3654 17.3643 51.0709 17.3643H51.0562L49.8338 18.6603C49.7651 18.729 49.7111 18.8223 49.6718 18.9401C49.6326 19.0579 49.6031 19.1856 49.5835 19.323C49.5638 19.4605 49.5491 19.5979 49.5393 19.7354C49.5295 19.8728 49.5246 19.9955 49.5246 20.1035C49.5246 20.133 49.5246 20.2017 49.5246 20.3097C49.5246 20.4177 49.5295 20.4913 49.5393 20.5306Z" fill="white"/>
<g filter="url(#filter0_f_3562_3013)">
<path d="M55.8008 16.4095L54.7959 14.5504L55.3354 12.4775L55.357 12.0025L55.2491 10.2319L53.3715 8.84993L53.501 10.8365L52.8752 8.26692L50.8897 6.53949L50.8034 9.38975L50.3286 7.20887L50.3933 6.28038L48.1705 5.07118L48.9258 6.90657L47.3936 5.04959L44.8038 5.0064L45.5592 6.02127L45.3649 6.2156L44.2643 4.89844L42.3868 5.26552L43.3363 6.38835L43.1205 6.47472L42.4515 5.71897L42.0199 6.62587L42.2573 6.58268L42.4299 7.38162L43.7464 7.51117L44.8254 6.8418L45.1923 6.90657L43.8543 7.66232L45.9261 9.67046L49.3143 9.2602L47.1562 9.82161L48.4726 11.2899L49.9833 11.182L48.1489 11.765L50.3933 14.8312L53.7168 13.9243L53.2205 14.7016L51.7098 14.7664L52.0335 15.0255L54.7311 15.4142L55.1813 16.4191L55.8008 16.4095Z" fill="#FE3C72"/>
</g>
<path d="M55.8008 16.4095L54.7959 14.5504L55.3354 12.4775L55.357 12.0025L55.2491 10.2319L53.3715 8.84993L53.501 10.8365L52.8752 8.26692L50.8897 6.53949L50.8034 9.38975L50.3286 7.20887L50.3933 6.28038L48.1705 5.07118L48.9258 6.90657L47.3936 5.04959L44.8038 5.0064L45.5592 6.02127L45.3649 6.2156L44.2643 4.89844L42.3868 5.26552L43.3363 6.38835L43.1205 6.47472L42.4515 5.71897L42.0199 6.62587L42.2573 6.58268L42.4299 7.38162L43.7464 7.51117L44.8254 6.8418L45.1923 6.90657L43.8543 7.66232L45.9261 9.67046L49.3143 9.2602L47.1562 9.82161L48.4726 11.2899L49.9833 11.182L48.1489 11.765L50.3933 14.8312L53.7168 13.9243L53.2205 14.7016L51.7098 14.7664L52.0335 15.0255L54.7311 15.4142L55.1813 16.4191L55.8008 16.4095Z" fill="white"/>
<path d="M55.5654 16.4153C53.3992 11.5795 48.8362 6.5554 43.2283 6.39258C48.7907 6.49784 53.2042 11.7372 55.376 16.4153H55.5654Z" fill="black"/>
<defs>
<filter id="filter0_f_3562_3013" x="40.5798" y="3.45821" width="16.6612" height="14.401" filterUnits="userSpaceOnUse" color-interpolation-filters="sRGB">
<feFlood flood-opacity="0" result="BackgroundImageFix"/>
<feBlend mode="normal" in="SourceGraphic" in2="BackgroundImageFix" result="shape"/>
<feGaussianBlur stdDeviation="0.720115" result="effect1_foregroundBlur_3562_3013"/>
</filter>
</defs>
</svg>
