<svg width="39" height="39" viewBox="0 0 39 39" fill="none" xmlns="http://www.w3.org/2000/svg">
<g clip-path="url(#clip0_384_200999)">
<path d="M29.2306 26.0908L19.3718 35.9959L9.51289 26.0908C7.56311 24.1318 6.23532 21.6359 5.69741 18.9187C5.15951 16.2016 5.43565 13.3851 6.49093 10.8256C7.5462 8.26614 9.3332 6.0785 11.626 4.53936C13.9187 3.00022 16.6143 2.17871 19.3718 2.17871C22.1292 2.17871 24.8248 3.00022 27.1175 4.53936C29.4103 6.0785 31.1973 8.26614 32.2526 10.8256C33.3079 13.3851 33.584 16.2016 33.0461 18.9187C32.5082 21.6359 31.1804 24.1318 29.2306 26.0908Z" fill="#FFAD32"/>
<rect opacity="0.3" x="8.98889" y="5.44141" width="20.765" height="20.765" rx="10.3825" fill="white"/>
<g clip-path="url(#clip1_384_200999)">
<path d="M24.2296 10.4102V21.5342H23.1172V17.0846H21.4486V13.1912C21.4486 12.4536 21.7416 11.7462 22.2632 11.2247C22.7847 10.7032 23.4921 10.4102 24.2296 10.4102ZM17.5552 17.029V21.5342H16.4428V17.029C15.8147 16.9006 15.2503 16.5592 14.8449 16.0626C14.4395 15.566 14.218 14.9446 14.218 14.3036V10.9664H15.3304V14.8598H16.4428V10.9664H17.5552V14.8598H18.6676V10.9664H19.78V14.3036C19.7799 14.9446 19.5585 15.566 19.1531 16.0626C18.7477 16.5592 18.1832 16.9006 17.5552 17.029Z" fill="white"/>
</g>
</g>
<defs>
<clipPath id="clip0_384_200999">
<rect width="38.5635" height="38.5635" fill="white" transform="translate(0.0908813 0.398438)"/>
</clipPath>
<clipPath id="clip1_384_200999">
<rect width="13.3489" height="13.3489" fill="white" transform="translate(12.5497 9.29785)"/>
</clipPath>
</defs>
</svg>
