<svg width="14" height="14" viewBox="0 0 14 14" fill="none" xmlns="http://www.w3.org/2000/svg">
<path d="M3.00928 11.1993C2.44349 11.1993 1.90088 10.9627 1.50081 10.5416C1.10073 10.1205 0.875977 9.54926 0.875977 8.95367V3.08038C0.875977 2.4848 1.10073 1.9136 1.50081 1.49246C1.90088 1.07131 2.44349 0.834717 3.00928 0.834717H11.8707C12.1508 0.834717 12.4282 0.892803 12.6871 1.00566C12.9459 1.11851 13.1811 1.28393 13.3791 1.49246C13.5772 1.70099 13.7344 1.94855 13.8416 2.221C13.9488 2.49346 14.004 2.78548 14.004 3.08038V8.95367C14.004 9.24857 13.9488 9.54059 13.8416 9.81305C13.7344 10.0855 13.5772 10.3331 13.3791 10.5416C13.1811 10.7501 12.9459 10.9155 12.6871 11.0284C12.4282 11.1413 12.1508 11.1993 11.8707 11.1993H8.10425L4.81438 13.7905C4.69247 13.8865 4.54759 13.945 4.39593 13.9593C4.24427 13.9736 4.09182 13.9432 3.95565 13.8715C3.81947 13.7997 3.70494 13.6896 3.62486 13.5532C3.54478 13.4169 3.50232 13.2598 3.50223 13.0995V11.1993H3.00993H3.00928ZM7.77737 10.1629H11.8707C12.1753 10.1629 12.4675 10.0355 12.6829 9.80871C12.8984 9.58194 13.0194 9.27437 13.0194 8.95367V3.08038C13.0194 2.75968 12.8984 2.45212 12.6829 2.22535C12.4675 1.99858 12.1753 1.87118 11.8707 1.87118H3.00928C2.70462 1.87118 2.41245 1.99858 2.19702 2.22535C1.9816 2.45212 1.86058 2.75968 1.86058 3.08038V8.95367C1.86058 9.62115 2.37519 10.1629 3.00928 10.1629H4.48552V12.754L7.77737 10.1629Z" fill="white"/>
</svg>
