<svg width="16" height="16" viewBox="0 0 16 16" fill="none" xmlns="http://www.w3.org/2000/svg">
<path d="M1.98505 13.1758H3.6939C4.58251 13.1758 5.40275 12.834 6.01794 12.2188L13.0584 5.17835C14.0837 4.15304 14.0837 2.44419 13.0584 1.41888C12.5799 0.872049 11.8964 0.598633 11.2128 0.598633C10.5293 0.598633 9.84576 0.872049 9.29893 1.35053L2.25847 8.45934C1.64328 9.07453 1.30151 9.96313 1.30151 10.8517V12.5606C1.30151 12.9024 1.64328 13.1758 1.98505 13.1758ZM2.66859 10.7834C2.66859 10.2365 2.87366 9.75807 3.21543 9.4163L8.82045 3.81127L9.77741 4.69987C9.91412 4.83658 10.1192 4.90494 10.2559 4.90494C10.4609 4.90494 10.5977 4.83658 10.7344 4.69987C11.0078 4.42646 11.0078 4.01633 10.7344 3.74292L9.77741 2.78596L10.2559 2.30748C10.5293 2.10242 10.8711 1.96571 11.2128 1.96571C11.5546 1.96571 11.8964 2.10242 12.1014 2.37584C12.5799 2.85431 12.5799 3.74292 12.1014 4.2214L5.06098 11.2619C4.71921 11.6036 4.17238 11.8087 3.6939 11.8087H2.66859V10.7834Z" fill="#FE3C72"/>
<path d="M14.4267 14.2695H0.755928C0.345804 14.2695 0.0723877 14.5429 0.0723877 14.9531C0.0723877 15.3632 0.345804 15.6366 0.755928 15.6366H14.4267C14.8369 15.6366 15.1103 15.3632 15.1103 14.9531C15.1103 14.5429 14.8369 14.2695 14.4267 14.2695Z" fill="#FE3C72"/>
</svg>
