<svg width="17" height="17" viewBox="0 0 17 17" fill="none" xmlns="http://www.w3.org/2000/svg">
<path d="M8.54738 0.348877C4.01822 0.348877 0.350586 4.02472 0.350586 8.55388C0.350586 13.083 4.01822 16.7589 8.54738 16.7589C13.0847 16.7589 16.7606 13.083 16.7606 8.55388C16.7606 4.02472 13.0847 0.348877 8.54738 0.348877ZM5.68384 5.27188C6.36485 5.27188 6.91459 5.82161 6.91459 6.50263C6.91459 7.18364 6.36485 7.73338 5.68384 7.73338C5.00282 7.73338 4.45309 7.18364 4.45309 6.50263C4.45309 5.82161 5.00282 5.27188 5.68384 5.27188ZM8.55559 13.4769C6.68485 13.4769 5.09308 12.1148 4.45309 10.1949H12.6581C12.0181 12.1148 10.4263 13.4769 8.55559 13.4769ZM11.4273 7.73338C10.7463 7.73338 10.1966 7.18364 10.1966 6.50263C10.1966 5.82161 10.7463 5.27188 11.4273 5.27188C12.1084 5.27188 12.6581 5.82161 12.6581 6.50263C12.6581 7.18364 12.1084 7.73338 11.4273 7.73338Z" fill="white"/>
</svg>
