<svg width="13" height="11" viewBox="0 0 13 11" fill="none" xmlns="http://www.w3.org/2000/svg">
<path fill-rule="evenodd" clip-rule="evenodd" d="M11.3665 5.7742C11.516 5.51842 11.516 5.20191 11.3665 4.94614L9.2787 1.37413C9.13157 1.1224 8.8619 0.967666 8.57033 0.967666L4.36235 0.967666C4.07078 0.967666 3.80111 1.1224 3.65398 1.37413L1.56622 4.94614C1.41672 5.20191 1.41672 5.51842 1.56622 5.7742L3.65398 9.3462C3.80111 9.59793 4.07078 9.75267 4.36235 9.75267L8.57033 9.75267C8.8619 9.75267 9.13157 9.59793 9.2787 9.3462L11.3665 5.7742ZM8.9719 10.4525C9.26347 10.4525 9.53314 10.2978 9.68028 10.046L12.1771 5.7742C12.3266 5.51842 12.3266 5.20191 12.1771 4.94614L9.68028 0.674291C9.53314 0.422561 9.26347 0.267822 8.9719 0.267822L3.96078 0.267822C3.66921 0.267822 3.39954 0.422561 3.2524 0.674291L0.755605 4.94614C0.606108 5.20191 0.606108 5.51842 0.755605 5.7742L3.2524 10.046C3.39954 10.2978 3.66921 10.4525 3.96078 10.4525L8.9719 10.4525Z" fill="white"/>
<path fill-rule="evenodd" clip-rule="evenodd" d="M6.90297 2.71384C6.90297 2.51282 6.74001 2.34985 6.53898 2.34985C6.33795 2.34985 6.17499 2.51282 6.17499 2.71384V6.82994C6.17499 7.03096 6.33795 7.19393 6.53898 7.19393C6.74001 7.19393 6.90297 7.03096 6.90297 6.82994V2.71384ZM6.90297 8.00641C6.90297 7.80539 6.74001 7.64242 6.53898 7.64242C6.33795 7.64242 6.17499 7.80539 6.17499 8.00641C6.17499 8.20744 6.33795 8.3704 6.53898 8.3704C6.74001 8.3704 6.90297 8.20744 6.90297 8.00641Z" fill="white"/>
</svg>
