<svg width="14" height="14" viewBox="0 0 14 14" fill="none" xmlns="http://www.w3.org/2000/svg">
<path d="M7.97904 0.451172V1.76329C10.8306 2.11405 12.8508 4.70581 12.5 7.55739C12.2012 9.92179 10.3434 11.799 7.97904 12.0783V13.3775C11.5516 13.0202 14.1499 9.85034 13.7926 6.27775C13.5003 3.19233 11.0515 0.756466 7.97904 0.451172ZM6.67992 0.470659C5.41327 0.594076 4.20508 1.08125 3.21775 1.8997L4.14662 2.86105C4.87413 2.27644 5.75104 1.8997 6.67992 1.76978V0.470659ZM2.30187 2.81558C1.48969 3.80119 0.989881 5.00661 0.866333 6.27775H2.16546C2.28887 5.35537 2.65263 4.47846 3.23074 3.74445L2.30187 2.81558ZM0.872829 7.57687C1.00274 8.85001 1.5029 10.0517 2.30836 11.039L3.23074 10.1102C2.65713 9.3759 2.29144 8.50094 2.17195 7.57687H0.872829ZM4.14662 11.065L3.21775 11.9549C4.20169 12.7751 5.4063 13.2859 6.67992 13.4229V12.1238C5.75585 12.0043 4.88089 11.6386 4.14662 11.065ZM7.65426 3.6795V7.0897L10.5773 8.82403L10.0901 9.62299L6.67992 7.57687V3.6795H7.65426Z" fill="#FE366E"/>
</svg>
