<svg width="20" height="24" viewBox="0 0 20 24" fill="none" xmlns="http://www.w3.org/2000/svg">
<path d="M16.4591 16.817L9.78682 23.5205L3.11457 16.817C1.79501 15.4911 0.896389 13.802 0.532348 11.963C0.168307 10.1241 0.355195 8.21804 1.06938 6.48583C1.78356 4.75362 2.99297 3.27307 4.54466 2.23142C6.09635 1.18977 7.92063 0.633789 9.78682 0.633789C11.653 0.633789 13.4773 1.18977 15.029 2.23142C16.5807 3.27307 17.7901 4.75362 18.5043 6.48583C19.2185 8.21804 19.4053 10.1241 19.0413 11.963C18.6773 13.802 17.7786 15.4911 16.4591 16.817Z" fill="#FE3C72"/>
<rect opacity="0.3" x="2.75977" y="2.8418" width="14.0532" height="14.0532" rx="7.02662" fill="white"/>
<g clip-path="url(#clip0_384_201521)">
<path d="M13.0761 6.20508V13.7336H12.3232V10.7222H11.194V8.08721C11.194 7.58804 11.3923 7.10931 11.7452 6.75634C12.0982 6.40337 12.5769 6.20508 13.0761 6.20508ZM8.55897 10.6845V13.7336H7.80612V10.6845C7.38106 10.5976 6.99906 10.3666 6.7247 10.0305C6.45034 9.69443 6.30047 9.27391 6.30042 8.84006V6.5815H7.05327V9.21649H7.80612V6.5815H8.55897V9.21649H9.31182V6.5815H10.0647V8.84006C10.0646 9.27391 9.91475 9.69443 9.64039 10.0305C9.36603 10.3666 8.98403 10.5976 8.55897 10.6845Z" fill="white"/>
</g>
<defs>
<clipPath id="clip0_384_201521">
<rect width="9.03423" height="9.03423" fill="white" transform="translate(5.16992 5.45215)"/>
</clipPath>
</defs>
</svg>
