<svg width="10" height="10" viewBox="0 0 10 10" fill="none" xmlns="http://www.w3.org/2000/svg">
<path d="M0.998147 2.95299C1.63768 1.60373 3.03253 0.673828 4.64481 0.673828C5.18356 0.673828 5.71703 0.779942 6.21477 0.986112C6.71251 1.19228 7.16477 1.49447 7.54572 1.87542C7.92667 2.25637 8.22886 2.70863 8.43503 3.20637C8.6412 3.70411 8.74731 4.23758 8.74731 4.77633C8.74731 5.31508 8.6412 5.84855 8.43503 6.34629C8.22886 6.84402 7.92667 7.29628 7.54572 7.67723C7.16477 8.05819 6.71251 8.36037 6.21477 8.56654C5.71703 8.77271 5.18356 8.87883 4.64481 8.87883C3.55676 8.87883 2.51328 8.4466 1.74391 7.67723C0.974541 6.90786 0.542314 6.00708 0.542314 5.18658M0.542314 0.673828V3.40883H3.27731" stroke="white" stroke-width="0.8205" stroke-linecap="round" stroke-linejoin="round"/>
</svg>
