<svg width="13" height="14" viewBox="0 0 13 14" fill="none" xmlns="http://www.w3.org/2000/svg">
<path d="M12.6163 13.0642C12.3343 13.3462 11.8772 13.3462 11.5952 13.0642L7.51097 8.97998C7.14631 9.27171 6.72694 9.50267 6.25287 9.67284C5.77881 9.84302 5.27435 9.92811 4.73951 9.92811C3.41455 9.92811 2.29332 9.46912 1.37582 8.55113C0.45832 7.63314 -0.000673446 6.51191 -0.00115967 5.18744C-0.00115967 3.86249 0.457834 2.74126 1.37582 1.82376C2.29381 0.906257 3.41504 0.447264 4.73951 0.446777C6.06446 0.446777 7.18569 0.905771 8.10319 1.82376C9.02069 2.74175 9.47969 3.86297 9.48017 5.18744C9.48017 5.72229 9.39508 6.22674 9.22491 6.70081C9.05473 7.17488 8.82377 7.59424 8.53204 7.95891L12.6163 12.0432C12.8983 12.3251 12.8983 12.7823 12.6163 13.0642ZM4.73951 8.46944C5.65117 8.46944 6.42621 8.15024 7.06462 7.51183C7.70303 6.87342 8.02199 6.09862 8.02151 5.18744C8.02151 4.27578 7.7023 3.50074 7.06389 2.86233C6.42548 2.22392 5.65069 1.90496 4.73951 1.90544C3.82784 1.90544 3.0528 2.22465 2.41439 2.86306C1.77598 3.50147 1.45702 4.27626 1.45751 5.18744C1.45751 6.09911 1.77671 6.87415 2.41512 7.51256C3.05353 8.15097 3.82833 8.46993 4.73951 8.46944Z" fill="white"/>
</svg>
