<svg width="14" height="14" viewBox="0 0 14 14" fill="none" xmlns="http://www.w3.org/2000/svg">
<path d="M13.1857 2.3869H11.3395V0.540771H10.4165V2.3869H8.57034V3.30996H10.4165V5.15608H11.3395V3.30996H13.1857V2.3869ZM10.4165 12.811L7.65882 10.0534C8.32346 9.22193 8.64448 8.16752 8.55594 7.10675C8.46739 6.04598 7.976 5.05938 7.18271 4.34962C6.38941 3.63986 5.35444 3.26082 4.29039 3.29036C3.22634 3.31991 2.21399 3.7558 1.4613 4.50848C0.708614 5.26117 0.272729 6.27352 0.243183 7.33757C0.213638 8.40162 0.592675 9.43659 1.30244 10.2299C2.0122 11.0232 2.99879 11.5146 4.05957 11.6031C5.12034 11.6917 6.17475 11.3706 7.00621 10.706L9.76386 13.4636L10.4165 12.811ZM1.18584 7.46374C1.18584 6.82476 1.37532 6.20014 1.73031 5.66885C2.08531 5.13756 2.58988 4.72347 3.18022 4.47895C3.77055 4.23442 4.42014 4.17044 5.04684 4.2951C5.67354 4.41976 6.2492 4.72745 6.70102 5.17928C7.15285 5.6311 7.46054 6.20676 7.5852 6.83346C7.70986 7.46016 7.64588 8.10975 7.40135 8.70008C7.15683 9.29042 6.74274 9.79499 6.21145 10.15C5.68016 10.505 5.05553 10.6945 4.41656 10.6945C3.56002 10.6935 2.73884 10.3528 2.13318 9.74712C1.52751 9.14146 1.18682 8.32028 1.18584 7.46374Z" fill="#94939B"/>
</svg>
