<svg width="15" height="15" viewBox="0 0 15 15" fill="none" xmlns="http://www.w3.org/2000/svg">
<path d="M7.24777 0.956055C7.78142 0.961961 8.31296 1.02116 8.83381 1.1327C9.06123 1.18139 9.23128 1.3634 9.25709 1.58571L9.38083 2.65161C9.43681 3.14101 9.86715 3.51168 10.3802 3.5122C10.5181 3.51241 10.6545 3.48484 10.7819 3.4307L11.8003 3.00118C12.0121 2.91184 12.2595 2.96055 12.4176 3.12269C13.1535 3.87735 13.7016 4.78244 14.0205 5.76986C14.0893 5.98278 14.0102 6.21416 13.8233 6.34643L12.9206 6.98526C12.6632 7.1669 12.5111 7.45536 12.5111 7.76217C12.5111 8.06892 12.6632 8.35737 12.9212 8.53944L13.8246 9.17848C14.0116 9.3107 14.0908 9.54212 14.022 9.75511C13.7031 10.7424 13.1554 11.6474 12.4199 12.4022C12.2619 12.5643 12.0147 12.6131 11.8029 12.524L10.7805 12.0939C10.488 11.9709 10.152 11.989 9.87558 12.1424C9.59916 12.2958 9.41515 12.5663 9.38003 12.871L9.25709 13.9368C9.23179 14.1566 9.06537 14.3374 8.84137 14.3885C7.78825 14.6291 6.69108 14.6291 5.63802 14.3885C5.414 14.3374 5.24761 14.1566 5.22226 13.9368L5.09952 12.8726C5.06347 12.5684 4.87922 12.2988 4.603 12.1459C4.32678 11.993 3.9914 11.9751 3.69985 12.0973L2.67718 12.5275C2.46535 12.6166 2.21803 12.5678 2.06008 12.4055C1.3242 11.6499 0.776428 10.7438 0.457985 9.75546C0.389403 9.54261 0.46865 9.31133 0.655485 9.17918L1.55943 8.53972C1.81691 8.35807 1.96897 8.06962 1.96897 7.76287C1.96897 7.45606 1.81691 7.1676 1.5591 6.98575L0.655717 6.34737C0.468599 6.21515 0.389279 5.98361 0.458108 5.77055C0.777097 4.78314 1.32516 3.87805 2.06105 3.12339C2.21916 2.96125 2.4666 2.91254 2.6784 3.00188L3.69652 3.43132C3.98948 3.55477 4.32627 3.53613 4.60397 3.38034C4.88048 3.22634 5.06457 2.95556 5.10011 2.65079L5.22376 1.58571C5.24959 1.36329 5.41979 1.18122 5.64731 1.13263C6.16877 1.02127 6.70089 0.962093 7.24777 0.956055ZM7.24792 2.00313C6.91784 2.00686 6.58864 2.03422 6.26314 2.0849L6.1839 2.76705C6.10988 3.40197 5.72672 3.96557 5.15264 4.28531C4.57505 4.60933 3.87083 4.64832 3.2581 4.39012L2.605 4.11465C2.18918 4.59925 1.85822 5.14559 1.62512 5.73223L2.20515 6.14209C2.74229 6.52102 3.05953 7.12285 3.05953 7.76287C3.05953 8.40282 2.74229 9.00465 2.20571 9.38316L1.62477 9.79413C1.85767 10.3818 2.18869 10.9292 2.60479 11.4147L3.26286 11.1379C3.87218 10.8825 4.57161 10.9198 5.14763 11.2386C5.72365 11.5575 6.10792 12.1199 6.18324 12.7557L6.26249 13.4426C6.90926 13.5482 7.57007 13.5482 8.21684 13.4426L8.29609 12.7558C8.36938 12.1201 8.75318 11.5558 9.32987 11.2358C9.90663 10.9157 10.6074 10.8781 11.2178 11.1347L11.8754 11.4113C12.2912 10.9265 12.622 10.38 12.8551 9.79329L12.275 9.38288C11.7378 9.00395 11.4205 8.40212 11.4205 7.76217C11.4205 7.12216 11.7378 6.52033 12.2743 6.14186L12.8536 5.73182C12.6205 5.14508 12.2895 4.59863 11.8736 4.11395L11.2218 4.38887C10.9563 4.50171 10.6689 4.55978 10.3788 4.55935C9.31024 4.55828 8.41351 3.78584 8.29689 2.76681L8.21764 2.08467C7.89375 2.03406 7.56803 2.00678 7.24792 2.00313ZM7.23868 5.14462C8.74445 5.14462 9.96508 6.31668 9.96508 7.76252C9.96508 9.20829 8.74445 10.3804 7.23868 10.3804C5.73296 10.3804 4.51232 9.20829 4.51232 7.76252C4.51232 6.31668 5.73296 5.14462 7.23868 5.14462ZM7.23868 6.19176C6.33527 6.19176 5.60288 6.895 5.60288 7.76252C5.60288 8.62998 6.33527 9.33325 7.23868 9.33325C8.14218 9.33325 8.87452 8.62998 8.87452 7.76252C8.87452 6.895 8.14218 6.19176 7.23868 6.19176Z" fill="#666666"/>
</svg>
