<svg width="11" height="12" viewBox="0 0 11 12" fill="none" xmlns="http://www.w3.org/2000/svg">
<path d="M8.30904 7.52607C8.03551 7.52563 7.7647 7.58034 7.51279 7.68692C7.26088 7.7935 7.03304 7.94977 6.84288 8.14639L4.47959 6.62891C4.66407 6.15051 4.66407 5.62059 4.47959 5.14219L6.84288 3.6247C7.17534 3.96473 7.61564 4.17863 8.08843 4.22979C8.56121 4.28095 9.03707 4.1662 9.43458 3.90517C9.83208 3.64414 10.1265 3.25306 10.2675 2.79887C10.4084 2.34468 10.3871 1.85562 10.2073 1.41539C10.0274 0.975159 9.70011 0.611134 9.28144 0.385618C8.86276 0.160103 8.37873 0.0871176 7.91218 0.179155C7.44563 0.271192 7.02557 0.522529 6.72389 0.890148C6.42222 1.25777 6.25769 1.71881 6.25846 2.19437C6.25929 2.44849 6.30619 2.70035 6.39688 2.93773L4.03359 4.45522C3.74907 4.1629 3.38382 3.96208 2.98457 3.87845C2.58531 3.79482 2.17018 3.83218 1.79226 3.98574C1.41435 4.1393 1.09082 4.4021 0.863048 4.74052C0.635275 5.07894 0.513611 5.47761 0.513611 5.88555C0.513611 6.29349 0.635275 6.69216 0.863048 7.03058C1.09082 7.369 1.41435 7.63179 1.79226 7.78536C2.17018 7.93892 2.58531 7.97628 2.98457 7.89265C3.38382 7.80902 3.74907 7.6082 4.03359 7.31588L6.39688 8.83336C6.30619 9.07075 6.25929 9.32261 6.25846 9.57673C6.25846 9.98231 6.37873 10.3788 6.60405 10.716C6.82937 11.0532 7.14962 11.3161 7.52432 11.4713C7.89901 11.6265 8.31131 11.6671 8.70908 11.588C9.10686 11.5089 9.47223 11.3135 9.75901 11.0268C10.0458 10.74 10.2411 10.3746 10.3202 9.97679C10.3993 9.579 10.3587 9.16668 10.2035 8.79197C10.0483 8.41727 9.78549 8.097 9.44827 7.87167C9.11106 7.64634 8.7146 7.52607 8.30904 7.52607ZM8.30904 0.96398C8.55237 0.96398 8.79025 1.03614 8.99258 1.17134C9.19491 1.30654 9.3526 1.4987 9.44573 1.72352C9.53885 1.94835 9.56321 2.19574 9.51574 2.43441C9.46827 2.67308 9.35109 2.89232 9.17902 3.06439C9.00695 3.23646 8.78773 3.35365 8.54906 3.40112C8.3104 3.4486 8.06302 3.42423 7.8382 3.33111C7.61339 3.23798 7.42123 3.08028 7.28604 2.87794C7.15085 2.6756 7.07869 2.43772 7.07869 2.19437C7.08004 1.86847 7.2101 1.5563 7.44054 1.32584C7.67099 1.09539 7.98314 0.965329 8.30904 0.96398ZM2.56743 7.11594C2.32409 7.11594 2.08622 7.04378 1.88389 6.90858C1.68156 6.77339 1.52387 6.58122 1.43074 6.3564C1.33762 6.13157 1.31326 5.88418 1.36073 5.64551C1.4082 5.40684 1.52538 5.1876 1.69745 5.01553C1.86952 4.84346 2.08874 4.72627 2.32741 4.6788C2.56607 4.63132 2.81345 4.65569 3.03827 4.74881C3.26308 4.84194 3.45523 4.99964 3.59043 5.20198C3.72562 5.40432 3.79778 5.6422 3.79778 5.88555C3.79643 6.21145 3.66637 6.52363 3.43593 6.75408C3.20548 6.98453 2.89333 7.11459 2.56743 7.11594ZM8.30904 10.8071C8.0657 10.8071 7.82782 10.735 7.62549 10.5998C7.42317 10.4646 7.26547 10.2724 7.17235 10.0476C7.07923 9.82275 7.05486 9.57536 7.10233 9.33669C7.14981 9.09801 7.26698 8.87878 7.43905 8.70671C7.61112 8.53463 7.83034 8.41745 8.06901 8.36998C8.30767 8.3225 8.55505 8.34687 8.77987 8.43999C9.00468 8.53312 9.19684 8.69082 9.33203 8.89316C9.46722 9.09549 9.53938 9.33338 9.53938 9.57673C9.53803 9.90263 9.40797 10.2148 9.17753 10.4453C8.94709 10.6757 8.63493 10.8058 8.30904 10.8071Z" fill="white"/>
</svg>
