<svg width="14" height="14" viewBox="0 0 14 14" fill="none" xmlns="http://www.w3.org/2000/svg">
<path d="M13.5952 4.95015C13.5362 4.76831 13.425 4.60784 13.2754 4.48873C13.1259 4.36961 12.9446 4.29713 12.7542 4.28029L9.13753 3.9685L7.71986 0.597273C7.64605 0.420378 7.52155 0.269277 7.36204 0.162994C7.20253 0.0567117 7.01514 0 6.82346 0C6.63179 0 6.4444 0.0567117 6.28489 0.162994C6.12538 0.269277 6.00088 0.420378 5.92707 0.597273L4.51366 3.9685L0.892756 4.28212C0.701563 4.29819 0.519368 4.37034 0.369021 4.48954C0.218673 4.60874 0.106865 4.76968 0.0476175 4.95217C-0.0116301 5.13466 -0.0156797 5.33058 0.0359765 5.51536C0.0876327 5.70014 0.192695 5.86556 0.337989 5.99087L3.08503 8.39141L2.26171 11.9563C2.21817 12.1428 2.2306 12.3381 2.29742 12.5176C2.36425 12.6972 2.48252 12.853 2.63744 12.9657C2.79236 13.0784 2.97706 13.1429 3.16844 13.1512C3.35983 13.1594 3.54941 13.1111 3.71348 13.0122L6.8192 11.1244L9.93162 13.0122C10.0957 13.1111 10.2853 13.1594 10.4767 13.1512C10.668 13.1429 10.8527 13.0784 11.0077 12.9657C11.1626 12.853 11.2809 12.6972 11.3477 12.5176C11.4145 12.3381 11.4269 12.1428 11.3834 11.9563L10.5607 8.38776L13.3071 5.99087C13.4524 5.86513 13.5572 5.69924 13.6085 5.51407C13.6597 5.32889 13.6551 5.1327 13.5952 4.95015ZM12.6683 5.25464L9.92188 7.65152C9.78821 7.76779 9.68877 7.91831 9.63426 8.08688C9.57976 8.25545 9.57224 8.43568 9.61252 8.60821L10.4377 12.1792L7.32769 10.2914C7.17596 10.199 7.00173 10.1501 6.82407 10.1501C6.64642 10.1501 6.47219 10.199 6.32046 10.2914L3.21474 12.1792L4.03441 8.61064C4.07469 8.43812 4.06717 8.25788 4.01266 8.08931C3.95816 7.92075 3.85872 7.77023 3.72505 7.65396L0.977402 5.25829C0.977179 5.25647 0.977179 5.25463 0.977402 5.25281L4.59709 4.9398C4.77381 4.92422 4.94293 4.86069 5.08619 4.75606C5.22946 4.65143 5.34144 4.50966 5.41006 4.34606L6.82346 0.979094L8.23626 4.34606C8.30488 4.50966 8.41686 4.65143 8.56013 4.75606C8.70339 4.86069 8.87251 4.92422 9.04923 4.9398L12.6695 5.25281V5.25707L12.6683 5.25464Z" fill="#FE3C72"/>
</svg>
