<svg width="29" height="29" viewBox="0 0 29 29" fill="none" xmlns="http://www.w3.org/2000/svg">
<path d="M27.8732 3.78578L27.8732 3.78577L27.8703 3.7941L20.0442 26.7506C20.0439 26.7515 20.0436 26.7524 20.0432 26.7534C19.3759 28.6529 16.8109 28.5843 16.2597 26.6706L14.1777 18.993C13.7021 16.962 12.0095 15.4739 10.1005 14.8865L10.0873 14.8825L10.074 14.8788L2.38204 12.7929C0.468397 12.2417 0.399681 9.67677 2.29923 9.00934C2.30018 9.00901 2.30114 9.00867 2.30209 9.00834L25.2586 1.1823L25.2586 1.18234L25.2669 1.17941C26.8346 0.626072 28.4266 2.21793 27.8732 3.78578Z" fill="#FE3C72" stroke="white" stroke-width="1.641"/>
</svg>
