<svg width="42" height="46" viewBox="0 0 42 46" fill="none" xmlns="http://www.w3.org/2000/svg">
<g filter="url(#filter0_i_384_198084)">
<path d="M11.9828 37.0303C10.7431 37.7858 9.20519 36.6779 9.52921 35.2628L11.5566 26.4083C11.6913 25.82 11.4922 25.2052 11.0382 24.8076L4.22265 18.8381C3.13556 17.8859 3.72092 16.0951 5.1605 15.9689L14.1414 15.1813C14.7488 15.128 15.2766 14.7424 15.5119 14.1799L18.9816 5.88622C19.5436 4.54266 21.4472 4.54266 22.0093 5.88622L25.4789 14.1799C25.7143 14.7424 26.2421 15.128 26.8494 15.1813L35.8303 15.9689C37.2699 16.0951 37.8553 17.8859 36.7682 18.8381L29.9526 24.8076C29.4986 25.2052 29.2995 25.82 29.4342 26.4083L31.4616 35.2628C31.7856 36.6779 30.2477 37.7858 29.008 37.0303L21.3494 32.3629C20.8249 32.0433 20.1659 32.0433 19.6414 32.3629L11.9828 37.0303Z" fill="url(#paint0_linear_384_198084)"/>
</g>
<path d="M34.359 27.0668L33.5662 29.1565L31.5046 29.9601L33.5662 30.7638L34.359 32.8535L35.1519 30.7638L37.2134 29.9601L35.1519 29.1565L34.359 27.0668Z" fill="#69C1BC"/>
<path d="M11.4051 10.2409L10.9136 8.87907L10.4221 10.2409L9.07862 10.7391L10.4221 11.2373L10.9136 12.5991L11.4051 11.2373L12.7485 10.7391L11.4051 10.2409Z" fill="#69C1BC"/>
<defs>
<filter id="filter0_i_384_198084" x="3.66061" y="2.41692" width="33.6696" height="34.858" filterUnits="userSpaceOnUse" color-interpolation-filters="sRGB">
<feFlood flood-opacity="0" result="BackgroundImageFix"/>
<feBlend mode="normal" in="SourceGraphic" in2="BackgroundImageFix" result="shape"/>
<feColorMatrix in="SourceAlpha" type="matrix" values="0 0 0 0 0 0 0 0 0 0 0 0 0 0 0 0 0 0 127 0" result="hardAlpha"/>
<feOffset dy="-3.282"/>
<feGaussianBlur stdDeviation="1.23075"/>
<feComposite in2="hardAlpha" operator="arithmetic" k2="-1" k3="1"/>
<feColorMatrix type="matrix" values="0 0 0 0 0.807843 0 0 0 0 0.827451 0 0 0 0 0.882353 0 0 0 1 0"/>
<feBlend mode="normal" in2="shape" result="effect1_innerShadow_384_198084"/>
</filter>
<linearGradient id="paint0_linear_384_198084" x1="20.4954" y1="2.26758" x2="20.4954" y2="39.0547" gradientUnits="userSpaceOnUse">
<stop stop-color="#FAFEFE"/>
<stop offset="1" stop-color="#E1E5F4"/>
</linearGradient>
</defs>
</svg>
