<svg width="51" height="51" viewBox="0 0 51 51" fill="none" xmlns="http://www.w3.org/2000/svg">
<g filter="url(#filter0_d_384_196228)">
<circle cx="25.0439" cy="25.0198" r="5.38453" fill="white"/>
<path d="M22.8901 22.7152V27.3244C22.8901 27.6546 23.0409 27.9059 23.3424 28.0782C23.6439 28.2505 23.9383 28.2361 24.2255 28.0351L27.8008 25.7521C28.0736 25.5798 28.21 25.3357 28.21 25.0198C28.21 24.7039 28.0736 24.4598 27.8008 24.2875L24.2255 22.0045C23.9383 21.8034 23.6439 21.7891 23.3424 21.9614C23.0409 22.1337 22.8901 22.385 22.8901 22.7152ZM25.0439 33.635C23.8521 33.635 22.7321 33.4087 21.684 32.9562C20.6358 32.5036 19.724 31.8899 18.9486 31.1151C18.1732 30.3397 17.5595 29.4279 17.1075 28.3797C16.6555 27.3315 16.4292 26.2116 16.4286 25.0198C16.4286 23.828 16.6549 22.708 17.1075 21.6598C17.5601 20.6117 18.1738 19.6999 18.9486 18.9245C19.724 18.1491 20.6358 17.5354 21.684 17.0834C22.7321 16.6314 23.8521 16.4051 25.0439 16.4045C26.2357 16.4045 27.3557 16.6308 28.4038 17.0834C29.452 17.536 30.3638 18.1497 31.1392 18.9245C31.9146 19.6999 32.5285 20.6117 32.9811 21.6598C33.4337 22.708 33.6597 23.828 33.6591 25.0198C33.6591 26.2116 33.4329 27.3315 32.9803 28.3797C32.5277 29.4279 31.914 30.3397 31.1392 31.1151C30.3638 31.8905 29.452 32.5044 28.4038 32.957C27.3557 33.4096 26.2357 33.6356 25.0439 33.635Z" fill="#FE3C72"/>
</g>
<defs>
<filter id="filter0_d_384_196228" x="0.0186501" y="-0.00545883" width="50.0505" height="50.0505" filterUnits="userSpaceOnUse" color-interpolation-filters="sRGB">
<feFlood flood-opacity="0" result="BackgroundImageFix"/>
<feColorMatrix in="SourceAlpha" type="matrix" values="0 0 0 0 0 0 0 0 0 0 0 0 0 0 0 0 0 0 127 0" result="hardAlpha"/>
<feOffset/>
<feGaussianBlur stdDeviation="8.205"/>
<feComposite in2="hardAlpha" operator="out"/>
<feColorMatrix type="matrix" values="0 0 0 0 0.996078 0 0 0 0 0.235294 0 0 0 0 0.447059 0 0 0 1 0"/>
<feBlend mode="normal" in2="BackgroundImageFix" result="effect1_dropShadow_384_196228"/>
<feBlend mode="normal" in="SourceGraphic" in2="effect1_dropShadow_384_196228" result="shape"/>
</filter>
</defs>
</svg>
