<svg width="12" height="11" viewBox="0 0 12 11" fill="none" xmlns="http://www.w3.org/2000/svg">
<path d="M6.65691 1.01147C6.45954 0.66805 5.96819 0.66805 5.77082 1.01147L4.38053 3.43005C4.28302 3.5997 4.11446 3.71547 3.92234 3.74476L1.31687 4.142C0.879267 4.20872 0.725766 4.76645 1.06657 5.05147L3.00753 6.67471C3.1872 6.82497 3.27168 7.06201 3.22803 7.29335L2.72031 9.98489C2.64004 10.4104 3.08252 10.7409 3.46217 10.5392L5.91553 9.23512C6.10225 9.13589 6.32544 9.13589 6.5122 9.23512L8.96557 10.5392C9.3452 10.7409 9.78768 10.4104 9.70741 9.98489L9.19972 7.29335C9.15607 7.06201 9.24054 6.82497 9.42019 6.67471L11.3612 5.05147C11.702 4.76645 11.5485 4.20872 11.1109 4.142L8.50541 3.74476C8.31327 3.71547 8.14474 3.5997 8.04721 3.43005L6.65691 1.01147Z" fill="#FFAD32"/>
</svg>
