<svg width="14" height="15" viewBox="0 0 14 15" fill="none" xmlns="http://www.w3.org/2000/svg">
<path d="M4.90702 9.26562H4.29775C3.96265 9.26562 3.68848 9.56823 3.68848 9.93807C3.68848 10.3079 3.96265 10.6105 4.29775 10.6105H4.90702C5.24212 10.6105 5.51629 10.3079 5.51629 9.93807C5.51629 9.56823 5.24212 9.26562 4.90702 9.26562Z" fill="#666666"/>
<path d="M7.34452 8.59277H6.73525C6.40015 8.59277 6.12598 8.89537 6.12598 9.26522V9.93766C6.12598 10.3075 6.40015 10.6101 6.73525 10.6101H7.34452C7.67962 10.6101 7.95379 10.3075 7.95379 9.93766V9.26522C7.95379 8.89537 7.67962 8.59277 7.34452 8.59277Z" fill="#666666"/>
<path d="M9.78104 7.24902H9.17177C8.83667 7.24902 8.5625 7.55162 8.5625 7.92147V9.9388C8.5625 10.3086 8.83667 10.6112 9.17177 10.6112H9.78104C10.1161 10.6112 10.3903 10.3086 10.3903 9.9388V7.92147C10.3903 7.55162 10.1161 7.24902 9.78104 7.24902Z" fill="#666666"/>
<path d="M10.0858 3.88574H8.07524C7.80106 3.88574 7.67921 4.25559 7.86199 4.45732L8.4408 5.09614C7.31365 6.50828 5.69908 7.58419 3.99311 7.58419C3.81033 7.58419 3.68848 7.71868 3.68848 7.92041C3.68848 8.12215 3.81033 8.25663 3.99311 8.25663C6.03417 8.25663 7.92292 7.61781 9.29378 6.03757L9.84213 6.64277C10.0249 6.8445 10.36 6.71001 10.36 6.40741V4.22196C10.3905 4.02023 10.2686 3.88574 10.0858 3.88574Z" fill="#666666"/>
<rect x="0.954571" y="1.5576" width="12.2516" height="12.2516" rx="2.04194" stroke="#626069" stroke-width="1.36129"/>
</svg>
