<svg width="53" height="53" viewBox="0 0 53 53" fill="none" xmlns="http://www.w3.org/2000/svg">
<g filter="url(#filter0_dd_384_198858)">
<circle cx="26.3714" cy="26.5543" r="16.41" fill="url(#paint0_linear_384_198858)"/>
</g>
<path d="M21.1974 32.8785C20.927 32.9923 20.6279 32.7938 20.6279 32.5004V28.5155C20.6279 28.3273 20.756 28.1632 20.9387 28.1175L26.5551 26.7134C26.7209 26.672 26.7209 26.4365 26.5551 26.395L20.9387 24.9909C20.756 24.9453 20.6279 24.7812 20.6279 24.5929V20.6081C20.6279 20.3147 20.927 20.1161 21.1974 20.23L34.4215 25.798C35.0909 26.0799 35.0909 27.0286 34.4215 27.3104L21.1974 32.8785Z" fill="white"/>
<defs>
<filter id="filter0_dd_384_198858" x="0.115426" y="0.298287" width="52.5118" height="52.5121" filterUnits="userSpaceOnUse" color-interpolation-filters="sRGB">
<feFlood flood-opacity="0" result="BackgroundImageFix"/>
<feColorMatrix in="SourceAlpha" type="matrix" values="0 0 0 0 0 0 0 0 0 0 0 0 0 0 0 0 0 0 127 0" result="hardAlpha"/>
<feOffset dx="3.282" dy="3.282"/>
<feGaussianBlur stdDeviation="3.282"/>
<feComposite in2="hardAlpha" operator="out"/>
<feColorMatrix type="matrix" values="0 0 0 0 0 0 0 0 0 0 0 0 0 0 0 0 0 0 0.25 0"/>
<feBlend mode="normal" in2="BackgroundImageFix" result="effect1_dropShadow_384_198858"/>
<feColorMatrix in="SourceAlpha" type="matrix" values="0 0 0 0 0 0 0 0 0 0 0 0 0 0 0 0 0 0 127 0" result="hardAlpha"/>
<feOffset dx="-1.641" dy="-1.641"/>
<feGaussianBlur stdDeviation="4.1025"/>
<feComposite in2="hardAlpha" operator="out"/>
<feColorMatrix type="matrix" values="0 0 0 0 1 0 0 0 0 1 0 0 0 0 1 0 0 0 0.25 0"/>
<feBlend mode="normal" in2="effect1_dropShadow_384_198858" result="effect2_dropShadow_384_198858"/>
<feBlend mode="normal" in="SourceGraphic" in2="effect2_dropShadow_384_198858" result="shape"/>
</filter>
<linearGradient id="paint0_linear_384_198858" x1="10.5582" y1="8.19734" x2="45.2703" y2="10.891" gradientUnits="userSpaceOnUse">
<stop stop-color="#FE3C72"/>
<stop offset="1" stop-color="#E15561"/>
</linearGradient>
</defs>
</svg>
