<svg width="12" height="12" viewBox="0 0 12 12" fill="none" xmlns="http://www.w3.org/2000/svg">
<path d="M6.13206 10.4842C6.52911 10.4842 6.90639 10.4313 7.26391 10.3254C7.62143 10.2195 7.95883 10.0739 8.27611 9.88863L6.22471 7.83722L5.76149 8.30044C5.65561 8.40632 5.52996 8.45926 5.38456 8.45926C5.23915 8.45926 5.11333 8.40632 5.0071 8.30044L3.51156 6.8049C3.4145 6.70784 3.36597 6.58432 3.36597 6.43432C3.36597 6.28433 3.4145 6.1608 3.51156 6.06374C3.60861 5.96669 3.73214 5.91816 3.88213 5.91816C4.03213 5.91816 4.15565 5.96669 4.25271 6.06374L5.39091 7.20194L5.48355 7.09607L2.49247 4.10498C2.30718 4.42262 2.1616 4.7602 2.05572 5.11771C1.94984 5.47523 1.8969 5.85234 1.8969 6.24903C1.8969 7.42253 2.30947 8.42185 3.13463 9.247C3.95978 10.0722 4.95892 10.4845 6.13206 10.4842ZM7.74672 6.32844L7.00557 5.58729L8.01142 4.58144C8.10847 4.48438 8.232 4.43585 8.38199 4.43585C8.53199 4.43585 8.65552 4.48438 8.75257 4.58144C8.84963 4.67849 8.89815 4.80202 8.89815 4.95201C8.89815 5.10201 8.84963 5.22553 8.75257 5.32259L7.74672 6.32844ZM9.87754 11.49L9.04374 10.6695C8.6114 10.9518 8.15047 11.168 7.66096 11.318C7.17144 11.468 6.66181 11.543 6.13206 11.543C5.39973 11.543 4.71152 11.4039 4.06742 11.1258C3.42332 10.8477 2.86305 10.4706 2.38659 9.99451C1.91013 9.5184 1.53303 8.95813 1.25527 8.31367C0.977516 7.66922 0.838461 6.98101 0.838108 6.24903C0.838108 5.71964 0.913106 5.21018 1.0631 4.72067C1.2131 4.23115 1.42927 3.77005 1.71161 3.33736L0.877813 2.50356C0.771934 2.39768 0.718994 2.27204 0.718994 2.12663C0.718994 1.98122 0.771934 1.8554 0.877813 1.74917C0.983692 1.64294 1.10951 1.59 1.25527 1.59035C1.40103 1.59071 1.52668 1.64365 1.6322 1.74917L10.6319 10.7489C10.7378 10.8548 10.7907 10.9783 10.7907 11.1195C10.7907 11.2606 10.7378 11.3842 10.6319 11.49C10.526 11.5959 10.4004 11.6489 10.255 11.6489C10.1096 11.6489 9.98377 11.5959 9.87754 11.49ZM6.13206 2.01387C5.8409 2.01387 5.55643 2.04263 5.27868 2.10016C5.00092 2.15769 4.72952 2.24363 4.46447 2.35798C4.3233 2.41974 4.18212 2.42856 4.04095 2.38445C3.89978 2.34033 3.7939 2.25651 3.72331 2.13298C3.65273 2.00946 3.6372 1.87711 3.67673 1.73594C3.71625 1.59476 3.80237 1.4933 3.93507 1.43153C4.27918 1.27272 4.63423 1.1536 5.00022 1.07419C5.3662 0.994783 5.74349 0.955078 6.13206 0.955078C6.86439 0.955078 7.55261 1.09413 8.1967 1.37224C8.8408 1.65035 9.40108 2.02746 9.87754 2.50356C10.354 2.97966 10.7313 3.53994 11.0094 4.18439C11.2875 4.82884 11.4264 5.51706 11.426 6.24903C11.426 6.63726 11.3863 7.01454 11.3069 7.38088C11.2275 7.74722 11.1084 8.10227 10.9496 8.44602C10.8878 8.57837 10.7863 8.66449 10.6452 8.70437C10.504 8.74425 10.3716 8.72872 10.2481 8.65778C10.1246 8.58684 10.0408 8.48096 9.99665 8.34014C9.95253 8.19933 9.96136 8.05815 10.0231 7.91663C10.1378 7.65193 10.2239 7.3807 10.2815 7.10295C10.339 6.82519 10.3676 6.54055 10.3672 6.24903C10.3672 5.07554 9.95483 4.07622 9.13003 3.25107C8.30523 2.42592 7.30591 2.01352 6.13206 2.01387Z" fill="white"/>
</svg>
