<svg width="8" height="7" viewBox="0 0 8 7" fill="none" xmlns="http://www.w3.org/2000/svg">
<path d="M5.9659 5.19068H2.35776L4.16183 2.09842L5.9659 5.19068ZM7.52588 5.83067L4.38234 0.442036C4.35973 0.403419 4.32742 0.371391 4.2886 0.349134C4.24978 0.326878 4.20581 0.315167 4.16106 0.315167C4.11631 0.315167 4.07235 0.326878 4.03353 0.349134C3.99471 0.371391 3.96239 0.403419 3.93978 0.442036L0.796244 5.83067C0.773438 5.86975 0.76138 5.91417 0.761293 5.95941C0.761207 6.00466 0.773096 6.04912 0.795752 6.08829C0.818408 6.12746 0.851025 6.15993 0.89029 6.18241C0.929555 6.2049 0.974071 6.21659 1.01932 6.2163H7.30486C7.34997 6.21632 7.39429 6.20443 7.43334 6.18183C7.47239 6.15924 7.50479 6.12674 7.52727 6.08762C7.54974 6.0485 7.56149 6.00414 7.56134 5.95903C7.56119 5.91391 7.54913 5.86964 7.52639 5.83067H7.52588Z" fill="#BDBDBD"/>
</svg>
