<svg width="15" height="10" viewBox="0 0 15 10" fill="none" xmlns="http://www.w3.org/2000/svg">
<path d="M7.82263 9.5345C7.3619 9.5345 7.3619 9.10466 7.3619 8.675C7.3619 8.24534 7.21627 8.00514 6.95706 7.76336C6.69785 7.52158 6.34628 7.38575 5.97969 7.38575H3.21529C2.84871 7.38575 2.49714 7.52158 2.23793 7.76336C1.97871 8.00514 1.83309 8.24534 1.83309 8.675C1.83309 9.10466 1.8334 9.5345 1.37236 9.5345C0.911306 9.5345 0.911621 9.10466 0.911621 8.675C0.911621 8.24534 1.15433 7.55857 1.58635 7.15561C2.01837 6.75264 2.60432 6.52625 3.21529 6.52625H5.97969C6.59067 6.52625 7.17661 6.75264 7.60863 7.15561C8.04066 7.55857 8.28336 8.24534 8.28336 8.675C8.28336 9.10466 8.28336 9.5345 7.82263 9.5345ZM4.59749 5.66676C4.23447 5.66676 3.87499 5.60006 3.5396 5.47048C3.20421 5.3409 2.89946 5.15097 2.64276 4.91153C2.38607 4.6721 2.18244 4.38785 2.04352 4.07501C1.90459 3.76217 1.83309 3.42687 1.83309 3.08826C1.83309 2.74965 1.90459 2.41435 2.04352 2.10151C2.18244 1.78868 2.38607 1.50442 2.64276 1.26499C2.89946 1.02555 3.20421 0.835623 3.5396 0.706042C3.87499 0.57646 4.23447 0.509766 4.59749 0.509766C5.33066 0.509766 6.03379 0.781428 6.55222 1.26499C7.07065 1.74855 7.3619 2.4044 7.3619 3.08826C7.3619 3.77212 7.07065 4.42797 6.55222 4.91153C6.03379 5.39509 5.33066 5.66676 4.59749 5.66676ZM4.59749 4.80726C5.08627 4.80726 5.55503 4.62615 5.90064 4.30377C6.24626 3.9814 6.44043 3.54417 6.44043 3.08826C6.44043 2.63235 6.24626 2.19512 5.90064 1.87275C5.55503 1.55037 5.08627 1.36926 4.59749 1.36926C4.10872 1.36926 3.63996 1.55037 3.29434 1.87275C2.94872 2.19512 2.75456 2.63235 2.75456 3.08826C2.75456 3.54417 2.94872 3.9814 3.29434 4.30377C3.63996 4.62615 4.10872 4.80726 4.59749 4.80726Z" fill="#FE3C72"/>
<path fill-rule="evenodd" clip-rule="evenodd" d="M14.0297 3.08826C14.225 3.28352 14.225 3.6001 14.0297 3.79537L11.0297 6.79537C10.8345 6.99063 10.5179 6.99063 10.3226 6.79537L8.82263 5.29537C8.62737 5.10011 8.62737 4.78352 8.82263 4.58826C9.01789 4.393 9.33448 4.393 9.52974 4.58826L10.6762 5.73471L13.3226 3.08826C13.5179 2.893 13.8345 2.893 14.0297 3.08826Z" fill="#FE3C72"/>
</svg>
