<svg width="8" height="9" viewBox="0 0 8 9" fill="none" xmlns="http://www.w3.org/2000/svg">
<path d="M4.7408 4.03448C4.7408 3.86308 4.87975 3.72414 5.05114 3.72414H6.50449C6.67589 3.72414 6.81484 3.86308 6.81484 4.03448C6.81484 4.20588 6.67589 4.34483 6.50449 4.34483H5.05114C4.87975 4.34483 4.7408 4.20588 4.7408 4.03448ZM4.7408 2.48276C4.7408 2.31136 4.87975 2.17241 5.05114 2.17241H7.68966C7.86105 2.17241 8 2.31136 8 2.48276C8 2.65416 7.86105 2.7931 7.68966 2.7931H5.05114C4.87975 2.7931 4.7408 2.65416 4.7408 2.48276ZM4.7408 0.931035C4.7408 0.759636 4.87975 0.62069 5.05114 0.62069H7.68966C7.86105 0.62069 8 0.759636 8 0.931035C8 1.10243 7.86105 1.24138 7.68966 1.24138H5.05114C4.87975 1.24138 4.7408 1.10243 4.7408 0.931035ZM2.37047 9H1.18531C1.02829 8.99951 0.877836 8.93396 0.766807 8.81766C0.655778 8.70137 0.593195 8.54378 0.592726 8.37931V6.67601C0.592726 6.41669 0.353296 6.21212 0.174225 6.02456C0.0631959 5.90826 0.000612777 5.75067 0.000143829 5.58621V3.72414C-0.00198567 3.60126 0.0195508 3.47919 0.063467 3.36522C0.107383 3.25126 0.172778 3.14773 0.255745 3.06083C0.338713 2.97393 0.437551 2.90543 0.546357 2.85943C0.655162 2.81343 0.771702 2.79087 0.889017 2.7931H2.66676C2.78408 2.79087 2.90062 2.81343 3.00942 2.85943C3.11823 2.90543 3.21707 2.97393 3.30003 3.06083C3.383 3.14773 3.4484 3.25126 3.49231 3.36522C3.53623 3.47919 3.55777 3.60126 3.55564 3.72414V5.58621C3.55517 5.75067 3.49258 5.90826 3.38155 6.02456C3.20248 6.21212 2.96305 6.41669 2.96305 6.67601V8.37931C2.96258 8.54378 2.9 8.70137 2.78897 8.81766C2.67794 8.93396 2.52749 8.99951 2.37047 9ZM0.889017 3.41379C0.849488 3.4113 0.809904 3.41763 0.772879 3.43234C0.735855 3.44706 0.702232 3.46983 0.67423 3.49916C0.646228 3.52849 0.624485 3.56371 0.610435 3.60249C0.596386 3.64127 0.59035 3.68273 0.592726 3.72414V5.28992C0.592726 5.45355 0.72538 5.58621 0.889017 5.58621C1.05265 5.58621 1.18531 5.71886 1.18531 5.8825V7.78673C1.18531 8.114 1.45062 8.37931 1.77789 8.37931C2.10516 8.37931 2.37047 8.114 2.37047 7.78673V5.8825C2.37047 5.71886 2.50313 5.58621 2.66676 5.58621C2.8304 5.58621 2.96305 5.45355 2.96305 5.28992V3.72414C2.96543 3.68273 2.95939 3.64127 2.94534 3.60249C2.93129 3.56371 2.90955 3.52849 2.88155 3.49916C2.85355 3.46983 2.81992 3.44706 2.7829 3.43234C2.74588 3.41763 2.70629 3.4113 2.66676 3.41379H0.889017ZM1.77789 2.48276C1.54349 2.48276 1.31435 2.40995 1.11945 2.27355C0.924549 2.13714 0.772643 1.94327 0.682941 1.71644C0.593239 1.4896 0.569769 1.24 0.615498 0.999199C0.661228 0.758395 0.774104 0.537202 0.939852 0.363592C1.1056 0.189982 1.31678 0.0717522 1.54668 0.0238533C1.77657 -0.0240456 2.01487 0.000537866 2.23143 0.0944949C2.44799 0.188452 2.63309 0.347563 2.76332 0.551706C2.89354 0.75585 2.96305 0.995858 2.96305 1.24138C2.96227 1.57036 2.83715 1.88564 2.61506 2.11826C2.39297 2.35089 2.09197 2.48194 1.77789 2.48276ZM1.77789 0.62069C1.66069 0.62069 1.54612 0.657093 1.44867 0.725295C1.35122 0.793498 1.27527 0.890436 1.23042 1.00385C1.18556 1.11727 1.17383 1.24207 1.19669 1.36247C1.21956 1.48287 1.276 1.59347 1.35887 1.68027C1.44174 1.76708 1.54733 1.82619 1.66228 1.85014C1.77723 1.87409 1.89638 1.8618 2.00466 1.81482C2.11294 1.76784 2.20549 1.68829 2.2706 1.58622C2.33572 1.48414 2.37047 1.36414 2.37047 1.24138C2.37 1.07691 2.30742 0.919324 2.19639 0.803029C2.08536 0.686733 1.93491 0.621181 1.77789 0.62069Z" fill="white"/>
</svg>
