<svg width="11" height="12" viewBox="0 0 11 12" fill="none" xmlns="http://www.w3.org/2000/svg">
<path d="M5.51758 0.816895C6.22481 0.816895 6.90308 1.09784 7.40316 1.59793C7.90325 2.09802 8.1842 2.77629 8.1842 3.48352C8.1842 4.19075 7.90325 4.86902 7.40316 5.36911C6.90308 5.8692 6.22481 6.15014 5.51758 6.15014C4.81034 6.15014 4.13208 5.8692 3.63199 5.36911C3.1319 4.86902 2.85095 4.19075 2.85095 3.48352C2.85095 2.77629 3.1319 2.09802 3.63199 1.59793C4.13208 1.09784 4.81034 0.816895 5.51758 0.816895ZM5.51758 7.48346C8.4642 7.48346 10.8508 8.67677 10.8508 10.1501V11.4834H0.184326V10.1501C0.184326 8.67677 2.57096 7.48346 5.51758 7.48346Z" fill="#FE3C72"/>
</svg>
