<svg width="15" height="17" viewBox="0 0 15 17" fill="none" xmlns="http://www.w3.org/2000/svg">
<path fill-rule="evenodd" clip-rule="evenodd" d="M7.52943 16.4096C7.51948 16.4099 7.50947 16.41 7.49938 16.41H2.82252C1.83792 16.41 1.01742 15.9177 0.44307 15.0972C-0.04923 14.3588 -0.13128 13.3742 0.19692 12.5537C1.01742 10.5845 2.65842 9.02553 4.54557 8.28708C3.47892 7.46658 2.82252 6.15377 2.82252 4.67685C2.82252 2.1333 4.95582 0 7.49938 0C10.125 0 12.2583 2.05125 12.2583 4.5948C12.2583 6.09176 11.5194 7.44661 10.3928 8.30814C12.2572 9.05505 13.8746 10.6029 14.6873 12.5533C15.0155 13.3738 14.9334 14.3584 14.4411 15.0968C13.8668 15.9173 13.0463 16.4096 12.0617 16.4096H7.52943ZM7.27766 14.769H2.90457C2.49432 14.769 2.08407 14.5229 1.91997 14.1947C1.67382 13.8665 1.67382 13.5383 1.83792 13.128C2.80569 10.8699 4.96248 9.32519 7.45127 9.27304C9.93229 9.33239 12.0809 10.875 13.0463 13.1276C13.2104 13.5379 13.2104 13.8661 12.9642 14.1943C12.8001 14.5225 12.3899 14.7686 11.9796 14.7686H7.30274C7.29435 14.7686 7.28599 14.7688 7.27766 14.769ZM7.49938 1.641C5.85837 1.641 4.46352 3.03585 4.46352 4.67685C4.46352 6.31787 5.85837 7.71272 7.49938 7.71272C9.14038 7.71272 10.5352 6.31787 10.5352 4.67685C10.5352 3.03585 9.14038 1.641 7.49938 1.641Z" fill="#FE3C72"/>
</svg>
