<svg width="14" height="16" viewBox="0 0 14 16" fill="none" xmlns="http://www.w3.org/2000/svg">
<path d="M0.88769 11.2767H2.41294C3.20608 11.2767 3.9382 10.9716 4.48729 10.4225L10.7713 4.13846C11.6865 3.22331 11.6865 1.69806 10.7713 0.782904C10.3443 0.294822 9.73417 0.0507812 9.12406 0.0507812C8.51396 0.0507812 7.90386 0.294822 7.41578 0.721893L1.13173 7.06695C0.582639 7.61604 0.277588 8.40918 0.277588 9.20231V10.7276C0.277588 11.0326 0.582639 11.2767 0.88769 11.2767ZM1.49779 9.1413C1.49779 8.65322 1.68082 8.22615 1.98587 7.9211L6.98871 2.91826L7.84285 3.71139C7.96487 3.83341 8.1479 3.89442 8.26992 3.89442C8.45295 3.89442 8.57497 3.83341 8.69699 3.71139C8.94103 3.46735 8.94103 3.10129 8.69699 2.85725L7.84285 2.00311L8.26992 1.57604C8.51396 1.39301 8.81901 1.27099 9.12406 1.27099C9.42911 1.27099 9.73417 1.39301 9.9172 1.63705C10.3443 2.06412 10.3443 2.85725 9.9172 3.28432L3.63315 9.56837C3.3281 9.87342 2.84002 10.0565 2.41294 10.0565H1.49779V9.1413Z" fill="white"/>
<path d="M1.29355 13.492C1.29923 13.6146 1.52151 13.7119 1.59218 13.762C2.06833 14.1001 2.57377 14.5578 3.14239 14.733C4.38924 15.1173 5.96499 14.4728 6.96487 13.7532C7.82426 13.1347 8.56058 12.5398 9.56845 12.18C10.5971 11.8128 11.7797 12.1171 12.8131 12.3381" stroke="white" stroke-width="1.641" stroke-linecap="round"/>
</svg>
