<svg width="50" height="49" viewBox="0 0 50 49" fill="none" xmlns="http://www.w3.org/2000/svg">
<g filter="url(#filter0_d_384_195927)">
<path d="M32.4582 19.5638C32.4577 19.0557 32.3123 18.5582 32.0392 18.1297C31.766 17.7012 31.3764 17.3596 30.916 17.1448C30.4556 16.9301 29.9435 16.8511 29.4398 16.9172C28.9361 16.9833 28.4617 17.1918 28.0723 17.518C27.6828 17.8443 27.3944 18.2749 27.241 18.7594C27.0876 19.2438 27.0754 19.762 27.2059 20.2531C27.3365 20.7442 27.6043 21.1879 27.978 21.5321C28.3518 21.8763 28.8158 22.1068 29.3159 22.1965V22.393C29.3138 22.7675 29.1642 23.1261 28.8994 23.3909C28.6347 23.6558 28.2762 23.8054 27.9018 23.8075H22.2456C21.8712 23.8054 21.5127 23.6558 21.248 23.3909C20.9833 23.1261 20.8336 22.7675 20.8316 22.393V22.1965C21.4885 22.0787 22.0776 21.7191 22.4827 21.1885C22.8879 20.6579 23.0798 19.9948 23.0207 19.3298C22.9616 18.6647 22.6557 18.0459 22.1633 17.5952C21.6709 17.1445 21.0276 16.8945 20.3602 16.8945C19.6928 16.8945 19.0495 17.1445 18.5571 17.5952C18.0647 18.0459 17.7588 18.6647 17.6997 19.3298C17.6406 19.9948 17.8325 20.6579 18.2377 21.1885C18.6428 21.7191 19.2319 22.0787 19.8889 22.1965V22.393C19.8889 23.0182 20.1372 23.6179 20.5791 24.06C21.0211 24.5022 21.6206 24.7506 22.2456 24.7506H24.6024V26.3616C23.9454 26.4794 23.3563 26.839 22.9512 27.3696C22.546 27.9001 22.3541 28.5632 22.4132 29.2283C22.4723 29.8933 22.7782 30.5121 23.2706 30.9628C23.763 31.4136 24.4063 31.6635 25.0737 31.6635C25.7411 31.6635 26.3844 31.4136 26.8768 30.9628C27.3692 30.5121 27.6751 29.8933 27.7342 29.2283C27.7933 28.5632 27.6014 27.9001 27.1962 27.3696C26.7911 26.839 26.202 26.4794 25.5451 26.3616V24.7506H27.9018C28.5262 24.7485 29.1245 24.4994 29.566 24.0577C30.0075 23.6161 30.2565 23.0176 30.2586 22.393V22.1965C30.8751 22.0843 31.4329 21.7595 31.8348 21.2785C32.2367 20.7975 32.4573 20.1907 32.4582 19.5638ZM18.6319 19.5638C18.6319 19.2219 18.7333 18.8876 18.9232 18.6033C19.1131 18.319 19.383 18.0974 19.6988 17.9665C20.0146 17.8357 20.3621 17.8014 20.6974 17.8682C21.0326 17.9349 21.3406 18.0995 21.5823 18.3413C21.824 18.5831 21.9886 18.8912 22.0553 19.2265C22.122 19.5619 22.0877 19.9095 21.9569 20.2255C21.8261 20.5414 21.6046 20.8114 21.3204 21.0014C21.0362 21.1913 20.702 21.2927 20.3602 21.2927C19.9025 21.2907 19.4641 21.1079 19.1404 20.7841C18.8167 20.4603 18.634 20.0217 18.6319 19.5638ZM26.802 28.9942C26.802 29.3362 26.7006 29.6704 26.5107 29.9548C26.3208 30.2391 26.0509 30.4607 25.7351 30.5915C25.4193 30.7224 25.0718 30.7566 24.7365 30.6899C24.4013 30.6232 24.0933 30.4585 23.8516 30.2167C23.6099 29.975 23.4453 29.6669 23.3786 29.3315C23.3119 28.9961 23.3462 28.6485 23.477 28.3326C23.6078 28.0167 23.8293 27.7467 24.1135 27.5567C24.3977 27.3667 24.7319 27.2653 25.0737 27.2653C25.5314 27.2674 25.9698 27.4502 26.2935 27.774C26.6172 28.0978 26.7999 28.5363 26.802 28.9942ZM29.7872 21.2927C29.4454 21.2927 29.1113 21.1913 28.827 21.0014C28.5428 20.8114 28.3213 20.5414 28.1905 20.2255C28.0597 19.9095 28.0255 19.5619 28.0921 19.2265C28.1588 18.8912 28.3234 18.5831 28.5651 18.3413C28.8068 18.0995 29.1148 17.9349 29.45 17.8682C29.7853 17.8014 30.1328 17.8357 30.4486 17.9665C30.7644 18.0974 31.0343 18.319 31.2242 18.6033C31.4141 18.8876 31.5155 19.2219 31.5155 19.5638C31.5134 20.0217 31.3307 20.4603 31.007 20.7841C30.6834 21.1079 30.245 21.2907 29.7872 21.2927Z" fill="#FE638E"/>
<path d="M25.7092 26.2277V24.9147L27.9018 24.9147L27.9024 24.9147C28.5701 24.9124 29.2099 24.6461 29.6821 24.1738C30.1542 23.7014 30.4205 23.0614 30.4227 22.3935V22.393V22.33C31.0233 22.1905 31.5637 21.8589 31.9607 21.3837C32.3872 20.8732 32.6213 20.2294 32.6223 19.5641L32.6223 19.5637C32.6218 19.0243 32.4675 18.4963 32.1776 18.0415C31.8876 17.5867 31.474 17.2241 30.9853 16.9961C30.4966 16.7682 29.9531 16.6844 29.4184 16.7545C28.8838 16.8247 28.3803 17.0459 27.9669 17.3922C27.5535 17.7386 27.2474 18.1956 27.0846 18.7098C26.9217 19.224 26.9088 19.774 27.0473 20.2953C27.1859 20.8165 27.4702 21.2875 27.8669 21.6528C28.2297 21.987 28.6727 22.2201 29.1518 22.3304V22.3924C29.1499 22.7236 29.0175 23.0407 28.7834 23.2749C28.5493 23.5091 28.2324 23.6415 27.9014 23.6434H22.246C21.915 23.6415 21.5981 23.5091 21.3641 23.2749C21.13 23.0407 20.9976 22.7237 20.9957 22.3925V22.3304C21.6384 22.1825 22.2111 21.8146 22.6132 21.2881C23.0432 20.7249 23.2469 20.0211 23.1841 19.3153C23.1214 18.6094 22.7967 17.9526 22.2741 17.4742C21.7514 16.9958 21.0687 16.7304 20.3602 16.7304C19.6517 16.7304 18.969 16.9958 18.4463 17.4742C17.9237 17.9526 17.599 18.6094 17.5363 19.3153C17.4735 20.0211 17.6772 20.7249 18.1073 21.2881C18.5093 21.8146 19.082 22.1825 19.7248 22.3304V22.393C19.7248 23.0617 19.9903 23.7031 20.4631 24.176C20.9358 24.649 21.577 24.9147 22.2456 24.9147H24.4383V26.2277C23.7955 26.3755 23.2228 26.7435 22.8208 27.27C22.3907 27.8331 22.187 28.5369 22.2498 29.2428C22.3125 29.9487 22.6372 30.6055 23.1598 31.0839C23.6825 31.5623 24.3653 31.8276 25.0737 31.8276C25.7822 31.8276 26.4649 31.5623 26.9876 31.0839C27.5102 30.6055 27.8349 29.9487 27.8977 29.2428C27.9604 28.5369 27.7567 27.8331 27.3267 27.27C26.9246 26.7435 26.3519 26.3755 25.7092 26.2277ZM18.796 19.5635C18.7961 19.2541 18.8878 18.9517 19.0596 18.6945C19.2315 18.4371 19.4758 18.2366 19.7616 18.1181C20.0474 17.9997 20.3619 17.9687 20.6653 18.0291C20.9688 18.0895 21.2475 18.2385 21.4662 18.4573C21.685 18.6762 21.834 18.955 21.8943 19.2585C21.9547 19.5621 21.9237 19.8767 21.8053 20.1627C21.6869 20.4486 21.4864 20.693 21.2292 20.8649C20.9721 21.0368 20.6698 21.1286 20.3605 21.1286C19.9462 21.1267 19.5494 20.9611 19.2565 20.6681C18.9635 20.375 18.798 19.978 18.796 19.5635ZM26.6379 28.9947C26.6378 29.3041 26.5461 29.6064 26.3743 29.8636C26.2024 30.1209 25.9581 30.3215 25.6723 30.4399C25.3865 30.5584 25.072 30.5893 24.7686 30.529C24.4652 30.4686 24.1864 30.3196 23.9677 30.1007C23.7489 29.8819 23.5999 29.6031 23.5396 29.2995C23.4792 28.996 23.5102 28.6813 23.6286 28.3954C23.747 28.1094 23.9475 27.8651 24.2047 27.6931C24.4618 27.5213 24.764 27.4295 25.0732 27.4294C25.4876 27.4314 25.8844 27.5969 26.1775 27.89C26.4705 28.1831 26.636 28.5802 26.6379 28.9947ZM29.7869 21.1286C29.4777 21.1286 29.1754 21.0368 28.9182 20.8649C28.661 20.693 28.4605 20.4486 28.3421 20.1627C28.2237 19.8767 28.1927 19.5621 28.2531 19.2585C28.3135 18.955 28.4624 18.6762 28.6812 18.4573C28.9 18.2385 29.1787 18.0895 29.4821 18.0291C29.7855 17.9687 30.1 17.9997 30.3858 18.1181C30.6716 18.2366 30.9159 18.4371 31.0878 18.6945C31.2596 18.9516 31.3513 19.254 31.3514 19.5633C31.3495 19.9779 31.184 20.3749 30.891 20.6681C30.598 20.9611 30.2012 21.1267 29.7869 21.1286Z" stroke="#FE638E" stroke-width="0.3282"/>
</g>
<defs>
<filter id="filter0_d_384_195927" x="0.951008" y="0.156406" width="48.2454" height="48.2453" filterUnits="userSpaceOnUse" color-interpolation-filters="sRGB">
<feFlood flood-opacity="0" result="BackgroundImageFix"/>
<feColorMatrix in="SourceAlpha" type="matrix" values="0 0 0 0 0 0 0 0 0 0 0 0 0 0 0 0 0 0 127 0" result="hardAlpha"/>
<feOffset/>
<feGaussianBlur stdDeviation="8.205"/>
<feComposite in2="hardAlpha" operator="out"/>
<feColorMatrix type="matrix" values="0 0 0 0 0.996078 0 0 0 0 0.235294 0 0 0 0 0.447059 0 0 0 1 0"/>
<feBlend mode="normal" in2="BackgroundImageFix" result="effect1_dropShadow_384_195927"/>
<feBlend mode="normal" in="SourceGraphic" in2="effect1_dropShadow_384_195927" result="shape"/>
</filter>
</defs>
</svg>
