<svg width="13" height="14" viewBox="0 0 13 14" fill="none" xmlns="http://www.w3.org/2000/svg">
<g clip-path="url(#clip0_384_195097)">
<path d="M8.66534 7.52168V3.41918H3.53721V7.52168C3.53721 7.79369 3.64527 8.05456 3.83761 8.24691C4.02995 8.43925 4.29082 8.5473 4.56284 8.5473H7.63971C7.91172 8.5473 8.1726 8.43925 8.36494 8.24691C8.55728 8.05456 8.66534 7.79369 8.66534 7.52168ZM3.0244 2.39355H10.7166C10.9886 2.39355 11.2495 2.50161 11.4418 2.69395C11.6342 2.8863 11.7422 3.14717 11.7422 3.41918V4.95762C11.7422 5.22963 11.6342 5.4905 11.4418 5.68284C11.2495 5.87519 10.9886 5.98324 10.7166 5.98324H9.69096V7.52168C9.69096 8.0657 9.47485 8.58745 9.09016 8.97213C8.70548 9.35682 8.18374 9.57293 7.63971 9.57293H4.56284C4.01881 9.57293 3.49707 9.35682 3.11238 8.97213C2.7277 8.58745 2.51159 8.0657 2.51159 7.52168V2.90637C2.51159 2.77036 2.56562 2.63992 2.66179 2.54375C2.75796 2.44758 2.88839 2.39355 3.0244 2.39355ZM9.69096 3.41918V4.95762H10.7166V3.41918H9.69096ZM1.48596 10.5986H10.7166V11.6242H1.48596V10.5986Z" fill="#BBBABC"/>
</g>
<defs>
<clipPath id="clip0_384_195097">
<rect width="12.3075" height="12.3075" fill="white" transform="translate(0.461243 0.85498)"/>
</clipPath>
</defs>
</svg>
