<svg width="11" height="11" viewBox="0 0 11 11" fill="none" xmlns="http://www.w3.org/2000/svg">
<path d="M2.42346 8.01175C1.99912 8.01175 1.59216 7.8343 1.29211 7.51844C0.992055 7.20258 0.823486 6.77419 0.823486 6.3275V1.92253C0.823486 1.47584 0.992055 1.04745 1.29211 0.731587C1.59216 0.415729 1.99912 0.238281 2.42346 0.238281H9.06951C9.27962 0.238281 9.48768 0.281846 9.6818 0.366487C9.87591 0.451129 10.0523 0.57519 10.2009 0.731587C10.3494 0.887984 10.4673 1.07365 10.5477 1.278C10.6281 1.48234 10.6695 1.70135 10.6695 1.92253V6.3275C10.6695 6.54867 10.6281 6.76769 10.5477 6.97203C10.4673 7.17637 10.3494 7.36204 10.2009 7.51844C10.0523 7.67484 9.87591 7.7989 9.6818 7.88354C9.48768 7.96818 9.27962 8.01175 9.06951 8.01175H6.24469L3.77729 9.95511C3.68586 10.0271 3.57719 10.071 3.46345 10.0817C3.34971 10.0924 3.23537 10.0696 3.13324 10.0158C3.03111 9.96205 2.94521 9.87941 2.88515 9.77717C2.82509 9.67492 2.79325 9.5571 2.79318 9.43688V8.01175H2.42395H2.42346ZM5.99953 7.2344H9.06951C9.298 7.2344 9.51713 7.13885 9.6787 6.96877C9.84027 6.7987 9.93104 6.56802 9.93104 6.3275V1.92253C9.93104 1.68201 9.84027 1.45133 9.6787 1.28125C9.51713 1.11118 9.298 1.01563 9.06951 1.01563H2.42346C2.19497 1.01563 1.97584 1.11118 1.81427 1.28125C1.6527 1.45133 1.56194 1.68201 1.56194 1.92253V6.3275C1.56194 6.82811 1.9479 7.2344 2.42346 7.2344H3.53064V9.17777L5.99953 7.2344Z" fill="#BDBDBD"/>
</svg>
