<svg width="13" height="14" viewBox="0 0 13 14" fill="none" xmlns="http://www.w3.org/2000/svg">
<g clip-path="url(#clip0_384_195163)">
<path d="M7.89513 5.57397H4.28699L6.09106 8.66623L7.89513 5.57397ZM9.45511 4.93398L6.31157 10.3226C6.28896 10.3612 6.25664 10.3933 6.21783 10.4155C6.17901 10.4378 6.13504 10.4495 6.09029 10.4495C6.04554 10.4495 6.00158 10.4378 5.96276 10.4155C5.92394 10.3933 5.89162 10.3612 5.86901 10.3226L2.72547 4.93398C2.70267 4.8949 2.69061 4.85048 2.69052 4.80524C2.69044 4.75999 2.70233 4.71552 2.72498 4.67636C2.74764 4.63719 2.78025 4.60472 2.81952 4.58224C2.85879 4.55975 2.9033 4.54806 2.94855 4.54834H9.23409C9.2792 4.54833 9.32352 4.56022 9.36257 4.58282C9.40162 4.60541 9.43402 4.63791 9.4565 4.67703C9.47897 4.71615 9.49072 4.76051 9.49057 4.80562C9.49042 4.85074 9.47836 4.89501 9.45562 4.93398H9.45511Z" fill="#BDBDBD"/>
</g>
<defs>
<clipPath id="clip0_384_195163">
<rect width="12.3075" height="12.3075" fill="white" transform="matrix(0 1 -1 0 12.7725 0.958496)"/>
</clipPath>
</defs>
</svg>
