<svg width="38" height="48" viewBox="0 0 38 48" fill="none" xmlns="http://www.w3.org/2000/svg">
<circle cx="10.6874" cy="10.6874" r="10.6874" transform="matrix(-1 0 0 1 29.4409 8.44922)" fill="white"/>
<g filter="url(#filter0_f_384_201071)">
<ellipse cx="19.0629" cy="43.6509" rx="14.769" ry="2.05125" fill="white"/>
</g>
<path fill-rule="evenodd" clip-rule="evenodd" d="M16.8641 0.628493C10.5349 1.28593 4.90486 5.28546 2.06829 11.1393C1.11912 13.098 0.496644 15.2712 0.260688 17.4502C0.1273 18.682 0.195843 21.5062 0.3852 22.5799C0.462455 23.0179 0.632087 23.8001 0.762269 24.3183C2.38816 30.7914 7.47597 36.0548 13.7802 37.7856L14.7683 38.0569L16.7162 40.6904C17.7874 42.1389 18.7046 43.3239 18.7544 43.3239C18.8041 43.3239 19.7214 42.1379 20.7926 40.6883L22.7404 38.0528L23.6062 37.8258C29.9057 36.1748 35.1129 30.822 36.7465 24.3183C37.1615 22.666 37.2623 21.8917 37.3064 20.0177C37.354 17.9972 37.2309 16.7 36.8355 15.055C36.0279 11.6951 34.4983 8.86709 32.1293 6.35409C29.2711 3.32203 25.619 1.3876 21.5487 0.749856C20.4948 0.584658 17.9262 0.518194 16.8641 0.628493ZM20.1342 5.57018C25.4734 6.16098 29.9849 9.82542 31.686 14.9528C32.2412 16.6263 32.3504 17.3632 32.3504 19.4369C32.3504 21.0287 32.3255 21.3973 32.1682 22.1327C31.2302 26.5199 28.5392 30.0691 24.7188 31.9584C19.8382 34.3718 14.1414 33.6454 9.96046 30.0764C7.61034 28.0703 6.02202 25.3461 5.34529 22.1609C5.18265 21.3951 5.15832 21.0413 5.15832 19.4369C5.15832 17.3787 5.26492 16.6492 5.8094 14.9831C7.80258 8.88301 13.8949 4.87971 20.1342 5.57018Z" fill="#FE3C72"/>
<defs>
<filter id="filter0_f_384_201071" x="2.3028" y="39.6085" width="33.5202" height="8.0847" filterUnits="userSpaceOnUse" color-interpolation-filters="sRGB">
<feFlood flood-opacity="0" result="BackgroundImageFix"/>
<feBlend mode="normal" in="SourceGraphic" in2="BackgroundImageFix" result="shape"/>
<feGaussianBlur stdDeviation="0.99554" result="effect1_foregroundBlur_384_201071"/>
</filter>
</defs>
</svg>
