<svg width="15" height="11" viewBox="0 0 15 11" fill="none" xmlns="http://www.w3.org/2000/svg">
<path d="M14.9456 5.00932C14.9205 4.95882 14.4013 3.79119 13.2375 2.62355C12.0738 1.45592 10.3095 0.237793 7.59422 0.237793C4.87891 0.237793 3.027 1.53166 1.95088 2.62355C0.874772 3.71545 0.267895 4.95882 0.242869 5.00932C0.221031 5.05678 0.209717 5.10847 0.209717 5.16079C0.209717 5.21312 0.221031 5.26481 0.242869 5.31227C0.267895 5.36276 0.787182 6.5304 1.95088 7.69803C3.11459 8.86567 4.87891 10.0838 7.59422 10.0838C10.3095 10.0838 12.1614 8.78993 13.2375 7.69803C14.3137 6.60614 14.9205 5.36276 14.9456 5.31227C14.9674 5.26481 14.9787 5.21312 14.9787 5.16079C14.9787 5.10847 14.9674 5.05678 14.9456 5.00932ZM7.59422 9.32641C5.62969 9.32641 3.91542 8.60689 2.50145 7.1868C1.90523 6.59084 1.40117 5.90788 1.00616 5.16079C1.40117 4.41371 1.90523 3.73074 2.50145 3.13479C3.91542 1.71469 5.62969 0.995178 7.59422 0.995178C9.55875 0.995178 11.273 1.71469 12.687 3.13479C13.2832 3.73074 13.7873 4.41371 14.1823 5.16079C13.7819 5.9308 11.786 9.32641 7.59422 9.32641ZM7.59422 2.25749C7.02501 2.25749 6.46858 2.42776 5.9953 2.74678C5.52202 3.0658 5.15314 3.51923 4.93532 4.04974C4.71749 4.58026 4.66049 5.16401 4.77154 5.7272C4.88259 6.29039 5.15669 6.80771 5.55918 7.21374C5.96167 7.61978 6.47448 7.89629 7.03275 8.00831C7.59102 8.12034 8.16969 8.06284 8.69557 7.8431C9.22145 7.62335 9.67093 7.25123 9.98717 6.77378C10.3034 6.29634 10.4722 5.73501 10.4722 5.16079C10.4722 4.39079 10.169 3.65232 9.62925 3.10784C9.08953 2.56337 8.3575 2.25749 7.59422 2.25749ZM7.59422 7.30672C7.1735 7.30672 6.76223 7.18086 6.41241 6.94506C6.06259 6.70927 5.78994 6.37412 5.62894 5.982C5.46794 5.58989 5.42581 5.15841 5.50789 4.74214C5.58997 4.32588 5.79257 3.94351 6.09006 3.6434C6.38755 3.34328 6.76658 3.1389 7.17922 3.0561C7.59186 2.9733 8.01957 3.0158 8.40826 3.17822C8.79696 3.34064 9.12918 3.61569 9.36292 3.96858C9.59666 4.32148 9.72142 4.73637 9.72142 5.16079C9.71976 5.72941 9.49512 6.27427 9.09655 6.67635C8.69798 7.07843 8.15788 7.30505 7.59422 7.30672Z" fill="#BDBDBD"/>
</svg>
