<svg width="12" height="11" viewBox="0 0 12 11" fill="none" xmlns="http://www.w3.org/2000/svg">
<path d="M11.4617 2.1666C11.4614 1.79958 11.3564 1.44028 11.1591 1.13084C10.9618 0.821396 10.6804 0.574653 10.3479 0.419552C10.0154 0.264451 9.64554 0.207426 9.28176 0.255165C8.91799 0.302904 8.57538 0.453428 8.2941 0.689079C8.01283 0.92473 7.80456 1.23573 7.69374 1.58561C7.58292 1.93548 7.57413 2.30972 7.66842 2.66441C7.7627 3.01911 7.95614 3.33955 8.22605 3.58815C8.49595 3.83675 8.83113 4.00319 9.19226 4.06796V4.20985C9.19077 4.48035 9.0827 4.73933 8.89149 4.9306C8.70029 5.12187 8.4414 5.22999 8.171 5.23148H4.08596C3.81556 5.22999 3.55667 5.12187 3.36546 4.9306C3.17426 4.73933 3.06619 4.48035 3.0647 4.20985V4.06796C3.53917 3.98287 3.9646 3.72315 4.25722 3.33996C4.54984 2.95677 4.68844 2.47787 4.64574 1.99757C4.60304 1.51726 4.38213 1.07034 4.0265 0.744822C3.67088 0.419304 3.20631 0.238771 2.72428 0.238771C2.24224 0.238771 1.77768 0.419304 1.42205 0.744822C1.06643 1.07034 0.845515 1.51726 0.802815 1.99757C0.760114 2.47787 0.898721 2.95677 1.19134 3.33996C1.48396 3.72315 1.90939 3.98287 2.38386 4.06796V4.20985C2.38386 4.66144 2.56319 5.09453 2.88239 5.41385C3.2016 5.73317 3.63453 5.91256 4.08596 5.91256H5.78806V7.07608C5.31359 7.16118 4.88816 7.42089 4.59554 7.80408C4.30292 8.18727 4.16431 8.66616 4.20702 9.14647C4.24972 9.62678 4.47063 10.0737 4.82625 10.3992C5.18188 10.7247 5.64645 10.9053 6.12848 10.9053C6.61051 10.9053 7.07508 10.7247 7.43071 10.3992C7.78633 10.0737 8.00724 9.62678 8.04994 9.14647C8.09264 8.66616 7.95404 8.18727 7.66142 7.80408C7.3688 7.42089 6.94337 7.16118 6.4689 7.07608V5.91256H8.171C8.62196 5.91107 9.05403 5.73119 9.37291 5.4122C9.6918 5.0932 9.8716 4.66098 9.8731 4.20985V4.06796C10.3184 3.98697 10.7212 3.75236 11.0115 3.40496C11.3017 3.05757 11.4611 2.61936 11.4617 2.1666ZM1.47607 2.1666C1.47607 1.91964 1.54928 1.67823 1.68643 1.47289C1.82359 1.26755 2.01853 1.1075 2.24661 1.013C2.47469 0.918488 2.72566 0.89376 2.96779 0.94194C3.20992 0.99012 3.43233 1.10904 3.60689 1.28367C3.78146 1.4583 3.90034 1.68079 3.9485 1.923C3.99666 2.16522 3.97194 2.41628 3.87747 2.64444C3.783 2.8726 3.62301 3.06761 3.41774 3.20482C3.21248 3.34202 2.97115 3.41525 2.72428 3.41525C2.39369 3.41376 2.07707 3.28173 1.84331 3.04788C1.60955 2.81404 1.47756 2.4973 1.47607 2.1666ZM7.37669 8.97744C7.37669 9.2244 7.30348 9.46581 7.16632 9.67115C7.02917 9.87649 6.83423 10.0365 6.60615 10.131C6.37807 10.2256 6.12709 10.2503 5.88497 10.2021C5.64284 10.1539 5.42043 10.035 5.24586 9.86037C5.0713 9.68574 4.95242 9.46325 4.90426 9.22104C4.85609 8.97882 4.88081 8.72776 4.97529 8.4996C5.06976 8.27144 5.22975 8.07643 5.43501 7.93922C5.64028 7.80202 5.88161 7.72879 6.12848 7.72879C6.45906 7.73028 6.77568 7.86231 7.00945 8.09616C7.24321 8.33 7.37519 8.64674 7.37669 8.97744ZM9.53268 3.41525C9.28581 3.41525 9.04448 3.34202 8.83921 3.20482C8.63395 3.06761 8.47396 2.8726 8.37949 2.64444C8.28501 2.41628 8.26029 2.16522 8.30846 1.923C8.35662 1.68079 8.4755 1.4583 8.65006 1.28367C8.82463 1.10904 9.04704 0.99012 9.28917 0.94194C9.53129 0.89376 9.78227 0.918488 10.0103 1.013C10.2384 1.1075 10.4334 1.26755 10.5705 1.47289C10.7077 1.67823 10.7809 1.91964 10.7809 2.1666C10.7794 2.4973 10.6474 2.81404 10.4136 3.04788C10.1799 3.28173 9.86327 3.41376 9.53268 3.41525Z" fill="#BDBDBD"/>
</svg>
