<svg width="9" height="17" viewBox="0 0 9 17" fill="none" xmlns="http://www.w3.org/2000/svg">
<g filter="url(#filter0_d_384_191054)">
<path d="M4.36245 2.69385C4.7023 2.69385 4.97782 2.96936 4.97782 3.30922C4.97782 3.64908 4.7023 3.9246 4.36245 3.9246C4.02259 3.9246 3.74707 3.64908 3.74707 3.30922C3.74707 2.96936 4.02259 2.69385 4.36245 2.69385ZM4.36245 7.61682C4.7023 7.61682 4.97782 7.89235 4.97782 8.2322C4.97782 8.57205 4.7023 8.84757 4.36245 8.84757C4.02259 8.84757 3.74707 8.57205 3.74707 8.2322C3.74707 7.89235 4.02259 7.61682 4.36245 7.61682ZM4.36245 12.5398C4.7023 12.5398 4.97782 12.8153 4.97782 13.1552C4.97782 13.495 4.7023 13.7706 4.36245 13.7706C4.02259 13.7706 3.74707 13.495 3.74707 13.1552C3.74707 12.8153 4.02259 12.5398 4.36245 12.5398Z" fill="white"/>
<path d="M4.36245 2.69385C4.7023 2.69385 4.97782 2.96936 4.97782 3.30922C4.97782 3.64908 4.7023 3.9246 4.36245 3.9246C4.02259 3.9246 3.74707 3.64908 3.74707 3.30922C3.74707 2.96936 4.02259 2.69385 4.36245 2.69385ZM4.36245 7.61682C4.7023 7.61682 4.97782 7.89235 4.97782 8.2322C4.97782 8.57205 4.7023 8.84757 4.36245 8.84757C4.02259 8.84757 3.74707 8.57205 3.74707 8.2322C3.74707 7.89235 4.02259 7.61682 4.36245 7.61682ZM4.36245 12.5398C4.7023 12.5398 4.97782 12.8153 4.97782 13.1552C4.97782 13.495 4.7023 13.7706 4.36245 13.7706C4.02259 13.7706 3.74707 13.495 3.74707 13.1552C3.74707 12.8153 4.02259 12.5398 4.36245 12.5398Z" stroke="white" stroke-width="0.8205"/>
</g>
<defs>
<filter id="filter0_d_384_191054" x="0.054914" y="-0.177809" width="8.61527" height="18.4612" filterUnits="userSpaceOnUse" color-interpolation-filters="sRGB">
<feFlood flood-opacity="0" result="BackgroundImageFix"/>
<feColorMatrix in="SourceAlpha" type="matrix" values="0 0 0 0 0 0 0 0 0 0 0 0 0 0 0 0 0 0 127 0" result="hardAlpha"/>
<feOffset dy="0.8205"/>
<feGaussianBlur stdDeviation="1.641"/>
<feComposite in2="hardAlpha" operator="out"/>
<feColorMatrix type="matrix" values="0 0 0 0 0 0 0 0 0 0 0 0 0 0 0 0 0 0 0.25 0"/>
<feBlend mode="normal" in2="BackgroundImageFix" result="effect1_dropShadow_384_191054"/>
<feBlend mode="normal" in="SourceGraphic" in2="effect1_dropShadow_384_191054" result="shape"/>
</filter>
</defs>
</svg>
