<svg width="18" height="17" viewBox="0 0 18 17" fill="none" xmlns="http://www.w3.org/2000/svg">
<g clip-path="url(#clip0_384_195156)">
<path d="M8.6144 2.72705C8.95425 2.72705 9.22977 3.00257 9.22977 3.34243C9.22977 3.68229 8.95425 3.9578 8.6144 3.9578C8.27455 3.9578 7.99902 3.68229 7.99902 3.34243C7.99902 3.00257 8.27455 2.72705 8.6144 2.72705ZM8.6144 7.65003C8.95425 7.65003 9.22977 7.92555 9.22977 8.2654C9.22977 8.60525 8.95425 8.88078 8.6144 8.88078C8.27455 8.88078 7.99902 8.60525 7.99902 8.2654C7.99902 7.92555 8.27455 7.65003 8.6144 7.65003ZM8.6144 12.573C8.95425 12.573 9.22977 12.8485 9.22977 13.1884C9.22977 13.5283 8.95425 13.8038 8.6144 13.8038C8.27455 13.8038 7.99902 13.5283 7.99902 13.1884C7.99902 12.8485 8.27455 12.573 8.6144 12.573Z" fill="#BDBDBD" stroke="#BDBDBD" stroke-width="0.8205"/>
</g>
<defs>
<clipPath id="clip0_384_195156">
<rect width="16.41" height="16.41" fill="white" transform="translate(0.615417 0.266113)"/>
</clipPath>
</defs>
</svg>
