<svg width="16" height="15" viewBox="0 0 16 15" fill="none" xmlns="http://www.w3.org/2000/svg">
<path d="M15.0759 7.62522C15.0759 6.80955 14.4147 6.14832 13.599 6.14832H9.16835V1.71762C9.16835 0.901955 8.50711 0.240723 7.69145 0.240723C6.87578 0.240723 6.21455 0.901953 6.21455 1.71762V6.14832H1.78385C0.968178 6.14832 0.306946 6.80955 0.306946 7.62522C0.306946 8.44089 0.968176 9.10212 1.78385 9.10212H6.21455V13.5328C6.21455 14.3485 6.87578 15.0097 7.69145 15.0097C8.50711 15.0097 9.16835 14.3485 9.16835 13.5328V9.10212H13.599C14.4147 9.10212 15.0759 8.44089 15.0759 7.62522Z" fill="#FE638E"/>
</svg>
