<svg width="13" height="13" viewBox="0 0 13 13" fill="none" xmlns="http://www.w3.org/2000/svg">
<g clip-path="url(#clip0_384_195122)">
<path d="M10.0517 5.13705C10.2543 5.48862 10.5876 5.74587 10.9791 5.85278C11.3705 5.95969 11.7883 5.90758 12.1415 5.70781C12.183 6.07891 12.1077 6.45372 11.9262 6.78003C11.7447 7.10634 11.4659 7.36791 11.1287 7.5283L11.1281 10.778H7.53845V9.75236C7.53853 9.49361 7.44081 9.24439 7.26487 9.05466C7.08893 8.86493 6.84777 8.74871 6.58975 8.7293L6.51283 8.72674C6.25407 8.72666 6.00485 8.82438 5.81512 9.00032C5.62539 9.17626 5.50917 9.41742 5.48976 9.67544L5.4872 9.75236V10.778H1.89751V7.52881C1.55965 7.36865 1.28023 7.10698 1.09829 6.78033C0.916345 6.45367 0.840959 6.07836 0.882658 5.70679C1.2358 5.90697 1.65376 5.95941 2.04541 5.85268C2.43706 5.74596 2.77063 5.48872 2.97339 5.13705H10.0517ZM9.5538 6.16268H3.47133L3.43236 6.20319C3.21134 6.41857 2.95288 6.59293 2.67032 6.71703L2.62109 6.73703L2.92314 6.88061L2.92263 9.75236L4.46209 9.75185V9.71493L4.46722 9.60057C4.54363 8.56674 5.38002 7.75496 6.4436 7.70419L6.55026 7.70163L6.66462 7.70675C7.16313 7.74373 7.63099 7.96148 7.98028 8.31908C8.32957 8.67668 8.53626 9.14953 8.56151 9.64878L8.56356 9.75185L10.1025 9.75236L10.103 6.88061L10.404 6.73703L10.3553 6.71651C10.0725 6.59266 9.81434 6.41877 9.59329 6.20319L9.5538 6.16268ZM9.09535 1.54736C9.13203 1.80177 9.22293 2.04533 9.36189 2.26157C9.50085 2.4778 9.68463 2.66167 9.9008 2.80073C10.117 2.93979 10.3605 3.03079 10.6149 3.06759C10.8693 3.10438 11.1286 3.08611 11.3753 3.01401C11.3314 3.43891 11.1374 3.83422 10.8281 4.1289C10.5189 4.42358 10.1147 4.59831 9.68816 4.62167L9.5897 4.62424H3.43595C2.99184 4.62431 2.56348 4.45973 2.23366 4.16231C1.90385 3.86489 1.69602 3.45576 1.65034 3.01401C1.89705 3.08611 2.15638 3.10438 2.41077 3.06759C2.66516 3.03079 2.90868 2.93979 3.12485 2.80073C3.34102 2.66167 3.52481 2.4778 3.66377 2.26157C3.80273 2.04533 3.89362 1.80177 3.9303 1.54736H9.09535ZM8.35895 2.57299H4.66619C4.48143 2.93475 4.22081 3.2524 3.9021 3.50426L3.77492 3.59861H9.25022L9.24407 3.59451C8.91422 3.36133 8.63812 3.06022 8.43433 2.71145L8.35895 2.57299Z" fill="#BBBABC"/>
</g>
<defs>
<clipPath id="clip0_384_195122">
<rect width="12.3075" height="12.3075" fill="white" transform="translate(0.35968 0.00927734)"/>
</clipPath>
</defs>
</svg>
