<svg width="13" height="13" viewBox="0 0 13 13" fill="none" xmlns="http://www.w3.org/2000/svg">
<g clip-path="url(#clip0_384_195127)">
<path d="M10.0517 5.29135C10.2543 5.64291 10.5876 5.90017 10.9791 6.00708C11.3705 6.11399 11.7883 6.06188 12.1415 5.86211C12.183 6.2332 12.1077 6.60801 11.9262 6.93433C11.7447 7.26064 11.4659 7.52221 11.1287 7.68259L11.1281 10.9323H7.53845V9.90666C7.53853 9.64791 7.44081 9.39868 7.26487 9.20895C7.08893 9.01922 6.84777 8.90301 6.58975 8.8836L6.51283 8.88103C6.25407 8.88095 6.00485 8.97868 5.81512 9.15462C5.62539 9.33056 5.50917 9.57171 5.48976 9.82974L5.4872 9.90666V10.9323H1.89751V7.6831C1.55965 7.52295 1.28023 7.26127 1.09829 6.93462C0.916345 6.60797 0.840959 6.23265 0.882658 5.86108C1.2358 6.06126 1.65376 6.11371 2.04541 6.00698C2.43706 5.90025 2.77063 5.64301 2.97339 5.29135H10.0517ZM9.5538 6.31697H3.47133L3.43236 6.35748C3.21134 6.57287 2.95288 6.74722 2.67032 6.87132L2.62109 6.89132L2.92314 7.03491L2.92263 9.90666L4.46209 9.90615V9.86922L4.46722 9.75487C4.54363 8.72104 5.38002 7.90926 6.4436 7.85849L6.55026 7.85592L6.66462 7.86105C7.16313 7.89803 7.63099 8.11578 7.98028 8.47338C8.32957 8.83098 8.53626 9.30383 8.56151 9.80307L8.56356 9.90615L10.1025 9.90666L10.103 7.03491L10.404 6.89132L10.3553 6.87081C10.0725 6.74696 9.81434 6.57306 9.59329 6.35748L9.5538 6.31697ZM9.09535 1.70166C9.13203 1.95607 9.22293 2.19963 9.36189 2.41586C9.50085 2.6321 9.68463 2.81597 9.9008 2.95502C10.117 3.09408 10.3605 3.18509 10.6149 3.22188C10.8693 3.25868 11.1286 3.24041 11.3753 3.1683C11.3314 3.59321 11.1374 3.98852 10.8281 4.2832C10.5189 4.57788 10.1147 4.7526 9.68816 4.77597L9.5897 4.77854H3.43595C2.99184 4.77861 2.56348 4.61403 2.23366 4.31661C1.90385 4.01919 1.69602 3.61006 1.65034 3.1683C1.89705 3.24041 2.15638 3.25868 2.41077 3.22188C2.66516 3.18509 2.90868 3.09408 3.12485 2.95502C3.34102 2.81597 3.52481 2.6321 3.66377 2.41586C3.80273 2.19963 3.89362 1.95607 3.9303 1.70166H9.09535ZM8.35895 2.72729H4.66619C4.48143 3.08905 4.22081 3.4067 3.9021 3.65855L3.77492 3.75291H9.25022L9.24407 3.74881C8.91422 3.51562 8.63812 3.21452 8.43433 2.86574L8.35895 2.72729Z" fill="#BBBABC"/>
</g>
<defs>
<clipPath id="clip0_384_195127">
<rect width="12.3075" height="12.3075" fill="white" transform="translate(0.35968 0.162598)"/>
</clipPath>
</defs>
</svg>
