<svg width="13" height="14" viewBox="0 0 13 14" fill="none" xmlns="http://www.w3.org/2000/svg">
<g clip-path="url(#clip0_384_195102)">
<path d="M1.3844 11.1115H11.6406V12.1371H1.3844V11.1115ZM2.41002 7.00898H3.43565V10.5987H2.41002V7.00898ZM4.97409 7.00898H5.99971V10.5987H4.97409V7.00898ZM7.02534 7.00898H8.05096V10.5987H7.02534V7.00898ZM9.5894 7.00898H10.615V10.5987H9.5894V7.00898ZM1.3844 4.44492L6.51252 1.88086L11.6406 4.44492V6.49617H1.3844V4.44492ZM2.41002 5.07876V5.47055H10.615V5.07876L6.51252 3.02751L2.41002 5.07876ZM6.51252 4.95773C6.37652 4.95773 6.24608 4.90371 6.14991 4.80753C6.05374 4.71136 5.99971 4.58093 5.99971 4.44492C5.99971 4.30892 6.05374 4.17848 6.14991 4.08231C6.24608 3.98614 6.37652 3.93211 6.51252 3.93211C6.64853 3.93211 6.77897 3.98614 6.87514 4.08231C6.97131 4.17848 7.02534 4.30892 7.02534 4.44492C7.02534 4.58093 6.97131 4.71136 6.87514 4.80753C6.77897 4.90371 6.64853 4.95773 6.51252 4.95773Z" fill="#FE3C72"/>
</g>
<defs>
<clipPath id="clip0_384_195102">
<rect width="12.3075" height="12.3075" fill="white" transform="translate(0.35968 0.85498)"/>
</clipPath>
</defs>
</svg>
