<svg width="13" height="14" viewBox="0 0 13 14" fill="none" xmlns="http://www.w3.org/2000/svg">
<g clip-path="url(#clip0_384_198802)">
<path fill-rule="evenodd" clip-rule="evenodd" d="M6.70332 4.21181L9.73774 9.41339H9.73824C9.76019 9.45101 9.77182 9.49374 9.77197 9.53729C9.77212 9.58084 9.76077 9.62366 9.73908 9.66142C9.71739 9.69918 9.68611 9.73055 9.64842 9.75236C9.61072 9.77417 9.56794 9.78565 9.52439 9.78564H3.45704C3.41336 9.78592 3.37039 9.77463 3.33249 9.75293C3.29459 9.73122 3.2631 9.69988 3.24123 9.66207C3.21937 9.62426 3.20789 9.58134 3.20797 9.53767C3.20806 9.49399 3.2197 9.45111 3.24171 9.41339L6.27613 4.21181C6.29795 4.17454 6.32915 4.14362 6.36662 4.12214C6.40409 4.10065 6.44653 4.08935 6.48973 4.08935C6.53292 4.08935 6.57536 4.10065 6.61283 4.12214C6.6503 4.14362 6.6815 4.17454 6.70332 4.21181Z" fill="#FE3C72"/>
</g>
<defs>
<clipPath id="clip0_384_198802">
<rect width="12.3075" height="12.3075" fill="white" transform="matrix(0 -1 -1 0 12.4775 13.114)"/>
</clipPath>
</defs>
</svg>
