<svg width="7" height="8" viewBox="0 0 7 8" fill="none" xmlns="http://www.w3.org/2000/svg">
<path d="M3.64461 0.956055C4.07983 0.956055 4.49723 1.12895 4.80497 1.43669C5.11272 1.74444 5.28561 2.16183 5.28561 2.59705C5.28561 3.03227 5.11272 3.44967 4.80497 3.75742C4.49723 4.06516 4.07983 4.23805 3.64461 4.23805C3.20939 4.23805 2.79199 4.06516 2.48425 3.75742C2.1765 3.44967 2.00361 3.03227 2.00361 2.59705C2.00361 2.16183 2.1765 1.74444 2.48425 1.43669C2.79199 1.12895 3.20939 0.956055 3.64461 0.956055ZM3.64461 5.05855C5.45791 5.05855 6.92661 5.7929 6.92661 6.69955V7.52005H0.36261V6.69955C0.36261 5.7929 1.8313 5.05855 3.64461 5.05855Z" fill="#BDBDBD"/>
</svg>
